<?xml version="1.0" encoding="UTF-8"?>
<svg id="Capa_2" data-name="Capa 2" xmlns="http://www.w3.org/2000/svg" viewBox="0 0 124.56 47.74">
  <defs>
    <style>
      .cls-1 {
        fill: #1d1d1b;
      }
    </style>
  </defs>
  <g id="Capa_1-2" data-name="Capa 1">
    <path class="cls-1" d="M8.39,4.93H28.19l-.59,2.77H8.98l-.59-2.77Zm7.92-2.96c0-1.09,.89-1.98,1.98-1.98s1.98,.89,1.98,1.98-.89,1.98-1.98,1.98-1.98-.89-1.98-1.98m14.31,32.03l-3.66,3.66h-6.66v6.66l-1.98,1.98-1.98-1.98v-6.66h-6.67l-3.67-3.66h10.34v-3.96h3.96v3.96h10.32ZM22.25,2.47c0-.82,.67-1.48,1.49-1.48s1.49,.66,1.49,1.48-.66,1.48-1.49,1.48-1.49-.66-1.49-1.48m4.95,.49c0-.55,.44-.99,.99-.99s.99,.44,.99,.99-.44,.99-.99,.99-.99-.44-.99-.99m-15.85-.49c0-.82,.67-1.48,1.49-1.48s1.49,.66,1.49,1.48-.66,1.48-1.49,1.48-1.49-.66-1.49-1.48m-3.96,.49c0-.55,.44-.99,.99-.99s.99,.44,.99,.99-.44,.99-.99,.99-.99-.44-.99-.99m11.44,8.22h3.88l13.89,13.87v3.86L18.84,11.19Zm-4.94,0h3.87L0,28.93v-3.86L13.9,11.19Zm3.89,36.55h-3.88L0,33.86v-3.86l17.78,17.74Zm18.83-17.74v3.86l-13.9,13.88h-3.87l17.77-17.74ZM4.43,26.45l3.98-3.98v6.4h-3.98v-2.42Zm27.73,.03v2.39h-3.96v-6.34l3.96,3.95Zm-7.92-7.91v10.3h-3.96V14.62l3.96,3.95Zm-7.92-3.99v14.29h-3.96v-10.33l3.96-3.96Zm33.58,6.71l1.26,3.7h1.62l-4.02-11.75h-1.83l-4,11.75h1.57l1.22-3.7h4.18Zm-3.86-1.18l1.15-3.4c.23-.72,.42-1.45,.58-2.13,.23,.68,.4,1.38,.64,2.15l1.17,3.38h-3.55Zm5.99,8.56c.82,0,1.94-.28,2.62-.96,.75-.77,1.01-1.83,1.01-3.47v-7.69h-1.54v7.1c0,2.02-.17,2.7-.59,3.17-.37,.4-.96,.59-1.68,.64l.17,1.2Zm2.85-13.53c.61,0,.96-.44,.96-.94,0-.54-.37-.96-.94-.96s-.96,.42-.96,.96c0,.51,.37,.94,.93,.94h.02Zm9.85,1.41h-1.54v5.16c0,.3-.05,.58-.14,.79-.28,.7-1,1.41-2.03,1.41-1.38,0-1.89-1.1-1.89-2.7v-4.66h-1.54v4.93c0,2.95,1.59,3.7,2.92,3.7,1.5,0,2.41-.89,2.79-1.57l.12,1.38h1.36c-.05-.66-.07-1.43-.07-2.32v-6.12Zm2.03,8.44h1.54v-5.09c0-.24,.03-.52,.11-.72,.28-.85,1.06-1.57,2.06-1.57,1.45,0,1.96,1.15,1.96,2.51v4.87h1.54v-5.04c0-2.9-1.82-3.59-2.99-3.59-1.4,0-2.38,.79-2.79,1.57l-.12-1.38h-1.36c.05,.7,.07,1.4,.07,2.29v6.16Zm9.52-9.99v1.55h-1.31v1.17h1.31v4.59c0,.99,.18,1.74,.59,2.22,.37,.4,.94,.64,1.66,.64,.6,0,1.07-.1,1.36-.21l-.07-1.17c-.23,.07-.47,.1-.89,.1-.86,0-1.15-.59-1.15-1.64v-4.53h2.2v-1.17h-2.2v-2.02l-1.5,.47Zm10.86,4.81c0-1.69-.63-3.45-3.23-3.45-1.07,0-2.1,.3-2.79,.73l.35,1.03c.59-.4,1.41-.63,2.22-.63,1.73-.02,1.92,1.26,1.92,1.95-3.26,.16-5.08,1.27-5.08,3.31,0,1.22,.87,2.42,2.58,2.42,1.21,0,2.13-.59,2.58-1.26l.19,1.06h1.38c-.09-.58-.12-1.29-.12-2.02v-3.16Zm-1.5,2.34c0,.16-.02,.33-.07,.49-.24,.72-.96,1.41-2.08,1.41-.77,0-1.43-.45-1.43-1.47,0-1.64,1.9-1.93,3.58-1.9v1.47Zm3.44,2.84h1.5v-5.09c0-.26,.03-.52,.12-.75,.25-.77,.96-1.54,1.9-1.54,1.17,0,1.76,.96,1.76,2.3v5.08h1.5v-5.23c0-.26,.05-.54,.12-.77,.28-.73,.94-1.38,1.83-1.38,1.22,0,1.83,.96,1.83,2.6v4.78h1.5v-4.97c0-2.93-1.66-3.66-2.79-3.66-.8,0-1.35,.21-1.85,.59-.35,.26-.7,.61-.96,1.1-.4-.99-1.27-1.69-2.41-1.69-1.41,0-2.2,.75-2.67,1.55l-.12-1.36h-1.34c.03,.7,.07,1.4,.07,2.29v6.16Zm20.84-3.94c.04-.17,.05-.4,.05-.71,0-1.55-.72-3.98-3.47-3.98-2.46,0-3.98,2.01-3.98,4.55s1.57,4.26,4.16,4.26c1.35,0,2.29-.3,2.83-.54l-.28-1.1c-.56,.24-1.24,.43-2.34,.43-1.54,0-2.85-.85-2.88-2.91h5.92Zm-5.9-1.1c.12-1.07,.79-2.49,2.36-2.49,1.71,0,2.13,1.52,2.11,2.49h-4.47Zm7.34,5.04h1.54v-5.09c0-.24,.04-.52,.11-.72,.28-.85,1.06-1.57,2.06-1.57,1.45,0,1.96,1.15,1.96,2.51v4.87h1.54v-5.04c0-2.9-1.82-3.59-2.99-3.59-1.4,0-2.38,.79-2.8,1.57l-.12-1.38h-1.36c.05,.7,.07,1.4,.07,2.29v6.16Zm9.52-9.99v1.55h-1.31v1.17h1.31v4.59c0,.99,.17,1.74,.59,2.22,.37,.4,.94,.64,1.66,.64,.59,0,1.07-.1,1.36-.21l-.07-1.17c-.23,.07-.47,.1-.89,.1-.86,0-1.15-.59-1.15-1.64v-4.53h2.2v-1.17h-2.2v-2.02l-1.5,.47ZM49.53,30.42v5.02c-.4-.66-1.28-1.27-2.58-1.27-2.04,0-3.81,1.71-3.79,4.53,0,2.56,1.59,4.29,3.63,4.29,1.38,0,2.39-.72,2.86-1.66l.11,1.46h1.38c-.05-.57-.07-1.43-.07-2.18v-10.2h-1.54Zm0,8.84c0,.24-.02,.45-.07,.65-.28,1.15-1.22,1.85-2.25,1.85-1.64,0-2.5-1.41-2.5-3.14,0-1.85,.94-3.24,2.53-3.24,1.15,0,1.99,.8,2.22,1.76,.05,.21,.07,.45,.07,.66v1.47Zm10.01-.4c.03-.17,.05-.4,.05-.72,0-1.55-.72-3.98-3.48-3.98-2.46,0-3.98,2.01-3.98,4.55s1.57,4.25,4.16,4.25c1.34,0,2.29-.3,2.83-.54l-.28-1.1c-.56,.24-1.24,.44-2.34,.44-1.54,0-2.85-.85-2.88-2.91h5.92Zm-5.91-1.1c.12-1.06,.79-2.49,2.36-2.49,1.71,0,2.13,1.52,2.11,2.49h-4.47Zm21.82,5.04h1.5l-.73-11.75h-1.94l-2.1,5.68c-.52,1.48-.94,2.79-1.26,3.98-.35-1.22-.73-2.53-1.22-3.98l-2.01-5.68h-1.94l-.82,11.75h1.45l.31-5.04c.11-1.76,.19-3.73,.23-5.2,.37,1.4,.82,2.91,1.38,4.57l1.92,5.6h1.15l2.08-5.7c.59-1.6,1.06-3.1,1.49-4.46,.03,1.45,.14,3.45,.23,5.08l.28,5.16Zm9.4-5.18c0-1.69-.63-3.45-3.23-3.45-1.07,0-2.1,.3-2.79,.73l.35,1.03c.59-.4,1.41-.63,2.22-.63,1.73-.02,1.92,1.26,1.92,1.95-3.26,.16-5.08,1.27-5.08,3.31,0,1.22,.87,2.42,2.58,2.42,1.21,0,2.13-.59,2.59-1.26l.19,1.06h1.38c-.09-.57-.12-1.29-.12-2.02v-3.16Zm-1.5,2.34c0,.16-.02,.33-.07,.49-.24,.72-.96,1.41-2.08,1.41-.77,0-1.43-.45-1.43-1.47,0-1.64,1.9-1.93,3.58-1.9v1.47Zm3.62,2.84h1.54v-5.09c0-.24,.03-.52,.1-.72,.28-.85,1.07-1.57,2.06-1.57,1.45,0,1.96,1.15,1.96,2.51v4.86h1.54v-5.04c0-2.9-1.82-3.59-2.99-3.59-1.4,0-2.38,.78-2.8,1.57l-.12-1.38h-1.36c.05,.7,.07,1.4,.07,2.28v6.16Zm9.34,0h1.54v-4.52c0-.24,.02-.49,.05-.72,.21-1.13,.98-1.95,2.06-1.95,.21,0,.37,.02,.52,.03v-1.45c-.14-.02-.26-.03-.42-.03-1.03,0-1.97,.71-2.36,1.85l-.12-1.66h-1.34c.05,.78,.07,1.64,.07,2.63v5.81Zm12.16-3.94c.03-.17,.05-.4,.05-.72,0-1.55-.72-3.98-3.48-3.98-2.46,0-3.98,2.01-3.98,4.55s1.57,4.25,4.16,4.25c1.35,0,2.29-.3,2.83-.54l-.28-1.1c-.56,.24-1.24,.44-2.34,.44-1.54,0-2.85-.85-2.88-2.91h5.92Zm-5.9-1.1c.12-1.06,.79-2.49,2.36-2.49,1.71,0,2.13,1.52,2.11,2.49h-4.47Zm6.93,4.62c.59,.35,1.45,.59,2.38,.59,1.97,0,3.14-1.05,3.14-2.55,0-1.25-.77-1.99-2.22-2.53-1.1-.44-1.59-.75-1.59-1.45,0-.63,.49-1.15,1.4-1.15,.78,0,1.4,.3,1.73,.49l.37-1.1c-.46-.3-1.21-.52-2.06-.52-1.8,0-2.92,1.11-2.92,2.48,0,.99,.72,1.83,2.25,2.39,1.12,.42,1.56,.8,1.56,1.53s-.52,1.26-1.62,1.26c-.77,0-1.57-.31-2.04-.59l-.37,1.15Zm13.1-4.76c0-1.69-.63-3.45-3.23-3.45-1.06,0-2.1,.3-2.79,.73l.35,1.03c.59-.4,1.42-.63,2.22-.63,1.73-.02,1.92,1.26,1.92,1.95-3.27,.16-5.08,1.27-5.08,3.31,0,1.22,.87,2.42,2.59,2.42,1.2,0,2.13-.59,2.58-1.26l.19,1.06h1.38c-.09-.57-.12-1.29-.12-2.02v-3.16Zm-1.5,2.34c0,.16-.02,.33-.07,.49-.25,.72-.96,1.41-2.08,1.41-.77,0-1.43-.45-1.43-1.47,0-1.64,1.9-1.93,3.58-1.9v1.47Z"/>
  </g>
</svg>