<?xml version="1.0" encoding="UTF-8"?>
<svg id="Capa_2" data-name="Capa 2" xmlns="http://www.w3.org/2000/svg" viewBox="0 0 144.78 47.6">
  <defs>
    <style>
      .cls-1 {
        fill: #1d1d1b;
      }
    </style>
  </defs>
  <g id="Capa_1-2" data-name="Capa 1">
    <path class="cls-1" d="M138.51,34.09h-2.53c.14-2.42,2.26-3.15,4.33-3.15,1.85,0,4.05,.41,4.05,2.68v4.9c0,.85,.09,1.71,.32,2.1h-2.57c-.09-.3-.15-.6-.18-.92-.8,.86-1.97,1.17-3.1,1.17-1.75,0-3.14-.89-3.14-2.82,0-2.13,1.58-2.64,3.14-2.86,1.56-.24,3-.18,3-1.24,0-1.11-.75-1.28-1.64-1.28-.96,0-1.58,.4-1.68,1.42m3.32,2.88v-.97c-.43,.38-1.32,.4-2.1,.55-.79,.17-1.5,.44-1.5,1.38s.73,1.2,1.55,1.2c1.98,0,2.05-1.6,2.05-2.16m-16.68,3.64v-9.41h2.41v1.31c.7-1.06,1.81-1.56,2.88-1.56,2.7,0,3.37,1.54,3.37,3.87v5.79h-2.53v-5.32c0-1.55-.44-2.32-1.62-2.32-1.38,0-1.97,.79-1.97,2.7v4.93h-2.54Zm-9.19-4.7c0,1.49,.52,3,2.24,3s2.25-1.51,2.25-3-.52-3.03-2.25-3.03-2.24,1.51-2.24,3.03m-2.53,0c0-3.01,1.88-4.97,4.77-4.97s4.79,1.96,4.79,4.97-1.88,4.95-4.79,4.95-4.77-1.96-4.77-4.95m-4.5-8.3h2.53v13h-2.53v-13Zm-8.76,7.29h4.12c-.23-1.31-.78-2.01-2.01-2.01-1.61,0-2.07,1.28-2.11,2.01m6.66,1.64h-6.66c.07,1.64,.86,2.38,2.27,2.38,1.01,0,1.84-.64,2-1.22h2.23c-.72,2.23-2.23,3.17-4.32,3.17-2.91,0-4.71-2.04-4.71-4.95s1.92-4.97,4.71-4.97c3.14,0,4.67,2.69,4.48,5.59m-10.94-2.02h-2.48c-.16-1.05-.82-1.62-1.87-1.62-1.63,0-2.16,1.68-2.16,3.06s.52,2.97,2.11,2.97c1.18,0,1.85-.76,2.02-1.91h2.44c-.32,2.5-2.02,3.86-4.44,3.86-2.78,0-4.66-2-4.66-4.82s1.72-5.1,4.71-5.1c2.18,0,4.18,1.16,4.34,3.57m-16.03,6.1v-9.41h2.41v1.75c.5-1.18,1.75-2,2.97-2,.18,0,.39,.04,.55,.09v2.4c-.23-.05-.6-.09-.9-.09-1.86,0-2.5,1.36-2.5,3.02v4.24h-2.53Zm-8.35-6.52h-2.53c.14-2.42,2.27-3.15,4.33-3.15,1.85,0,4.06,.41,4.06,2.68v4.9c0,.85,.09,1.71,.32,2.1h-2.57c-.09-.3-.16-.6-.18-.92-.81,.86-1.99,1.17-3.11,1.17-1.75,0-3.14-.89-3.14-2.82,0-2.13,1.57-2.64,3.14-2.86,1.55-.24,3-.18,3-1.24,0-1.11-.75-1.28-1.64-1.28-.97,0-1.59,.4-1.68,1.42m3.32,2.88v-.97c-.43,.38-1.32,.4-2.1,.55-.79,.17-1.5,.44-1.5,1.38s.73,1.2,1.55,1.2c1.98,0,2.05-1.6,2.05-2.16m-15.78-7.14v3.04h2.83c.98,0,1.72-.46,1.72-1.54,0-1.24-.93-1.5-1.93-1.5h-2.62Zm-2.81,10.78v-13h6c2.43,0,4.07,.8,4.07,3.22,0,1.27-.62,2.17-1.73,2.71,1.55,.45,2.33,1.68,2.33,3.3,0,2.64-2.19,3.77-4.49,3.77h-6.18Zm2.81-5.79v3.57h3c1.11,0,2.07-.35,2.07-1.71s-.82-1.85-2.02-1.85h-3.05Zm78.71-18.34c0,1.49,.52,3,2.22,3s2.26-1.51,2.26-3-.52-3.02-2.26-3.02-2.22,1.51-2.22,3.02m-2.54,0c0-3,1.87-4.97,4.76-4.97s4.79,1.97,4.79,4.97-1.88,4.95-4.79,4.95-4.76-1.96-4.76-4.95m7.94-8.47l-2.75,2.59h-1.77l1.71-2.59h2.81Zm-10.69,2.3h-2.53v-2.13h2.53v2.13Zm-2.53,1.45h2.53v9.41h-2.53V11.76Zm-2.72,3.31h-2.48c-.16-1.05-.82-1.62-1.88-1.62-1.62,0-2.16,1.67-2.16,3.06s.52,2.96,2.1,2.96c1.18,0,1.87-.76,2.02-1.91h2.45c-.32,2.49-2.02,3.85-4.44,3.85-2.79,0-4.66-2-4.66-4.82s1.71-5.1,4.71-5.1c2.18,0,4.17,1.16,4.34,3.57m-17.58-.42h-2.53c.14-2.42,2.27-3.15,4.33-3.15,1.83,0,4.05,.42,4.05,2.68v4.9c0,.86,.09,1.71,.33,2.09h-2.57c-.1-.29-.16-.6-.18-.91-.81,.85-1.98,1.16-3.1,1.16-1.75,0-3.15-.89-3.15-2.82,0-2.12,1.57-2.63,3.15-2.85,1.54-.24,2.99-.19,2.99-1.24,0-1.11-.75-1.28-1.64-1.28-.96,0-1.58,.4-1.68,1.42m3.32,2.88v-.96c-.43,.38-1.32,.4-2.11,.54-.78,.16-1.5,.44-1.5,1.38s.73,1.2,1.55,1.2c1.99,0,2.05-1.6,2.05-2.17m-10.13-8.59v2.82h1.86v1.73h-1.86v4.66c0,.87,.21,1.09,1.07,1.09,.27,0,.52-.02,.78-.07v2.02c-.43,.07-.98,.09-1.47,.09-1.55,0-2.92-.37-2.92-2.24v-5.56h-1.54v-1.73h1.54v-2.82h2.53Zm-6.12,2.82v9.41h-2.41v-1.31c-.69,1.05-1.8,1.56-2.87,1.56-2.7,0-3.38-1.54-3.38-3.87v-5.79h2.54v5.32c0,1.54,.45,2.31,1.62,2.31,1.38,0,1.96-.79,1.96-2.7v-4.93h2.54Zm-16.08,7.72c1.67,0,2.2-1.45,2.2-2.99s-.58-3.04-2.21-3.04-2.2,1.51-2.2,3.04,.57,2.99,2.21,2.99m-4.66,5V11.76h2.42v1.2c.64-1,1.64-1.46,2.78-1.46,2.89,0,4.19,2.38,4.19,5.06,0,2.51-1.36,4.86-4.05,4.86-1.1,0-2.16-.49-2.77-1.41l-.03,4.48h-2.54Zm-3.12-14.18h-2.54v-2.13h2.54v2.13Zm-2.54,1.45h2.54v9.41h-2.54V11.76Zm-11.29-1.18v8.19h2.5c1.63,0,3.18-1.02,3.18-3.9,0-2.62-.89-4.29-3.68-4.29h-2Zm-2.8,10.59V8.17h5.49c3.31,0,5.78,2.11,5.78,6.42,0,3.78-1.9,6.58-5.78,6.58h-5.49Z"/>
    <path class="cls-1" d="M23.34,18.96l-1.52,1.56v5.91h-5.78l-1.52,1.55,1.52,1.55h5.78v5.91l1.52,1.56,1.52-1.56v-5.91h5.78l1.53-1.55-1.53-1.55h-5.78v-5.91l-1.52-1.56ZM23.34,0C10.45,0,0,10.66,0,23.8s10.45,23.8,23.34,23.8,23.34-10.65,23.34-23.8S36.22,0,23.34,0m8.52,9.07c.51,0,.91,.42,.91,.93s-.4,.93-.91,.93-.91-.41-.91-.93,.41-.93,.91-.93M14.52,14.02h17.59v.63H14.52v-.63Zm14.3,1.87v5.57l-2.74-2.79v-2.77h2.74Zm-8.22,0v2.78l-2.74,2.79v-5.57h2.74Zm-4.86,0v7.74l-2.74,2.79V15.88h2.74Zm-1.21-4.04h17.64v1.24H14.52v-1.24Zm16.43,4.04h2.74v10.53l-2.74-2.79v-7.74Zm-.61-5.88c0,.51-.41,.93-.91,.93s-.92-.41-.92-.93,.41-.93,.92-.93,.91,.42,.91,.93m-2.12-3.1c.51,0,.91,.42,.91,.93s-.41,.93-.91,.93-.91-.42-.91-.93,.41-.93,.91-.93m-1.21,2.17c.5,0,.91,.42,.91,.93s-.41,.93-.91,.93-.92-.41-.92-.93,.41-.93,.92-.93m-1.52,.93c0,.51-.42,.93-.92,.93s-.91-.41-.91-.93,.41-.93,.91-.93,.92,.42,.92,.93m-2.14-3.1c.51,0,.92,.42,.92,.93s-.41,.93-.92,.93-.91-.42-.91-.93,.41-.93,.91-.93m-1.22,2.17c.5,0,.91,.42,.91,.93s-.41,.93-.91,.93-.92-.41-.92-.93,.41-.93,.92-.93m-1.53,.93c0,.51-.41,.93-.91,.93s-.91-.41-.91-.93,.41-.93,.91-.93,.91,.42,.91,.93m-2.12-3.1c.51,0,.92,.42,.92,.93s-.41,.93-.92,.93-.91-.42-.91-.93,.41-.93,.91-.93m-1.21,2.17c.5,0,.91,.42,.91,.93s-.41,.93-.91,.93-.91-.41-.91-.93,.4-.93,.91-.93m-1.52,.93c0,.51-.41,.93-.91,.93s-.92-.41-.92-.93,.41-.93,.92-.93,.91,.42,.91,.93m-2.13-3.1c.5,0,.91,.42,.91,.93s-.41,.93-.91,.93-.92-.42-.92-.93,.41-.93,.92-.93m2.13,33.81h-2.74v-11.15l2.74,2.79v8.37Zm4.86,0h-2.74v-6.19l2.74,2.79v3.4Zm8.22,0h-2.74v-3.39l2.74-2.8v6.19Zm4.87,0h-2.74v-8.36l2.74-2.79v11.15Zm-10.35-1.98l-10.54-10.74,10.54-10.75,10.54,10.75-10.54,10.74Zm9.74-29.97c-.51,0-.92-.42-.92-.93s.41-.93,.92-.93,.91,.42,.91,.93-.42,.93-.91,.93"/>
  </g>
</svg>