<?xml version="1.0" encoding="UTF-8"?>
<svg id="Capa_2" data-name="Capa 2" xmlns="http://www.w3.org/2000/svg" viewBox="0 0 172.14 51.78">
  <defs>
    <style>
      .cls-1 {
        fill: #1d1d1b;
      }
    </style>
  </defs>
  <g id="Capa_1-2" data-name="Capa 1">
    <path class="cls-1" d="M172.14,46.23l-1.27-3.48h-.31l-1.28,3.48h.4l.28-.79h1.52l.28,.79h.39Zm-.78-1.11h-1.3l.65-1.84,.65,1.84Zm-32.88-13.95h31.17V0h-31.17V31.17Zm14.41-26.05c.31,.15,.71,.47,.71,1.16,0,.96-.66,1.49-1.58,1.49h-2.16V2.6h2.07c1.01,0,1.59,.57,1.59,1.45,0,.57-.38,.94-.64,1.07m-4.01,5.27h10.37v10.37h-10.37V10.39Zm-3.8-7.79h1.01v3.36c0,.59,.35,.95,.89,.95s.9-.36,.9-.95V2.6h1v3.39c0,1.09-.84,1.81-1.9,1.81s-1.9-.72-1.9-1.81V2.6Zm-4.13,0h3.4v.9h-2.39v1.27h2.04v.9h-2.04v2.1h-1.01V2.6Zm11.64,3.62c0-.35-.22-.63-.67-.63h-1.05v1.27h1.05c.46,0,.67-.29,.67-.64m-.07-2.13c0-.36-.24-.6-.67-.6h-.99v1.19h.99c.43,0,.67-.24,.67-.59m-11.94,33.13h-2.16v3.48h.37v-1.53h1.53v-.33h-1.53v-1.28h1.79v-.33Zm-1.84,5.52h-.37v2.33c0,.69,.51,1.18,1.21,1.18s1.22-.48,1.22-1.18v-2.33h-.37v2.3c0,.53-.34,.87-.85,.87s-.84-.35-.84-.87v-2.3Zm.87,5.52h-1.19v3.48h1.19c.36,0,.67-.11,.88-.32,.36-.36,.34-.97,.34-1.46s.02-1.02-.34-1.38c-.21-.21-.52-.32-.88-.32m-.06,.33c.27,0,.5,.07,.68,.25,.24,.25,.23,.69,.23,1.11s0,.94-.23,1.19c-.18,.19-.42,.25-.68,.25h-.76v-2.82h.76Zm2.03-11.38h-.37v2.33c0,.69,.51,1.18,1.21,1.18s1.22-.48,1.22-1.18v-2.33h-.37v2.3c0,.53-.34,.88-.85,.88s-.84-.35-.84-.88v-2.3Zm2.29,11.05h-2.16v3.48h2.16v-.33h-1.79v-1.26h1.53v-.33h-1.53v-1.23h1.79v-.33Zm-1.74-4.83l1.85,2.79h.35v-3.48h-.37v2.78l-1.85-2.78h-.35v3.48h.37v-2.79Zm2.81-6.21h-.35v3.48h.37v-2.79l1.85,2.79h.35v-3.48h-.37v2.78l-1.85-2.78Zm.39,9h.37v-3.48h-.37v3.48Zm-.32,2.04h-.37v3.48h2.15v-.33h-1.78v-3.15Zm1.24-5.52l1.14,3.48h.3l1.14-3.48h-.39l-.9,2.82-.9-2.82h-.39Zm3.72,5.52h-1.31v3.48h1.35c.62,0,1.04-.33,1.04-.96,0-.42-.23-.7-.57-.83,.29-.11,.51-.39,.51-.76,0-.58-.42-.93-1.03-.93m-.94,1.87h.95c.43,0,.7,.24,.7,.63s-.27,.64-.7,.64h-.95v-1.28Zm.91-1.54c.39,0,.68,.18,.68,.6s-.3,.61-.68,.61h-.91v-1.21h.91Zm2.82-.33l-1.28,3.48h.4l.28-.79h1.52l.28,.79h.39l-1.27-3.48h-.31Zm-.49,2.37l.66-1.84,.64,1.84h-1.3Zm2.79-2.04c-.33,.33-.33,.67-.33,1.41s0,1.08,.33,1.41c.23,.23,.55,.36,.89,.36s.68-.14,.93-.4c.21-.23,.3-.5,.3-.9v-.55h-1.23v.33h.85v.26c0,.27-.05,.46-.19,.63-.16,.19-.41,.3-.66,.3-.23,0-.45-.09-.6-.25-.22-.22-.24-.47-.24-1.19s.02-.96,.24-1.19c.15-.16,.37-.25,.6-.25,.43,0,.75,.27,.85,.71h.37c-.1-.61-.55-1.04-1.22-1.04-.35,0-.65,.13-.89,.36m-1.41-5.86h-1.33v3.48h.37v-1.55h.84l.79,1.55h.43l-.83-1.58c.45-.09,.76-.43,.76-.93,0-.6-.43-.97-1.03-.97m.66,.97c0,.43-.29,.64-.69,.64h-.93v-1.27h.93c.4,0,.69,.22,.69,.64m-2.06-6.5l-1.28,3.48h.4l.28-.79h1.52l.28,.79h.4l-1.28-3.48h-.31Zm-.49,2.37l.66-1.84,.64,1.84h-1.3Zm-.21,3.15h-2.16v3.48h2.16v-.33h-1.79v-1.26h1.52v-.33h-1.52v-1.23h1.79v-.33Zm-.96-3.82c0-.48,.02-1.02-.34-1.38-.21-.21-.52-.32-.88-.32h-1.19v3.48h1.19c.36,0,.67-.11,.88-.32,.36-.36,.34-.97,.34-1.46m-.37,0c0,.43,0,.94-.23,1.19-.18,.18-.42,.25-.68,.25h-.76v-2.81h.76c.27,0,.5,.07,.68,.25,.24,.25,.23,.69,.23,1.11m4.62,1.23c-.22-.22-.24-.46-.24-1.19s.02-.97,.24-1.19c.15-.16,.37-.24,.6-.24,.44,0,.73,.28,.83,.7h.38c-.12-.65-.58-1.04-1.21-1.04-.34,0-.65,.13-.89,.36-.33,.33-.33,.67-.33,1.41s0,1.08,.33,1.41c.24,.23,.55,.36,.89,.36,.62,0,1.1-.38,1.21-1.04h-.37c-.09,.43-.4,.7-.84,.7-.23,0-.45-.09-.6-.24m2.63,.55h.37v-3.48h-.37v3.48Zm-1.05,5.55c.72,0,1.2-.38,1.2-.99,0-.29-.1-.53-.29-.69-.15-.13-.31-.2-.64-.24l-.38-.06c-.18-.03-.36-.1-.47-.19-.11-.09-.16-.23-.16-.4,0-.39,.27-.65,.73-.65,.37,0,.6,.1,.81,.3l.24-.24c-.3-.27-.59-.38-1.04-.38-.69,0-1.11,.39-1.11,.98,0,.28,.09,.49,.26,.65,.15,.13,.37,.22,.64,.26l.41,.06c.25,.04,.34,.07,.45,.17,.11,.1,.17,.25,.17,.43,0,.41-.31,.64-.82,.64-.39,0-.66-.09-.95-.38l-.25,.25c.33,.33,.67,.46,1.19,.46m3.78,2.01h-2.16v3.48h2.16v-.33h-1.79v-1.26h1.53v-.33h-1.53v-1.23h1.79v-.33Zm-1.43-5.52h-.37v3.48h.37v-3.48Zm.92-5.86h.32l.53-.75h-.42l-.43,.75Zm1.13,.67c-.24-.24-.54-.36-.89-.36s-.65,.13-.89,.36c-.33,.33-.33,.67-.33,1.41s0,1.08,.33,1.41c.24,.23,.54,.36,.89,.36s.65-.13,.89-.36c.33-.33,.33-.67,.33-1.41s0-1.08-.33-1.41m-.04,1.41c0,.73-.03,.96-.25,1.19-.15,.16-.37,.25-.6,.25s-.45-.09-.6-.25c-.22-.22-.24-.46-.24-1.19s.03-.96,.24-1.19c.15-.16,.37-.25,.6-.25s.45,.09,.6,.25c.22,.23,.25,.46,.25,1.19m-1.35,4.12h1.01v3.15h.37v-3.15h1.01v-.33h-2.38v.33Zm1.51,7.99l-.25,.25c.33,.33,.67,.46,1.19,.46,.72,0,1.2-.38,1.2-.99,0-.29-.1-.53-.29-.69-.15-.13-.31-.19-.63-.24l-.38-.06c-.18-.03-.36-.1-.47-.19-.11-.09-.16-.23-.16-.4,0-.39,.27-.64,.73-.64,.37,0,.6,.1,.81,.3l.24-.24c-.3-.27-.59-.38-1.04-.38-.69,0-1.11,.39-1.11,.98,0,.28,.09,.49,.26,.65,.15,.13,.37,.22,.64,.26l.41,.06c.25,.04,.34,.07,.45,.17,.11,.1,.17,.25,.17,.44,0,.41-.31,.65-.82,.65-.39,0-.66-.09-.95-.38m2.12-8.66h.32l-.43-.75h-.42l.53,.75Zm-.66,3.03h1.52l.28,.79h.4l-1.27-3.48h-.31l-1.28,3.48h.4l.28-.79Zm.11-.32l.65-1.84,.65,1.84h-1.3Zm3.98-2.37h-1.33v3.48h.37v-1.55h.84l.79,1.55h.43l-.83-1.58c.45-.09,.76-.43,.76-.93,0-.6-.43-.97-1.03-.97m-.03,.33c.4,0,.69,.22,.69,.64s-.29,.64-.69,.64h-.93v-1.27h.93Zm2.28-.33h-.37v3.48h.37v-3.48Z"/>
    <rect class="cls-1" x="128.39" width=".5" height="51.78"/>
    <path class="cls-1" d="M15.44,7.61c0,5.13-3.05,7.84-7.65,7.84S.23,12.72,.23,7.72V.26H5.88V7.64c0,1.85,.78,2.41,1.95,2.41s1.96-.56,1.96-2.31V.26h5.65V7.61Z"/>
    <polygon class="cls-1" points="32.4 15.17 32.4 2.61 27.54 14.96 25.99 14.96 21.12 2.5 21.12 15.17 19.25 15.17 19.25 .27 22.08 .27 26.81 12.4 31.52 .27 34.28 .27 34.28 15.17 32.4 15.17"/>
    <path class="cls-1" d="M47.81,15.17l-1.28-3.53h-6.81l-1.26,3.53h-1.99L42,.27h2.3l5.55,14.9h-2.03Zm-4.71-13.03l-2.76,7.73h5.55l-2.79-7.73Z"/>
    <polygon class="cls-1" points="61.19 15.17 53.5 3.19 53.5 15.17 51.59 15.17 51.59 .27 53.81 .27 61.5 12.29 61.5 .27 63.4 .27 63.4 15.17 61.19 15.17"/>
    <path class="cls-1" d="M75.54,15.17l-2.96-6.2h-4.33v6.2h-1.97V.27h6.15c1.83,0,3.12,.48,3.98,1.32,.75,.76,1.24,1.72,1.24,3.03s-.44,2.19-1.19,2.94c-.47,.46-1.13,.82-1.88,1.05l3.14,6.56h-2.17Zm-3.12-13.17h-4.18V7.23h4.18c1.86,0,3.18-.71,3.18-2.6s-1.33-2.63-3.18-2.63"/>
    <polygon class="cls-1" points="80.27 15.17 80.27 .27 90.75 .27 90.75 2 82.24 2 82.24 6.54 89.71 6.54 89.71 8.3 82.24 8.3 82.24 13.45 90.75 13.45 90.75 15.17 80.27 15.17"/>
    <path class="cls-1" d="M103.16,13.95c-1.08,1.01-2.76,1.49-4.44,1.49-1.9,0-3.43-.5-4.49-1.43-1-.88-1.68-2.17-1.68-3.57h2.06c0,.88,.46,1.76,1.11,2.35,.71,.65,1.9,.92,3.01,.92,1.19,0,2.21-.23,2.92-.86,.49-.42,.8-.95,.8-1.74,0-1.16-.77-2.12-2.63-2.4-.86-.13-1.64-.23-2.48-.36-2.34-.34-4.18-1.58-4.18-3.95,0-1.11,.53-2.18,1.37-2.94C95.6,.51,96.99,0,98.63,0c1.53,0,3.03,.48,4.07,1.43,.95,.86,1.46,1.93,1.5,3.19h-2.06c-.04-.74-.33-1.39-.77-1.87-.6-.65-1.55-1.03-2.76-1.03-1.13,0-2.1,.29-2.79,1.03-.4,.44-.64,.95-.64,1.62,0,1.34,1.17,1.95,2.34,2.1,.89,.1,1.75,.25,2.61,.38,2.61,.36,4.36,1.87,4.36,4.22,0,1.24-.55,2.17-1.33,2.88"/>
    <path class="cls-1" d="M116.78,15.17l-1.28-3.53h-6.81l-1.26,3.53h-1.99L110.96,.27h2.3l5.55,14.9h-2.04Zm-4.71-13.03l-2.76,7.73h5.55l-2.79-7.73Z"/>
    <path class="cls-1" d="M6.15,47.61c0-1.15-.15-2.35-1.03-3.19-.57-.54-1.32-.81-2.1-.81H.23v8.02H3.02c.78,0,1.54-.26,2.1-.8,.87-.84,1.03-2.06,1.03-3.21m-1.02,0c0,.86-.06,1.89-.69,2.53-.37,.37-.9,.55-1.42,.55H1.23v-6.16h1.79c.52,0,1.05,.18,1.42,.55,.63,.66,.69,1.66,.69,2.52m8.11,4.01v-.93h-4.35v-2.77h3.82v-.95h-3.82v-2.44h4.35v-.93H7.88v8.02h5.36Zm9.89-2.56h-1.04c-.01,.44-.18,.86-.44,1.15-.32,.35-.85,.61-1.46,.61-.54,0-1.07-.22-1.46-.61-.66-.68-.68-1.76-.68-2.6s.02-1.92,.68-2.6c.38-.4,.92-.61,1.46-.61,.61,0,1.13,.24,1.45,.59,.26,.29,.43,.68,.44,1.12h1.04c-.03-.75-.33-1.36-.79-1.83-.49-.49-1.27-.83-2.14-.83-.8,0-1.59,.29-2.17,.86-.87,.85-1.01,2.02-1.01,3.3s.14,2.45,1.01,3.3c.58,.56,1.37,.86,2.17,.86,.87,0,1.66-.37,2.15-.86,.46-.48,.76-1.11,.79-1.86m7.21,2.56l-2.84-8.02h-1.18l-2.83,8.02h1.02l.64-1.9h3.48l.66,1.9h1.04Zm-2.02-2.85h-2.84l1.41-4.16,1.42,4.16Zm7.26-4.23v-.94h-5.79v.94h2.39v7.08h1.02v-7.08h2.39Zm6.28,7.08l-2.84-8.02h-1.18l-2.83,8.02h1.02l.65-1.9h3.48l.66,1.9h1.04Zm-2.02-2.85h-2.84l1.41-4.16,1.42,4.16Zm8.11,2.85v-.94h-3.86v-7.08h-1.01v8.02h4.86Zm6.58-2.94v-5.08h-1.01v5.1c0,1.28-.53,2.13-1.92,2.13s-1.92-.85-1.92-2.13v-5.1h-1.01v5.08c0,2,1.13,3.09,2.93,3.09s2.93-1.09,2.93-3.09m8.07,2.94v-8.02h-.97v6.47l-3.93-6.47h-1.13v8.02h.97v-6.44l3.93,6.44h1.13Zm7.53-8.02h-1.07l-2.09,3.81-2.1-3.81h-1.13l2.69,4.76v3.26h1.02v-3.26l2.69-4.76Zm6.31,8.02l-2.84-8.02h-1.18l-2.83,8.02h1.02l.64-1.9h3.48l.65,1.9h1.04Zm-2.02-2.85h-2.84l1.41-4.16,1.42,4.16Z"/>
    <path class="cls-1" d="M5.86,37.38v-5.08h-1.01v5.1c0,1.28-.53,2.13-1.92,2.13s-1.92-.85-1.92-2.13v-5.1H0v5.08c0,2,1.13,3.09,2.93,3.09s2.93-1.09,2.93-3.09m8.07,2.94v-8.02h-.97v6.47l-3.93-6.47h-1.13v8.02h.97v-6.44l3.93,6.44h1.13Zm3.29-8.02h-1.03v8.02h1.03v-8.02Zm7.63,0h-1.03l-2.17,6.77-2.22-6.77h-1.04l2.7,8.02h1.05l2.7-8.02Zm6.53,8.02v-.93h-4.35v-2.77h3.82v-.95h-3.82v-2.44h4.35v-.93h-5.36v8.02h5.36Zm7.55,0l-1.6-3.53c.38-.12,.72-.32,.96-.57,.38-.41,.61-.88,.61-1.58s-.25-1.22-.63-1.63c-.44-.45-1.1-.71-2.03-.71h-3.14v8.02h1.01v-3.34h2.21l1.51,3.34h1.11Zm-1.07-5.68c0,1.02-.68,1.4-1.63,1.4h-2.14v-2.82h2.14c.95,0,1.63,.4,1.63,1.41m8.2,3.47c0-1.27-.89-2.08-2.23-2.27-.44-.07-.88-.15-1.33-.2-.6-.08-1.2-.41-1.2-1.13,0-.36,.12-.63,.33-.87,.35-.39,.85-.55,1.42-.55,.62,0,1.11,.2,1.41,.55,.23,.26,.37,.61,.4,1.01h1.05c-.02-.68-.28-1.25-.77-1.72-.53-.51-1.3-.77-2.08-.77-.84,0-1.55,.27-2.1,.79-.43,.41-.7,.98-.7,1.58,0,1.28,.94,1.94,2.14,2.13,.43,.07,.83,.12,1.27,.19,.95,.15,1.35,.67,1.35,1.29,0,.43-.16,.71-.41,.94-.36,.34-.88,.46-1.49,.46-.57,0-1.18-.15-1.54-.5-.33-.32-.57-.79-.57-1.27h-1.05c0,.76,.35,1.45,.86,1.92,.54,.5,1.32,.77,2.3,.77,.86,0,1.72-.26,2.27-.8,.4-.39,.68-.88,.68-1.55m2.72-5.81h-1.03v8.02h1.03v-8.02Zm7.07,.94v-.94h-5.79v.94h2.39v7.08h1.02v-7.08h2.39Zm6.29,7.08l-2.84-8.02h-1.18l-2.83,8.02h1.02l.64-1.9h3.48l.65,1.9h1.04Zm-2.02-2.85h-2.84l1.41-4.16,1.43,4.16Zm7.26-4.23v-.94h-5.79v.94h2.39v7.08h1.02v-7.08h2.39Zm9.18,4.52h-1.04c-.01,.44-.18,.86-.44,1.15-.32,.35-.85,.61-1.46,.61-.54,0-1.07-.22-1.46-.61-.66-.68-.68-1.76-.68-2.6s.02-1.92,.68-2.6c.38-.39,.92-.61,1.46-.61,.61,0,1.13,.24,1.45,.59,.26,.29,.43,.68,.44,1.12h1.04c-.03-.75-.33-1.36-.79-1.83-.49-.49-1.27-.83-2.14-.83-.8,0-1.6,.29-2.17,.86-.87,.85-1.01,2.02-1.01,3.3s.14,2.45,1.01,3.3c.58,.57,1.37,.86,2.17,.86,.87,0,1.66-.37,2.15-.86,.46-.47,.76-1.11,.79-1.85m6.94,2.56v-.93h-4.35v-2.77h3.82v-.95h-3.82v-2.44h4.35v-.93h-5.36v8.02h5.36Zm7.75,0v-8.02h-.97v6.47l-3.94-6.47h-1.13v8.02h.97v-6.44l3.93,6.44h1.13Zm7.07-7.08v-.94h-5.79v.94h2.39v7.08h1.02v-7.08h2.39Zm7.12,7.08l-1.61-3.53c.39-.12,.72-.32,.96-.57,.38-.41,.61-.88,.61-1.58s-.25-1.22-.63-1.63c-.44-.45-1.1-.71-2.03-.71h-3.14v8.02h1.01v-3.34h2.22l1.52,3.34h1.11Zm-1.07-5.68c0,1.02-.68,1.4-1.63,1.4h-2.14v-2.82h2.14c.95,0,1.63,.4,1.63,1.41m8.51,5.68l-2.84-8.02h-1.18l-2.83,8.02h1.02l.64-1.9h3.48l.66,1.9h1.04Zm-2.03-2.85h-2.84l1.41-4.16,1.42,4.16Zm8.11,2.85v-.94h-3.86v-7.08h-1.01v8.02h4.86Z"/>
    <path class="cls-1" d="M5.86,26.07v-5.08h-1.01v5.1c0,1.28-.53,2.13-1.92,2.13s-1.92-.85-1.92-2.13v-5.1H0v5.08c0,2,1.13,3.09,2.93,3.09s2.93-1.08,2.93-3.09m8.07,2.94v-8.02h-.97v6.47l-3.93-6.47h-1.13v8.02h.97v-6.44l3.93,6.44h1.13Zm3.29-8.02h-1.03v8.02h1.03v-8.02Zm7.63,0h-1.03l-2.17,6.77-2.22-6.77h-1.04l2.7,8.02h1.05l2.7-8.02Zm6.54,8.02v-.93h-4.35v-2.77h3.82v-.95h-3.82v-2.44h4.35v-.93h-5.36v8.02h5.36Zm7.55,0l-1.61-3.53c.38-.12,.72-.32,.96-.57,.38-.41,.61-.88,.61-1.58s-.25-1.22-.63-1.63c-.44-.45-1.1-.71-2.04-.71h-3.14v8.02h1.01v-3.34h2.22l1.51,3.34h1.11Zm-1.07-5.68c0,1.02-.68,1.4-1.63,1.4h-2.14v-2.82h2.14c.95,0,1.63,.4,1.63,1.41m8.2,3.47c0-1.27-.89-2.08-2.23-2.27-.44-.07-.88-.15-1.33-.2-.6-.08-1.2-.41-1.2-1.13,0-.36,.12-.63,.33-.87,.35-.39,.85-.55,1.42-.55,.62,0,1.11,.2,1.41,.55,.23,.26,.37,.61,.4,1.01h1.05c-.02-.68-.28-1.25-.77-1.72-.53-.51-1.3-.77-2.08-.77-.84,0-1.55,.27-2.1,.79-.43,.41-.7,.98-.7,1.58,0,1.28,.94,1.94,2.14,2.12,.43,.07,.83,.12,1.27,.19,.95,.15,1.35,.67,1.35,1.29,0,.43-.16,.71-.41,.94-.36,.34-.88,.46-1.49,.46-.56,0-1.18-.15-1.54-.5-.33-.32-.56-.79-.56-1.27h-1.05c0,.76,.35,1.45,.86,1.92,.54,.5,1.32,.77,2.29,.77,.86,0,1.72-.26,2.27-.8,.4-.39,.68-.88,.68-1.55m2.73-5.81h-1.03v8.02h1.03v-8.02Zm7.07,.94v-.94h-5.79v.94h2.39v7.08h1.02v-7.08h2.39Zm6.29,7.08l-2.84-8.02h-1.18l-2.83,8.02h1.02l.65-1.9h3.48l.66,1.9h1.04Zm-2.02-2.85h-2.84l1.41-4.16,1.43,4.16Zm7.26-4.23v-.94h-5.79v.94h2.39v7.08h1.02v-7.08h2.39Zm9.52,3.06c0-1.15-.15-2.35-1.03-3.19-.57-.54-1.32-.81-2.1-.81h-2.79v8.02h2.79c.78,0,1.54-.26,2.1-.8,.87-.84,1.03-2.06,1.03-3.21m-1.02,0c0,.86-.06,1.89-.69,2.53-.37,.37-.91,.56-1.43,.56h-1.79v-6.16h1.79c.52,0,1.05,.18,1.43,.55,.63,.66,.69,1.66,.69,2.52m8.11,4.01v-.93h-4.35v-2.77h3.82v-.95h-3.82v-2.44h4.35v-.93h-5.36v8.02h5.36Zm9.51-8.02h-1.03l-2.17,6.77-2.22-6.77h-1.04l2.7,8.02h1.05l2.7-8.02Zm2.21,0h-1.03v8.02h1.03v-8.02Zm7.85,5.46h-1.04c-.01,.44-.18,.86-.44,1.15-.32,.35-.85,.61-1.46,.61-.54,0-1.07-.22-1.46-.61-.65-.68-.68-1.76-.68-2.6s.02-1.92,.68-2.6c.39-.39,.92-.61,1.46-.61,.61,0,1.13,.24,1.45,.59,.26,.29,.43,.68,.44,1.12h1.04c-.03-.75-.33-1.36-.79-1.83-.49-.49-1.27-.83-2.14-.83-.8,0-1.59,.29-2.17,.86-.87,.85-1.01,2.02-1.01,3.3s.14,2.45,1.01,3.3c.58,.57,1.37,.86,2.17,.86,.87,0,1.66-.37,2.15-.86,.46-.48,.76-1.11,.79-1.85"/>
  </g>
</svg>