<?xml version="1.0" encoding="UTF-8"?>
<svg id="Capa_2" data-name="Capa 2" xmlns="http://www.w3.org/2000/svg" viewBox="0 0 261.13 50.8">
  <defs>
    <style>
      .cls-1 {
        fill: #1d1d1b;
      }
    </style>
  </defs>
  <g id="Capa_1-2" data-name="Capa 1">
    <polygon class="cls-1" points="56.86 33.88 61.94 33.88 61.94 35.13 58.36 35.13 58.36 36.59 61.64 36.59 61.64 37.75 58.36 37.75 58.36 39.41 62.01 39.41 62.01 40.66 56.86 40.66 56.86 33.88"/>
    <path class="cls-1" d="M63.92,39.07c0,.59,.5,.83,1.04,.83,.39,0,.88-.15,.88-.63,0-.41-.56-.55-1.53-.76-.78-.17-1.56-.45-1.56-1.31,0-1.26,1.08-1.58,2.14-1.58s2.06,.36,2.17,1.57h-1.28c-.04-.52-.44-.67-.92-.67-.31,0-.75,.06-.75,.46,0,.49,.76,.55,1.53,.73,.79,.18,1.56,.47,1.56,1.38,0,1.29-1.12,1.71-2.24,1.71s-2.25-.43-2.31-1.73h1.28Z"/>
    <path class="cls-1" d="M71.33,37.48c-.08-.55-.44-.85-1-.85-.86,0-1.15,.87-1.15,1.6s.28,1.55,1.12,1.55c.63,0,.99-.4,1.07-1h1.3c-.17,1.3-1.07,2.01-2.37,2.01-1.48,0-2.48-1.04-2.48-2.52s.91-2.66,2.51-2.66c1.16,0,2.22,.61,2.31,1.86h-1.32Z"/>
    <path class="cls-1" d="M75.82,39.78c.92,0,1.2-.79,1.2-1.57s-.28-1.58-1.2-1.58-1.19,.79-1.19,1.58,.28,1.57,1.19,1.57m0-4.16c1.55,0,2.55,1.03,2.55,2.6s-1,2.58-2.55,2.58-2.54-1.03-2.54-2.58,1-2.6,2.54-2.6"/>
    <rect class="cls-1" x="79.28" y="33.88" width="1.35" height="6.79"/>
    <path class="cls-1" d="M84.76,38.26c-.23,.2-.7,.21-1.12,.29-.42,.09-.8,.23-.8,.72s.39,.63,.83,.63c1.06,0,1.09-.84,1.09-1.13v-.5Zm-3.12-1c.08-1.27,1.21-1.64,2.31-1.64,.98,0,2.16,.22,2.16,1.4v2.56c0,.45,.05,.89,.17,1.09h-1.37c-.05-.15-.08-.31-.09-.48-.43,.45-1.06,.61-1.65,.61-.93,0-1.67-.47-1.67-1.47,0-1.11,.84-1.38,1.67-1.49,.83-.12,1.6-.09,1.6-.65,0-.58-.4-.67-.88-.67-.51,0-.85,.21-.89,.74h-1.35Z"/>
    <path class="cls-1" d="M91.43,37.07h1.16c.69,0,1.31-.15,1.31-1.02s-.62-1.02-1.31-1.02h-1.16v2.03Zm-1.49-3.19h3.06c1.69,0,2.35,1.07,2.35,2.18s-.66,2.18-2.35,2.18h-1.57v2.43h-1.49v-6.79Z"/>
    <path class="cls-1" d="M98.52,39.78c.92,0,1.2-.79,1.2-1.57s-.28-1.58-1.2-1.58-1.19,.79-1.19,1.58,.28,1.57,1.19,1.57m0-4.16c1.55,0,2.55,1.03,2.55,2.6s-1,2.58-2.55,2.58-2.54-1.03-2.54-2.58,1-2.6,2.54-2.6"/>
    <rect class="cls-1" x="101.98" y="33.88" width="1.35" height="6.79"/>
    <path class="cls-1" d="M104.43,35.75h1.35v4.92h-1.35v-4.92Zm1.35-.76h-1.35v-1.11h1.35v1.11Z"/>
    <path class="cls-1" d="M108.56,35.75h.99v.9h-.99v2.43c0,.46,.11,.57,.57,.57,.14,0,.28-.01,.42-.04v1.06c-.23,.04-.52,.05-.79,.05-.83,0-1.55-.19-1.55-1.17v-2.9h-.82v-.9h.82v-1.47h1.35v1.47Z"/>
    <path class="cls-1" d="M113.5,37.68c-.12-.68-.42-1.05-1.07-1.05-.86,0-1.1,.67-1.12,1.05h2.2Zm-2.78-3.89h1.49l.91,1.35h-.94l-1.46-1.35Zm.58,4.74c.04,.86,.46,1.24,1.21,1.24,.54,0,.98-.33,1.06-.64h1.19c-.38,1.16-1.19,1.65-2.3,1.65-1.55,0-2.51-1.07-2.51-2.58s1.02-2.6,2.51-2.6c1.67,0,2.48,1.41,2.39,2.92h-3.55Z"/>
    <path class="cls-1" d="M118.99,37.48c-.08-.55-.44-.85-1-.85-.86,0-1.15,.87-1.15,1.6s.28,1.55,1.12,1.55c.63,0,.99-.4,1.07-1h1.3c-.17,1.3-1.07,2.01-2.37,2.01-1.48,0-2.48-1.04-2.48-2.52s.91-2.66,2.51-2.66c1.16,0,2.22,.61,2.31,1.86h-1.32Z"/>
    <path class="cls-1" d="M121.1,35.75h1.28v.68h.03c.34-.55,.93-.82,1.5-.82,1.44,0,1.8,.81,1.8,2.02v3.02h-1.35v-2.77c0-.81-.24-1.21-.87-1.21-.73,0-1.05,.41-1.05,1.41v2.58h-1.35v-4.92Z"/>
    <path class="cls-1" d="M126.78,35.75h1.35v4.92h-1.35v-4.92Zm1.35-.76h-1.35v-1.11h1.35v1.11Z"/>
    <path class="cls-1" d="M132.54,37.48c-.09-.55-.44-.85-1-.85-.87,0-1.15,.87-1.15,1.6s.27,1.55,1.12,1.55c.63,0,.99-.4,1.07-1h1.3c-.17,1.3-1.08,2.01-2.37,2.01-1.48,0-2.48-1.04-2.48-2.52s.91-2.66,2.51-2.66c1.16,0,2.22,.61,2.31,1.86h-1.32Z"/>
    <path class="cls-1" d="M137.71,38.26c-.23,.2-.7,.21-1.12,.29-.42,.09-.8,.23-.8,.72s.39,.63,.83,.63c1.06,0,1.09-.84,1.09-1.13v-.5Zm-3.12-1c.08-1.27,1.21-1.64,2.31-1.64,.98,0,2.16,.22,2.16,1.4v2.56c0,.45,.05,.89,.17,1.09h-1.37c-.05-.15-.09-.31-.1-.48-.43,.45-1.06,.61-1.65,.61-.93,0-1.67-.47-1.67-1.47,0-1.11,.84-1.38,1.67-1.49,.83-.12,1.6-.09,1.6-.65,0-.58-.4-.67-.87-.67-.51,0-.85,.21-.89,.74h-1.35Z"/>
    <path class="cls-1" d="M143.9,38.41c0,.9,.7,1.26,1.5,1.26,.52,0,1.32-.15,1.32-.85,0-.73-1.02-.86-2.01-1.12-1.01-.27-2.03-.66-2.03-1.93,0-1.39,1.31-2.05,2.54-2.05,1.42,0,2.72,.62,2.72,2.19h-1.44c-.05-.82-.63-1.03-1.34-1.03-.48,0-1.03,.2-1.03,.77,0,.52,.32,.59,2.02,1.03,.49,.12,2.02,.44,2.02,1.98,0,1.25-.98,2.18-2.82,2.18-1.5,0-2.91-.74-2.89-2.41h1.44Z"/>
    <path class="cls-1" d="M153.52,40.66h-1.28v-.68h-.03c-.34,.55-.93,.82-1.5,.82-1.43,0-1.8-.81-1.8-2.02v-3.02h1.35v2.78c0,.81,.24,1.21,.87,1.21,.73,0,1.05-.41,1.05-1.41v-2.58h1.35v4.92Z"/>
    <path class="cls-1" d="M158.2,38.22c0-.78-.31-1.59-1.18-1.59s-1.17,.79-1.17,1.59,.3,1.56,1.18,1.56,1.17-.76,1.17-1.56m-3.65-2.47h1.28v.63h.02c.32-.52,.85-.76,1.46-.76,1.54,0,2.23,1.24,2.23,2.64,0,1.31-.72,2.54-2.16,2.54-.59,0-1.15-.26-1.47-.74h-.02v2.34h-1.35v-6.65Z"/>
    <path class="cls-1" d="M163.66,37.68c-.12-.68-.42-1.05-1.07-1.05-.85,0-1.1,.67-1.12,1.05h2.2Zm-2.2,.86c.04,.86,.46,1.24,1.21,1.24,.54,0,.98-.33,1.06-.64h1.19c-.38,1.16-1.19,1.65-2.3,1.65-1.55,0-2.51-1.07-2.51-2.58s1.02-2.6,2.51-2.6c1.67,0,2.48,1.41,2.39,2.92h-3.54Z"/>
    <path class="cls-1" d="M165.81,35.75h1.28v.91h.02c.25-.62,.91-1.05,1.57-1.05,.1,0,.21,.02,.29,.05v1.26c-.12-.03-.32-.05-.48-.05-.99,0-1.33,.71-1.33,1.58v2.21h-1.35v-4.92Z"/>
    <path class="cls-1" d="M169.54,35.75h1.35v4.92h-1.35v-4.92Zm1.35-.76h-1.35v-1.11h1.35v1.11Z"/>
    <path class="cls-1" d="M174.34,39.78c.92,0,1.2-.79,1.2-1.57s-.28-1.58-1.2-1.58-1.19,.79-1.19,1.58,.28,1.57,1.19,1.57m0-4.16c1.55,0,2.55,1.03,2.55,2.6s-1,2.58-2.55,2.58-2.54-1.03-2.54-2.58,1-2.6,2.54-2.6"/>
    <path class="cls-1" d="M177.77,35.75h1.28v.91h.02c.25-.62,.91-1.05,1.57-1.05,.1,0,.21,.02,.29,.05v1.26c-.12-.03-.32-.05-.48-.05-.99,0-1.33,.71-1.33,1.58v2.21h-1.35v-4.92Z"/>
    <path class="cls-1" d="M186.43,36.63c-.88,0-1.19,.76-1.19,1.57s.35,1.58,1.19,1.58c.89,0,1.16-.78,1.16-1.59s-.28-1.56-1.16-1.56m1.18,3.4h-.02c-.31,.53-.86,.76-1.49,.76-1.48,0-2.21-1.27-2.21-2.63s.73-2.55,2.18-2.55c.58,0,1.15,.25,1.45,.73h.02v-2.47h1.35v6.79h-1.28v-.63Z"/>
    <path class="cls-1" d="M190.05,33.88h1.35v1.45c.03,.85-.56,1.49-1.35,1.6v-.63c.48-.16,.63-.49,.63-.96h-.63v-1.46Z"/>
    <polygon class="cls-1" points="192.7 33.88 197.77 33.88 197.77 35.13 194.19 35.13 194.19 36.59 197.48 36.59 197.48 37.75 194.19 37.75 194.19 39.41 197.85 39.41 197.85 40.66 192.7 40.66 192.7 33.88"/>
    <path class="cls-1" d="M198.71,35.75h1.28v.68h.03c.34-.55,.93-.82,1.5-.82,1.44,0,1.8,.81,1.8,2.02v3.02h-1.35v-2.77c0-.81-.24-1.21-.87-1.21-.73,0-1.05,.41-1.05,1.41v2.58h-1.35v-4.92Z"/>
    <path class="cls-1" d="M207.79,38.14c0-.8-.28-1.51-1.15-1.51-.76,0-1.09,.67-1.09,1.4s.27,1.47,1.09,1.47c.77,0,1.15-.66,1.15-1.36m1.28,2.21c0,.81-.29,2.18-2.55,2.18-.97,0-2.1-.46-2.17-1.58h1.34c.12,.5,.53,.67,1.01,.67,.75,0,1.09-.51,1.08-1.22v-.65h-.02c-.3,.51-.88,.76-1.47,.76-1.47,0-2.1-1.12-2.1-2.47,0-1.27,.73-2.43,2.11-2.43,.65,0,1.14,.22,1.46,.79h.02v-.66h1.28v4.6Z"/>
    <path class="cls-1" d="M210.2,35.75h1.35v4.92h-1.35v-4.92Zm1.35-.76h-1.35v-1.11h1.35v1.11Z"/>
    <path class="cls-1" d="M212.61,35.75h1.28v.68h.03c.34-.55,.93-.82,1.5-.82,1.44,0,1.8,.81,1.8,2.02v3.02h-1.35v-2.77c0-.81-.24-1.21-.87-1.21-.73,0-1.05,.41-1.05,1.41v2.58h-1.35v-4.92Z"/>
    <path class="cls-1" d="M220.67,41.28c-.29,.79-.76,1.11-1.69,1.11-.28,0-.55-.02-.83-.05v-1.11c.26,.02,.52,.06,.79,.05,.46-.05,.62-.53,.46-.92l-1.73-4.61h1.44l1.11,3.36h.02l1.07-3.36h1.4l-2.05,5.53Z"/>
    <path class="cls-1" d="M226.49,37.68c-.12-.68-.42-1.05-1.07-1.05-.85,0-1.1,.67-1.12,1.05h2.2Zm-2.2,.86c.04,.86,.46,1.24,1.21,1.24,.54,0,.98-.33,1.06-.64h1.19c-.38,1.16-1.19,1.65-2.3,1.65-1.55,0-2.51-1.07-2.51-2.58s1.02-2.6,2.51-2.6c1.67,0,2.48,1.41,2.39,2.92h-3.55Z"/>
    <path class="cls-1" d="M228.63,35.75h1.28v.91h.02c.25-.62,.91-1.05,1.57-1.05,.1,0,.21,.02,.29,.05v1.26c-.12-.03-.32-.05-.48-.05-.99,0-1.33,.71-1.33,1.58v2.21h-1.35v-4.92Z"/>
    <path class="cls-1" d="M232.37,35.75h1.35v4.92h-1.35v-4.92Zm1.35-.76h-1.35v-1.11h1.35v1.11Z"/>
    <path class="cls-1" d="M237.84,38.26c-.23,.2-.7,.21-1.12,.29-.42,.09-.8,.23-.8,.72s.39,.63,.83,.63c1.06,0,1.09-.84,1.09-1.13v-.5Zm-3.12-1c.08-1.27,1.21-1.64,2.31-1.64,.98,0,2.16,.22,2.16,1.4v2.56c0,.45,.05,.89,.17,1.09h-1.37c-.05-.15-.09-.31-.1-.48-.43,.45-1.06,.61-1.65,.61-.93,0-1.67-.47-1.67-1.47,0-1.11,.84-1.38,1.67-1.49,.83-.12,1.6-.09,1.6-.65,0-.58-.4-.67-.87-.67-.51,0-.85,.21-.89,.74h-1.35Z"/>
    <path class="cls-1" d="M59.05,46.63c-.88,0-1.19,.76-1.19,1.57s.35,1.58,1.19,1.58c.89,0,1.16-.78,1.16-1.59s-.28-1.56-1.16-1.56m1.18,3.4h-.02c-.31,.53-.86,.76-1.49,.76-1.48,0-2.21-1.27-2.21-2.63s.73-2.55,2.18-2.55c.58,0,1.15,.25,1.46,.73h.02v-2.47h1.35v6.79h-1.28v-.63Z"/>
    <path class="cls-1" d="M65.84,47.68c-.12-.68-.42-1.04-1.07-1.04-.86,0-1.1,.67-1.12,1.04h2.2Zm-2.2,.86c.04,.86,.46,1.25,1.21,1.25,.54,0,.98-.33,1.06-.64h1.19c-.38,1.16-1.19,1.65-2.3,1.65-1.55,0-2.51-1.07-2.51-2.58s1.02-2.6,2.51-2.6c1.67,0,2.48,1.41,2.39,2.92h-3.55Z"/>
    <polygon class="cls-1" points="70.77 43.88 72.87 43.88 74.46 48.54 74.48 48.54 75.98 43.88 78.08 43.88 78.08 50.66 76.68 50.66 76.68 45.85 76.66 45.85 75 50.66 73.85 50.66 72.18 45.9 72.16 45.9 72.16 50.66 70.77 50.66 70.77 43.88"/>
    <path class="cls-1" d="M82.31,48.26c-.23,.2-.7,.21-1.12,.29-.42,.09-.8,.23-.8,.72s.39,.63,.83,.63c1.06,0,1.09-.84,1.09-1.13v-.5Zm-3.12-1c.08-1.27,1.21-1.64,2.31-1.64,.98,0,2.16,.22,2.16,1.4v2.56c0,.45,.05,.89,.17,1.09h-1.37c-.05-.15-.09-.31-.1-.48-.43,.45-1.06,.61-1.65,.61-.93,0-1.67-.47-1.67-1.47,0-1.11,.84-1.38,1.67-1.49,.83-.12,1.6-.09,1.6-.65,0-.58-.4-.67-.87-.67-.51,0-.85,.21-.89,.74h-1.35Z"/>
    <path class="cls-1" d="M84.7,45.75h1.28v.68h.03c.34-.55,.93-.82,1.5-.82,1.44,0,1.8,.81,1.8,2.02v3.02h-1.35v-2.77c0-.81-.24-1.21-.86-1.21-.73,0-1.05,.41-1.05,1.41v2.58h-1.35v-4.92Z"/>
    <path class="cls-1" d="M90.34,45.75h1.28v.91h.02c.25-.62,.91-1.05,1.57-1.05,.1,0,.21,.02,.29,.05v1.26c-.12-.03-.32-.05-.49-.05-.99,0-1.33,.71-1.33,1.58v2.21h-1.35v-4.92Z"/>
    <path class="cls-1" d="M97.34,47.68c-.12-.68-.42-1.04-1.07-1.04-.86,0-1.1,.67-1.12,1.04h2.2Zm-2.2,.86c.04,.86,.46,1.25,1.21,1.25,.54,0,.98-.33,1.07-.64h1.19c-.38,1.16-1.19,1.65-2.3,1.65-1.55,0-2.51-1.07-2.51-2.58s1.02-2.6,2.51-2.6c1.67,0,2.48,1.41,2.39,2.92h-3.55Z"/>
    <path class="cls-1" d="M100.54,49.07c0,.59,.5,.83,1.04,.83,.39,0,.88-.15,.88-.63,0-.41-.56-.55-1.53-.76-.78-.17-1.56-.45-1.56-1.31,0-1.26,1.08-1.58,2.14-1.58s2.06,.36,2.17,1.57h-1.28c-.04-.52-.44-.67-.92-.67-.31,0-.75,.06-.75,.46,0,.49,.76,.55,1.53,.73,.79,.18,1.56,.46,1.56,1.38,0,1.29-1.12,1.71-2.24,1.71s-2.25-.43-2.31-1.73h1.28Z"/>
    <path class="cls-1" d="M107.65,48.26c-.23,.2-.7,.21-1.12,.29-.42,.09-.8,.23-.8,.72s.39,.63,.83,.63c1.06,0,1.09-.84,1.09-1.13v-.5Zm-3.12-1c.08-1.27,1.21-1.64,2.31-1.64,.98,0,2.16,.22,2.16,1.4v2.56c0,.45,.05,.89,.17,1.09h-1.37c-.05-.15-.09-.31-.1-.48-.43,.45-1.06,.61-1.65,.61-.93,0-1.67-.47-1.67-1.47,0-1.11,.84-1.38,1.67-1.49,.83-.12,1.6-.09,1.6-.65,0-.58-.4-.67-.87-.67-.51,0-.85,.21-.89,.74h-1.35Z"/>
    <path class="cls-1" d="M24.42,34.51h-.89v1.85h.91c.59,0,.83-.46,.82-.95-.01-.48-.2-.89-.84-.89m7.62-20.96c-1.89,0-3.41-1.53-3.41-3.4s1.52-3.41,3.41-3.41,3.4,1.53,3.4,3.41-1.53,3.4-3.4,3.4m0,8.07c-1.89,0-3.41-1.53-3.41-3.4s1.52-3.4,3.41-3.4,3.4,1.52,3.4,3.4-1.53,3.4-3.4,3.4m0,8.28c-1.89,0-3.41-1.52-3.41-3.4s1.52-3.41,3.41-3.41,3.4,1.52,3.4,3.41-1.53,3.4-3.4,3.4m2.57,5.27c-.78-.65-1.09-.61-1.7-.61-1.19,0-2.02,.91-2.02,2.2s.84,2.2,2.04,2.2c.65,0,.97-.09,1.69-.62v2.04c-.75,.37-1.18,.47-1.9,.47-2.38,0-4.06-1.69-4.06-4.09s1.71-4.14,4.03-4.14c.71,0,1.17,.12,1.93,.48v2.06Zm-8.23,2.5c-.44,.31-.94,.43-2.21,.43l-.67-.02v2.58h-2v-7.88h3.3c1.61,0,2.6,.97,2.6,2.71,0,.93-.36,1.71-1.03,2.17m-2.43-14.58c1.88,0,3.41,1.52,3.41,3.41s-1.52,3.4-3.41,3.4-3.4-1.52-3.4-3.4,1.52-3.41,3.4-3.41m-4.26,14.49c0,.84-.03,1.87-1.12,2.64-.72,.51-1.57,.61-2.34,.61s-1.61-.11-2.33-.61c-1.1-.77-1.13-1.81-1.13-2.64v-4.79h2.3v4.78c0,.45,.05,.81,.4,1.1,.24,.2,.45,.27,.77,.27,.32,0,.52-.07,.76-.27,.35-.29,.39-.65,.41-1.1v-4.78h2.29v4.79Zm-4.01-14.49c1.88,0,3.41,1.52,3.41,3.41s-1.53,3.4-3.41,3.4-3.41-1.52-3.41-3.4,1.52-3.41,3.41-3.41m0-8.28c1.88,0,3.41,1.52,3.41,3.4s-1.53,3.4-3.41,3.4-3.41-1.53-3.41-3.4,1.52-3.4,3.41-3.4m0-8.07c1.88,0,3.41,1.53,3.41,3.41s-1.53,3.4-3.41,3.4-3.41-1.53-3.41-3.4,1.52-3.41,3.41-3.41m8.28,8.07c1.88,0,3.41,1.52,3.41,3.4s-1.52,3.4-3.41,3.4-3.4-1.53-3.4-3.4,1.52-3.4,3.4-3.4m0-8.07c1.88,0,3.41,1.53,3.41,3.41s-1.52,3.4-3.41,3.4-3.4-1.53-3.4-3.4,1.52-3.41,3.4-3.41m-.1-6.74C10.68,0,0,10.68,0,23.86s10.68,23.86,23.86,23.86,23.86-10.68,23.86-23.86S37.04,0,23.86,0"/>
    <path class="cls-1" d="M60.67,10.92c0,.95-.35,1.32-1.25,1.32-1.1,0-1.25-.67-1.25-1.32v-3.86h-1.4v3.86c0,1.64,.92,2.5,2.65,2.5s2.66-.89,2.66-2.5v-3.86h-1.41v3.86Z"/>
    <polygon class="cls-1" points="67.72 11.16 65.17 7.07 65.16 7.06 63.78 7.06 63.78 13.27 65.1 13.27 65.1 9.18 67.63 13.26 67.64 13.27 69.04 13.27 69.04 7.06 67.72 7.06 67.72 11.16"/>
    <rect class="cls-1" x="71.2" y="7.06" width="1.4" height="6.21"/>
    <polygon class="cls-1" points="76.12 13.27 77.68 13.27 79.73 7.09 79.74 7.06 78.29 7.06 76.91 11.36 75.55 7.06 74.1 7.06 76.11 13.26 76.12 13.27"/>
    <polygon class="cls-1" points="85.89 12.08 82.56 12.08 82.56 10.62 85.55 10.62 85.55 9.52 82.56 9.52 82.56 8.25 85.82 8.25 85.82 7.06 81.16 7.06 81.16 13.27 85.89 13.27 85.89 12.08"/>
    <path class="cls-1" d="M88.97,8.16h1.46c.61,0,.91,.27,.91,.83s-.29,.86-.91,.86h-1.46v-1.69Zm3.71,3.84c0-.08,0-.15-.01-.21-.06-.82-.34-1.29-.87-1.45,.63-.27,.95-.79,.95-1.55,0-1-.77-1.72-1.83-1.72h-3.35v6.21h1.4v-2.41h1.33c.64,0,.9,.24,1,.91,.02,.16,.04,.33,.05,.5,.03,.35,.06,.72,.17,.98h0s1.42,.01,1.42,.01l-.03-.04c-.2-.29-.22-.83-.24-1.24"/>
    <path class="cls-1" d="M97.48,9.61l-.19-.05c-1.43-.37-1.69-.43-1.69-.87,0-.5,.49-.68,.91-.68,.78,0,1.16,.29,1.19,.91v.02h1.36v-.02c0-1.26-.93-2.01-2.49-2.01-1.16,0-2.33,.65-2.33,1.89s.96,1.54,1.86,1.78c.13,.03,.27,.07,.4,.1,.76,.18,1.42,.35,1.42,.9,0,.69-.9,.74-1.18,.74-.84,0-1.34-.42-1.34-1.11v-.02h-1.36v.02c0,.6,.18,1.09,.56,1.48,.47,.48,1.22,.74,2.09,.74,1.6,0,2.59-.77,2.59-2,0-1.36-1.3-1.68-1.79-1.81"/>
    <rect class="cls-1" x="100.97" y="7.06" width="1.4" height="6.21"/>
    <polygon class="cls-1" points="105.49 13.27 106.89 13.27 106.89 8.25 108.74 8.25 108.74 7.06 103.64 7.06 103.64 8.25 105.49 8.25 105.49 13.27"/>
    <path class="cls-1" d="M112.5,10.84h-1.53l.78-2.19,.75,2.19Zm2.3,2.43l-2.32-6.2v-.02h-1.43l-2.35,6.18v.03s1.41,0,1.41,0l.48-1.37h2.27l.47,1.37h1.46Z"/>
    <polygon class="cls-1" points="119.92 7.06 114.82 7.06 114.82 8.25 116.67 8.25 116.67 13.27 118.07 13.27 118.07 8.25 119.92 8.25 119.92 7.06"/>
    <path class="cls-1" d="M125.74,8.16h1.03c.58,0,1.17,.11,1.17,.9s-.59,.9-1.17,.9h-1.03v-1.8Zm0,2.9h1.4c1.59,0,2.16-1.03,2.16-2s-.57-2-2.16-2h-2.81v6.21h1.4v-2.21Z"/>
    <path class="cls-1" d="M133.05,12.23c-1.22,0-1.65-1.05-1.65-2.04,0-.49,.12-2.09,1.65-2.09s1.65,1.6,1.65,2.09c0,.99-.43,2.04-1.65,2.04m3.06-2.04c0-1.96-1.23-3.28-3.06-3.28s-3.05,1.32-3.05,3.28,1.26,3.23,3.05,3.23,3.06-1.33,3.06-3.23"/>
    <polygon class="cls-1" points="138.74 7.06 137.33 7.06 137.33 13.27 141.74 13.27 141.74 12.08 138.74 12.08 138.74 7.06"/>
    <rect class="cls-1" x="142.96" y="7.06" width="1.41" height="6.21"/>
    <polygon class="cls-1" points="145.71 8.25 147.56 8.25 147.56 13.27 148.96 13.27 148.96 8.25 150.81 8.25 150.81 7.06 145.71 7.06 145.71 8.25"/>
    <polygon class="cls-1" points="153.46 10.62 156.45 10.62 156.45 9.52 153.46 9.52 153.46 8.25 156.72 8.25 156.72 7.06 152.06 7.06 152.06 13.27 156.79 13.27 156.79 12.08 153.46 12.08 153.46 10.62"/>
    <polygon class="cls-1" points="154.99 6.55 154.13 5.28 152.69 5.28 154.07 6.55 154.99 6.55"/>
    <path class="cls-1" d="M162.24,10.87c-.11,.86-.61,1.36-1.38,1.36-1.22,0-1.65-1.05-1.65-2.04,0-.49,.12-2.09,1.65-2.09,.67,0,1.24,.45,1.32,1.06v.02h1.36v-.03c-.16-1.36-1.21-2.24-2.69-2.24-1.83,0-3.05,1.32-3.05,3.28s1.26,3.23,3.05,3.23c1.53,0,2.6-1,2.74-2.54v-.03s-1.36,0-1.36,0v.02Z"/>
    <polygon class="cls-1" points="168.75 11.16 166.21 7.07 166.2 7.06 164.81 7.06 164.81 13.27 166.13 13.27 166.13 9.18 168.67 13.26 168.68 13.27 170.07 13.27 170.07 7.06 168.75 7.06 168.75 11.16"/>
    <rect class="cls-1" x="172.06" y="7.06" width="1.41" height="6.21"/>
    <path class="cls-1" d="M179.36,10.87c-.11,.86-.61,1.36-1.38,1.36-1.21,0-1.65-1.05-1.65-2.04,0-.49,.12-2.09,1.65-2.09,.67,0,1.24,.45,1.33,1.06v.02h1.36v-.03c-.16-1.36-1.21-2.24-2.69-2.24-1.83,0-3.05,1.32-3.05,3.28s1.26,3.23,3.05,3.23c1.53,0,2.6-1,2.74-2.54v-.03h-1.36v.02Z"/>
    <path class="cls-1" d="M185.01,10.84h-1.53l.78-2.19,.75,2.19Zm-.02-3.78h-1.42l-2.35,6.18v.03s1.41,0,1.41,0l.48-1.37h2.27l.47,1.37h1.46l-2.32-6.2v-.02Z"/>
    <path class="cls-1" d="M192.46,8.25h.94c1.21,0,1.75,.62,1.75,2.01,0,1.64-1.06,1.82-1.51,1.82h-1.19v-3.83Zm1.28-1.19h-2.68v6.21h2.68c1.77,0,2.82-1.18,2.82-3.14s-1.05-3.07-2.82-3.07"/>
    <polygon class="cls-1" points="199.2 10.62 202.19 10.62 202.19 9.52 199.2 9.52 199.2 8.25 202.46 8.25 202.46 7.06 197.8 7.06 197.8 13.27 202.53 13.27 202.53 12.08 199.2 12.08 199.2 10.62"/>
    <path class="cls-1" d="M210.62,10.87c-.11,.86-.61,1.36-1.38,1.36-1.22,0-1.65-1.05-1.65-2.04,0-.49,.12-2.09,1.65-2.09,.67,0,1.24,.45,1.32,1.06v.02h1.36v-.03c-.16-1.36-1.21-2.24-2.69-2.24-1.83,0-3.05,1.32-3.05,3.28s1.26,3.23,3.05,3.23c1.52,0,2.6-1,2.74-2.54v-.03s-1.36,0-1.36,0v.02Z"/>
    <path class="cls-1" d="M216.18,10.84h-1.53l.78-2.19,.75,2.19Zm-.03-3.78h-1.42l-2.35,6.18v.03s1.41,0,1.41,0l.48-1.37h2.27l.47,1.37h1.46l-2.32-6.2v-.02Z"/>
    <polygon class="cls-1" points="223.6 7.06 218.5 7.06 218.5 8.25 220.35 8.25 220.35 13.27 221.75 13.27 221.75 8.25 223.6 8.25 223.6 7.06"/>
    <path class="cls-1" d="M227.3,10.84h-1.53l.78-2.19,.75,2.19Zm-.02-3.78h-1.42l-2.35,6.18v.03s1.41,0,1.41,0l.48-1.37h2.27l.47,1.37h1.46l-2.32-6.2v-.02Z"/>
    <polygon class="cls-1" points="231.97 7.06 230.56 7.06 230.56 13.27 234.98 13.27 234.98 12.08 231.97 12.08 231.97 7.06"/>
    <path class="cls-1" d="M239.49,10.92c0,.95-.35,1.32-1.25,1.32-1.1,0-1.25-.67-1.25-1.32v-3.86h-1.4v3.86c0,1.64,.92,2.5,2.65,2.5s2.66-.89,2.66-2.5v-3.86h-1.41v3.86Z"/>
    <polygon class="cls-1" points="246.67 11.16 244.12 7.07 244.12 7.06 242.73 7.06 242.73 13.27 244.05 13.27 244.05 9.18 246.59 13.26 246.6 13.27 247.99 13.27 247.99 7.06 246.67 7.06 246.67 11.16"/>
    <polygon class="cls-1" points="254.89 7.06 253.32 7.06 251.9 9.47 250.47 7.06 248.88 7.06 251.17 10.85 251.17 13.27 252.58 13.27 252.58 10.9 254.89 7.06"/>
    <path class="cls-1" d="M258.35,10.84h-1.53l.78-2.19,.75,2.19Zm-.02-3.76v-.02h-1.43l-2.35,6.18v.03s1.41,0,1.41,0l.48-1.37h2.27l.47,1.37h1.46l-2.32-6.2Z"/>
    <path class="cls-1" d="M60.35,19.97c-.2,.16-.53,.24-.99,.24h-1.62v-1.91h1.62c.17,0,.34,.01,.5,.03,.15,.02,.29,.07,.41,.13,.11,.07,.21,.16,.27,.28,.07,.12,.1,.29,.1,.51,0,.32-.1,.56-.3,.72m-2.61,.98h1.85c.17,0,.33,.01,.5,.04,.16,.03,.3,.09,.42,.16,.12,.07,.22,.18,.29,.31,.07,.13,.11,.29,.11,.49,0,.33-.1,.6-.3,.79-.2,.19-.48,.29-.83,.29h-2.03v-2.08Zm2.89-.47c.28-.12,.49-.29,.64-.52,.16-.24,.24-.53,.24-.86s-.07-.58-.22-.8c-.14-.22-.32-.39-.52-.51-.09-.06-.21-.1-.34-.13-.13-.03-.27-.05-.42-.06-.15-.01-.3-.02-.45-.03-.15,0-.3,0-.43,0h-2.26v6.22h3.01c.31,0,.58-.05,.82-.15,.23-.1,.44-.24,.59-.4,.16-.17,.28-.36,.37-.57,.08-.21,.12-.44,.12-.67,0-.38-.1-.72-.31-.98-.2-.26-.48-.43-.84-.52"/>
    <path class="cls-1" d="M66.29,21.18h-2.02l1.02-2.81,1,2.81Zm-1.46-3.62l-2.42,6.22h.89l.69-1.86h2.58l.67,1.84h0s.96,.01,.96,.01l-2.43-6.22h-.94Z"/>
    <path class="cls-1" d="M70.19,18.3h2.01c.38,0,.65,.1,.82,.28,.17,.19,.25,.44,.25,.75,0,.22-.04,.4-.11,.54-.08,.14-.18,.24-.3,.33-.13,.08-.28,.14-.44,.16-.17,.03-.35,.04-.54,.04h-1.68v-2.1Zm3.98,5.09c-.04-.14-.08-.28-.1-.42-.02-.15-.03-.3-.04-.46,0-.15-.01-.31-.03-.46-.02-.15-.04-.29-.07-.44-.03-.14-.08-.27-.15-.38-.07-.12-.16-.21-.28-.3-.1-.07-.23-.13-.38-.17,.35-.11,.61-.3,.77-.57,.17-.29,.26-.62,.26-1,0-.51-.17-.91-.51-1.2-.33-.29-.8-.44-1.39-.44h-2.93v6.22h.87v-2.64h1.98c.2,0,.36,.03,.47,.09,.12,.06,.22,.14,.29,.24,.07,.1,.13,.21,.16,.35,.03,.14,.06,.28,.08,.42,.03,.15,.05,.3,.05,.46v.16c0,.1,.01,.18,.02,.27,0,.14,.02,.26,.04,.37,.02,.11,.06,.2,.12,.27h.99s-.03-.03-.03-.03c-.08-.1-.15-.22-.19-.35"/>
    <path class="cls-1" d="M80.34,21.43c-.02,.25-.07,.49-.15,.7-.08,.22-.2,.4-.35,.56-.15,.15-.33,.28-.54,.37-.21,.09-.44,.13-.71,.13-.36,0-.68-.07-.94-.21-.26-.14-.48-.32-.64-.55-.17-.23-.29-.5-.37-.81-.08-.31-.12-.64-.12-.99,0-.32,.04-.63,.12-.93,.08-.29,.21-.56,.37-.79,.17-.23,.38-.41,.64-.55,.26-.14,.57-.2,.94-.2,.42,0,.79,.11,1.1,.32,.31,.22,.51,.54,.6,.97v.02h.87v-.03c-.05-.33-.15-.63-.3-.88-.15-.25-.34-.46-.57-.63-.23-.17-.49-.29-.78-.38-.29-.09-.6-.13-.92-.13-.48,0-.9,.09-1.27,.26-.37,.17-.68,.4-.93,.7-.25,.29-.43,.64-.56,1.04-.13,.4-.19,.82-.19,1.27s.06,.88,.18,1.27c.12,.39,.3,.74,.54,1.03,.24,.29,.54,.52,.9,.69,.36,.16,.78,.25,1.26,.25,.79,0,1.43-.22,1.88-.65,.46-.43,.73-1.05,.81-1.83v-.03s-.87,0-.87,0v.02Z"/>
    <polygon class="cls-1" points="83.56 20.96 86.76 20.96 86.76 20.21 83.56 20.21 83.56 18.3 86.99 18.3 86.99 17.56 82.69 17.56 82.69 23.78 87.02 23.78 87.02 23.04 83.56 23.04 83.56 20.96"/>
    <polygon class="cls-1" points="89.55 17.56 88.68 17.56 88.68 23.78 92.82 23.78 92.82 23.04 89.55 23.04 89.55 17.56"/>
    <path class="cls-1" d="M96.1,23.19c-.37,0-.69-.07-.96-.22-.27-.14-.49-.34-.66-.58-.17-.24-.3-.51-.38-.81-.08-.3-.12-.6-.12-.91s.04-.61,.12-.91c.08-.3,.21-.57,.38-.81,.17-.24,.39-.43,.66-.57,.26-.15,.59-.22,.96-.22s.69,.07,.96,.22c.26,.14,.48,.33,.66,.57,.17,.24,.3,.51,.38,.81,.08,.3,.12,.61,.12,.91s-.04,.62-.12,.91c-.08,.3-.21,.57-.38,.81-.17,.24-.39,.44-.66,.58-.26,.14-.59,.22-.96,.22m2.23-4.78c-.25-.3-.56-.54-.93-.73-.37-.18-.81-.27-1.3-.27s-.93,.09-1.3,.27c-.37,.18-.68,.42-.93,.73-.25,.3-.44,.65-.56,1.04-.13,.39-.19,.8-.19,1.22s.06,.83,.19,1.22c.12,.39,.31,.74,.56,1.04,.24,.3,.56,.54,.93,.72,.37,.18,.81,.26,1.3,.26s.93-.09,1.3-.26c.37-.18,.69-.42,.93-.72,.25-.3,.44-.65,.56-1.04,.12-.39,.19-.8,.19-1.22s-.06-.83-.19-1.22c-.13-.39-.32-.74-.56-1.04"/>
    <polygon class="cls-1" points="104.77 22.53 101.54 17.56 100.63 17.56 100.63 23.78 101.46 23.78 101.46 18.86 104.66 23.78 105.6 23.78 105.6 17.56 104.77 17.56 104.77 22.53"/>
    <path class="cls-1" d="M110.69,21.18h-2.02l1.02-2.81,1,2.81Zm-1.46-3.62l-2.42,6.22h.89l.69-1.86h2.58l.67,1.84h0s.96,.01,.96,.01l-2.43-6.22h-.94Z"/>
    <polygon class="cls-1" points="112.89 18.76 114.74 18.76 114.74 23.78 116.14 23.78 116.14 18.76 117.99 18.76 117.99 17.57 112.89 17.57 112.89 18.76"/>
    <polygon class="cls-1" points="120.52 21.13 123.51 21.13 123.51 20.03 120.52 20.03 120.52 18.76 123.78 18.76 123.78 17.57 119.12 17.57 119.12 23.78 123.85 23.78 123.85 22.59 120.52 22.59 120.52 21.13"/>
    <path class="cls-1" d="M129.32,21.38c-.11,.86-.61,1.36-1.38,1.36-1.22,0-1.65-1.05-1.65-2.04,0-.49,.12-2.09,1.65-2.09,.67,0,1.24,.46,1.32,1.06v.02h1.36v-.02c-.16-1.36-1.21-2.24-2.69-2.24-1.83,0-3.05,1.32-3.05,3.28s1.25,3.23,3.05,3.23c1.52,0,2.6-1,2.74-2.54v-.03s-1.36,0-1.36,0v.02Z"/>
    <polygon class="cls-1" points="135.53 19.93 133.08 19.93 133.08 17.57 131.68 17.57 131.68 23.78 133.08 23.78 133.08 21.12 135.53 21.12 135.53 23.78 136.93 23.78 136.93 17.57 135.53 17.57 135.53 19.93"/>
    <rect class="cls-1" x="56.22" y="28.5" width="204.91" height=".66"/>
  </g>
</svg>