<?xml version="1.0" encoding="UTF-8"?>
<svg id="Capa_2" data-name="Capa 2" xmlns="http://www.w3.org/2000/svg" viewBox="0 0 166.3 73.78">
  <defs>
    <style>
      .cls-1 {
        fill: #1d1d1b;
      }
    </style>
  </defs>
  <g id="Capa_1-2" data-name="Capa 1">
    <path class="cls-1" d="M58.37,47.12h-4.9c-.04-.36-.06-.83-.06-1.19s.02-.83,.06-1.17l1.02-.21-.42-5.73c-.02-.38-.04-1.29-.04-1.63h-.23c-.02,.49-.13,1.19-.26,1.63l-2.33,8.29h-2.93l-2.38-8.29c-.13-.47-.23-1.17-.25-1.63h-.23c0,.34-.02,1.29-.04,1.63l-.45,5.73,1,.21c.04,.34,.06,.8,.06,1.17s-.02,.83-.06,1.19h-4.67c-.04-.36-.06-.83-.06-1.19s.02-.83,.06-1.17l1-.21c.21-3.03,.47-6.13,.78-9.16l-1.25-.21c-.04-.34-.06-.81-.06-1.17s.02-.83,.06-1.19h5.03l2.65,9.06c.13,.42,.26,1.1,.3,1.78h.23c.04-.68,.15-1.36,.28-1.78l2.53-9.06h5.05c.04,.36,.06,.83,.06,1.19s-.02,.83-.06,1.17l-1.25,.21c.3,3.06,.57,6.13,.78,9.16l1,.21c.04,.34,.06,.8,.06,1.17s-.02,.83-.06,1.19"/>
    <path class="cls-1" d="M70.48,45.57c0,1.17-.51,1.76-1.8,1.76-.91,0-1.68-.21-2.12-1.14h-.13c-.93,.81-1.89,1.14-2.97,1.14-1.99,0-3.29-1-3.29-3.22,0-2.42,1.38-3.22,4.05-3.31l1.8-.06v-1.93c-.47-.23-1.23-.36-1.93-.36-.85,0-1.82,.15-2.57,.49-.21-.7-.4-1.85-.4-2.63,1.04-.32,2.14-.47,3.14-.47,1.59,0,3.44,.36,4.56,1.23v7.11c0,.4,.15,.57,.53,.57h1.12v.83Zm-4.45-3.1l-1.61,.08c-1,.04-1.34,.38-1.34,1.38,0,.93,.34,1.29,1.15,1.29,.61,0,1.34-.21,1.8-.53v-2.23Z"/>
    <path class="cls-1" d="M83.69,47.12h-5.09c-.04-.36-.06-.76-.06-1.12s.02-.74,.06-1.08l.93-.21v-5.03c0-.83-.34-1.25-1.4-1.25-.7,0-1.38,.19-1.99,.55v5.73l.97,.21c.04,.34,.07,.72,.07,1.08s-.02,.76-.07,1.12h-5.15c-.04-.36-.06-.76-.06-1.12s.02-.74,.06-1.08l1.29-.21v-6.17l-1.34-.13c-.04-.32-.06-.72-.06-1.08s.02-.76,.06-1.08c1.21-.21,2.86-.3,4.2-.3l-.06,1.21h.17c1.08-1.04,2.01-1.32,3.1-1.32,1.72,0,3.1,.91,3.1,3.42v5.45l1.27,.21c.02,.34,.04,.74,.04,1.08,0,.36-.02,.76-.04,1.12"/>
    <path class="cls-1" d="M92.83,38.98c-.36-.08-.79-.15-1.19-.15-.7,0-1.34,.13-2.01,.59v5.28l1.38,.21c.02,.34,.04,.72,.04,1.08s-.02,.76-.04,1.12h-5.56c-.04-.36-.06-.76-.06-1.12s.02-.74,.06-1.08l1.29-.21v-6.17l-1.34-.13c-.04-.32-.06-.74-.06-1.08,0-.36,.02-.77,.06-1.08,1.21-.21,2.88-.3,4.22-.3l-.08,1.51h.17c1.02-1.42,1.82-1.61,2.48-1.61,.25,0,.62,.04,.87,.13,0,.87-.11,2.08-.23,3.01"/>
    <path class="cls-1" d="M102.63,42.43h-6.09v.08c0,1.59,.66,2.16,2.38,2.16,.93,0,1.95-.23,3.01-.76,.28,.81,.51,1.8,.64,2.59-1.23,.59-2.67,.83-3.69,.83-3.5,0-5.45-1.89-5.45-5.64,0-4.01,2.12-5.85,4.86-5.85,3.05,0,4.43,1.8,4.43,4.73,0,.49-.02,1.29-.08,1.87m-6.07-1.91h3.25c.02-.17,.02-.4,.02-.57,0-1.4-.53-2.02-1.57-2.02s-1.67,.7-1.7,2.59"/>
    <path class="cls-1" d="M108.25,47.33c-1.38,0-2.71-.26-3.73-.81v-2.63c.36-.04,.85-.06,1.21-.06,.38,0,.87,.02,1.25,.06l.19,.96c.34,.11,.74,.17,1.19,.17,.95,0,1.29-.3,1.29-1,0-1.57-5.11-1-5.11-4.54,0-2.4,2.06-3.65,4.58-3.65,1.12,0,2.21,.15,3.12,.4v2.82c-.36,.04-.83,.06-1.19,.06s-.89-.02-1.25-.06l-.19-.91c-.19-.04-.49-.08-.87-.08-.85,0-1.21,.34-1.21,.98,0,1.36,5.11,.91,5.11,4.69,0,2.42-1.99,3.61-4.39,3.61"/>
    <path class="cls-1" d="M124.56,45.57c0,1.17-.51,1.76-1.8,1.76-.91,0-1.68-.21-2.12-1.14h-.13c-.93,.81-1.89,1.14-2.97,1.14-1.99,0-3.29-1-3.29-3.22,0-2.42,1.38-3.22,4.05-3.31l1.8-.06v-1.93c-.47-.23-1.23-.36-1.93-.36-.85,0-1.82,.15-2.57,.49-.21-.7-.4-1.85-.4-2.63,1.04-.32,2.14-.47,3.14-.47,1.59,0,3.44,.36,4.56,1.23v7.11c0,.4,.15,.57,.53,.57h1.12v.83Zm-4.45-3.1l-1.61,.08c-1,.04-1.34,.38-1.34,1.38,0,.93,.34,1.29,1.14,1.29,.61,0,1.34-.21,1.8-.53v-2.23Z"/>
    <path class="cls-1" d="M137.75,47.12h-7.87l-.09-1.02c4.67-3.08,6.02-5.07,6.02-7.11,0-1.8-1.21-2.65-2.91-2.65-.68,0-1.36,.1-1.82,.25l-.21,1.4c-.15,.02-.32,.04-.47,.04-.17,0-.32-.02-.47-.04v-2.08c1-.38,2.1-.57,2.97-.57,2.46,0,4.05,1.21,4.05,3.75,0,2.02-1.34,4.16-5.43,6.89v.13h6.34c0,.34-.04,.68-.13,1"/>
    <path class="cls-1" d="M143.27,47.33c-2.72,0-4.33-1.65-4.33-6s1.76-5.98,4.33-5.98c2.71,0,4.33,1.65,4.33,5.98s-1.78,6-4.33,6m0-10.97c-2.23,0-3.16,1.48-3.16,4.96s.85,4.98,3.16,4.98,3.16-1.44,3.16-4.98-.85-4.96-3.16-4.96"/>
    <path class="cls-1" d="M156.84,47.12h-7.87l-.09-1.02c4.67-3.08,6.02-5.07,6.02-7.11,0-1.8-1.21-2.65-2.91-2.65-.68,0-1.36,.1-1.82,.25l-.21,1.4c-.15,.02-.32,.04-.47,.04-.17,0-.32-.02-.47-.04v-2.08c1-.38,2.1-.57,2.97-.57,2.46,0,4.05,1.21,4.05,3.75,0,2.02-1.34,4.16-5.43,6.89v.13h6.34c0,.34-.04,.68-.13,1"/>
    <path class="cls-1" d="M166.17,47.12h-7.87l-.09-1.02c4.67-3.08,6.02-5.07,6.02-7.11,0-1.8-1.21-2.65-2.91-2.65-.68,0-1.36,.1-1.82,.25l-.21,1.4c-.15,.02-.32,.04-.47,.04-.17,0-.32-.02-.47-.04v-2.08c1-.38,2.1-.57,2.97-.57,2.46,0,4.05,1.21,4.05,3.75,0,2.02-1.34,4.16-5.43,6.89v.13h6.34c0,.34-.04,.68-.13,1"/>
    <path class="cls-1" d="M37.26,18.63C37.26,8.34,28.92,0,18.63,0S0,8.34,0,18.63s8.34,18.63,18.63,18.63,18.63-8.34,18.63-18.63m-9.59-3.14l6.62-.04-6.09,2.6,6.39,1.75-6.56,.86,5.68,3.4-6.55-.94,4.55,4.81-6.06-2.67,3.08,5.86-5.11-4.21,1.39,6.47-3.78-5.43-.41,6.61-2.18-6.25-2.18,6.25-.41-6.61-3.78,5.43,1.39-6.47-5.11,4.21,3.08-5.86-6.06,2.67,4.55-4.81-6.55,.94,5.68-3.4-6.57-.86,6.39-1.75-6.09-2.6,6.62,.04-5.16-4.15,6.36,1.82-3.85-5.38,5.64,3.47-2.26-6.23,4.49,4.87-.49-6.6,3.01,5.9,1.31-6.49,1.31,6.49,3.01-5.9-.49,6.6,4.49-4.87-2.26,6.23,5.64-3.47-3.85,5.38,6.36-1.82-5.16,4.15Zm-2.64,3.14c0-3.54-2.87-6.41-6.41-6.41s-6.41,2.87-6.41,6.41,2.87,6.4,6.41,6.4,6.41-2.87,6.41-6.4"/>
    <path class="cls-1" d="M24.48,52.13s-.06,.02-.07,0c-.02-.04,.01-.11,.1-.18,.1-.09,.15-.13,.16-.12,0,.01-.03,.08-.11,.2-.02,.04-.05,.08-.08,.1m10.47-8.96s-.09,.01-.13,0c-.04,0-.08,0-.1,0s-.05,0-.08,.02c-.03,.01-.06,.02-.08,.03-.02,.01-.05,.02-.07,.03-.02,.01-.04,.02-.07,.02-.07-.01-.05-.05,.06-.11,.11-.06,.21-.1,.31-.12,.15-.02,.23,0,.27,.05,.02,.06-.01,.08-.1,.08m.64,1.72c.07,.02,.1,0,.1-.05,0-.09-.03-.14-.1-.14s-.1,.02-.1,.07c-.02,.06,.01,.09,.1,.12m-3.82-.84c-.11-.04-.19-.05-.24-.02-.09,.02-.12,.06-.08,.1,.04,.04,.11,.08,.23,.1,.07,.01,.13,.01,.18,0,.05,0,.08-.02,.08-.04,0-.06-.05-.1-.16-.14m3.24,.8s.05-.04,.06-.04c0,0,0-.02-.04-.04-.06-.03-.1-.04-.15,0-.04,.03-.05,.06-.02,.09,.04,.04,.1,.04,.15,0m-1.81-.75s-.02-.03-.07-.05c-.06,0-.08,.03-.08,.08s.02,.07,.07,.05c.06-.03,.08-.06,.08-.08m-4.06-.03c-.06,0-.08,.02-.08,.07s.03,.08,.08,.1c.03,0,.06-.03,.08-.08,0-.06-.03-.08-.08-.08m1.97,.07s-.04,0-.02,.02c.02,.01,.06,.02,.12,.03,.12,.02,.16,.01,.1-.03-.05-.03-.11-.04-.2-.02m6.82,.85s-.03-.03-.07-.03-.07,0-.1,.02c-.06,.01-.04,.03,.05,.05,.1,.02,.14,.01,.12-.03m-1.71-.17c-.09,.02-.12,.05-.1,.08,.01,.02,.07,.02,.18,0,.09-.02,.12-.05,.1-.08-.02-.02-.08-.02-.18,0m.49,.09c.03,.05,.1,.09,.22,.11,.04,.01,.09,0,.13-.02,.04-.02,.06-.05,.06-.08,0-.14-.11-.18-.32-.12-.09,.02-.12,.06-.09,.11m-10.84,.18s-.1-.06-.15-.03c-.07,.02-.06,.04,.03,.07,.1,0,.14-.01,.12-.03m2.51,.13h.08c-.72,.83-1.41,1.66-2.06,2.52-.65,.85-1.3,1.73-1.93,2.63-.23,.35-.49,.72-.77,1.11-.28,.4-.56,.79-.83,1.19-.27,.4-.53,.78-.78,1.14-.25,.36-.46,.69-.64,.98-.18,.29-.33,.52-.43,.7-.11,.18-.15,.28-.13,.3,.04,.05,.08,.03,.1-.05,0-.05,.04-.11,.13-.2,.08-.09,.17-.19,.26-.3,.09-.11,.2-.25,.33-.4,.13-.16,.23-.3,.31-.42,.08-.13,.16-.26,.23-.37,.08-.11,.13-.18,.17-.2,.07-.06,.1-.12,.1-.2,.02-.09,.11-.22,.25-.38,.1-.11,.19-.21,.27-.3,.08-.09,.15-.18,.22-.28,.07-.09,.13-.19,.2-.29,.07-.1,.15-.22,.24-.35,.3-.46,.62-.9,.95-1.34,.33-.43,.67-.86,1-1.29,.22-.29,.43-.57,.64-.83,.2-.26,.34-.44,.42-.53,.07-.08,.13-.16,.19-.25,.06-.09,.11-.16,.16-.22,.03-.04,.06-.08,.09-.12s.05-.04,.06-.02c.01,.01-.01,.06-.07,.15-.06,.09-.13,.2-.22,.33-.09,.13-.18,.26-.28,.39-.1,.13-.19,.24-.27,.34-.06,.06-.1,.11-.14,.17-.04,.05-.06,.09-.06,.12s-.01,.06-.03,.1c-.02,.05-.06,.08-.12,.1-.06,.02-.09,.06-.11,.13-.02,.06-.03,.11-.04,.14,0,.03-.01,.07-.03,.12-.02,.04-.06,.08-.12,.1-.06,.02-.09,.05-.12,.08-.02,.03-.03,.06-.03,.08s-.02,.07-.07,.13c-.04,.07-.1,.14-.16,.23-.06,.09-.13,.18-.2,.28-.07,.1-.14,.18-.19,.24-.03,.05-.06,.09-.09,.13-.03,.04-.04,.07-.04,.09s-.03,.07-.08,.15c-.06,.08-.12,.16-.2,.25-.08,.09-.15,.18-.22,.27-.07,.09-.11,.15-.13,.18-.04,.09-.1,.19-.17,.3-.07,.11-.16,.23-.27,.35-.06,.07-.11,.15-.17,.23-.06,.09-.1,.16-.13,.22-.03,.06-.07,.12-.11,.19-.04,.07-.07,.12-.11,.16-.16,.16-.27,.3-.34,.42-.07,.12-.11,.2-.11,.22s-.07,.1-.2,.23c-.06,.06-.1,.1-.13,.14-.03,.04-.05,.06-.05,.07,.01,.09,.01,.16,0,.22,0,.05-.02,.07-.04,.05-.01-.02-.04-.02-.09,.02-.05,.03-.1,.08-.15,.14-.05,.06-.09,.13-.13,.2-.04,.07-.06,.14-.06,.19s0,.1-.02,.14c-.01,.04-.03,.05-.05,.04-.01,0-.05,.04-.12,.13-.07,.09-.14,.2-.23,.33-.09,.12-.16,.23-.21,.32-.05,.09-.06,.12-.04,.1,.02-.02,.04-.02,.05,0s.02,.05,.02,.08c0,.06-.03,.08-.1,.07-.02-.01-.06,.01-.12,.07-.06,.06-.11,.13-.17,.22-.06,.09-.11,.17-.17,.24-.06,.07-.1,.1-.12,.1-.04,0-.06,.03-.03,.08,.02,.06,0,.1-.05,.13-.03,.02-.07,.06-.11,.12s-.07,.12-.09,.2c-.01,.08-.06,.21-.16,.38-.1,.18-.2,.37-.32,.58-.12,.21-.23,.41-.35,.6-.12,.2-.21,.35-.29,.48-.06,.09-.1,.18-.14,.28-.04,.09-.05,.16-.04,.19,.02,.11,.01,.15-.03,.1-.02-.02-.08,.03-.17,.15-.13,.2-.25,.42-.35,.65-.04,.1-.09,.19-.14,.27-.04,.08-.08,.12-.1,.12-.06,0-.08,.05-.08,.15,.01,.04,0,.1-.03,.17-.03,.07-.06,.13-.08,.18-.01,.03-.05,.12-.13,.25-.07,.13-.15,.28-.23,.43-.08,.16-.16,.3-.23,.42-.07,.12-.11,.19-.13,.2-.03,.02-.06,.06-.07,.1-.01,.04-.02,.1-.03,.15-.01,.04-.03,.1-.05,.16-.02,.06-.04,.11-.07,.16-.04,.08-.11,.22-.21,.42-.1,.2-.2,.43-.32,.69-.12,.26-.23,.53-.35,.82-.12,.29-.22,.56-.32,.82-.1,.26-.17,.48-.23,.68-.06,.19-.08,.33-.08,.39,0,.08-.03,.12-.08,.12-.02,0-.04,.02-.06,.07-.02,.04-.02,.09,0,.15,.02,.16,.02,.21-.02,.18-.03-.04-.06-.15-.07-.33-.01-.19,0-.38,.02-.57,.02-.19,.06-.3,.12-.34,.04-.03,.07-.07,.07-.12-.02-.09-.02-.18,0-.26,.02-.08,.05-.15,.11-.21,.06-.06,.08-.1,.08-.12s-.03-.05-.08-.1c-.05-.03-.08-.04-.1-.02-.02,.02-.05,.07-.08,.16-.06,.16-.1,.35-.15,.57-.04,.22-.08,.44-.1,.65-.02,.21-.03,.4-.02,.56,0,.16,.02,.25,.06,.28,.02,.02,.07,.09,.13,.19,.07,.11,.14,.22,.22,.36,.27,.48,.53,.75,.79,.82,.03,.01,.08,.03,.14,.06,.06,.03,.11,.07,.16,.13,.13,.14,.41,.22,.84,.22,.11,0,.23-.08,.37-.23,.07-.08,.13-.14,.19-.18,.06-.04,.11-.06,.14-.07,.09,0,.14-.04,.17-.12,.02-.08,.07-.12,.13-.12,.03,0,.09-.06,.18-.19,.09-.13,.17-.26,.23-.41,.03-.08-.03-.09-.18-.04-.15,.05-.36,.14-.64,.26-.25,.11-.44,.2-.59,.25-.15,.06-.27,.08-.36,.08-.12,0-.22-.05-.28-.15-.06-.09-.08-.18-.08-.28s.04-.29,.13-.58c.06-.19,.11-.38,.17-.58,.06-.2,.11-.35,.15-.45,.04-.11,.07-.22,.08-.32,.01-.1,.01-.18,0-.23-.01-.07-.02-.11-.02-.14s.03-.04,.08-.04c.08,.02,.12-.01,.12-.1,0-.03,.02-.1,.06-.18,.04-.09,.1-.18,.18-.27,.08-.09,.13-.17,.16-.23,.03-.07,.04-.1,.03-.1-.01,0,.01-.07,.07-.2,.02-.06,.05-.12,.08-.19,.03-.07,.03-.14,0-.19-.03-.1-.02-.15,.05-.15,.03-.01,.08-.06,.14-.14,.06-.08,.12-.18,.17-.28,.05-.11,.09-.21,.12-.3,.03-.09,.03-.16,0-.19-.03-.05-.03-.07,.02-.05,.03,.01,.08-.02,.13-.09,.06-.07,.11-.17,.15-.28,.04-.11,.08-.22,.1-.32,.02-.1,.02-.17,0-.2-.04-.07-.04-.12,0-.15,.07-.06,.09-.1,.07-.13-.02-.03-.07-.04-.16-.03-.11,0-.2,.05-.25,.15-.06,.1-.05,.13,.02,.1,.07-.03,.08-.01,.05,.07s-.07,.11-.12,.08c-.06-.03-.08-.03-.08,.02-.02,.2-.03,.33-.03,.4,0,.07,.03,.1,.06,.08,.06-.02,.08,0,.07,.07,0,.09-.02,.13-.07,.13s-.1-.05-.15-.13c-.03-.05-.1-.08-.19-.07-.1,.01-.14,.06-.14,.13,0,.03,.03,.04,.1,.02,.06-.02,.08-.03,.07-.03s-.03,.03-.07,.08c-.02,.02-.04,.06-.07,.11-.02,.05-.03,.09-.02,.12,.02,.06,.04,.08,.04,.08,0,0,.03-.03,.08-.1,.08-.11,.13-.13,.15-.07,.02,.07,.01,.1-.03,.1-.06,0-.12,.1-.2,.28-.08,.18-.14,.24-.19,.18-.03-.04-.05-.07-.06-.07,0,0,0,.02,0,.05-.02,.08-.06,.12-.1,.12-.06-.01-.09,.01-.1,.07s-.02,.2-.03,.42c0,.12,0,.19-.02,.2-.01,.01-.04-.03-.08-.12-.07-.14-.12-.16-.15-.05-.02,.09-.01,.13,.03,.13,.03,0,.03,.05,0,.15-.03,.12-.09,.17-.17,.15-.07-.02-.1,.04-.1,.18,.01,.12-.03,.2-.12,.22-.09,.02-.13,.02-.13-.02s.04-.14,.13-.32c.04-.09,.08-.18,.12-.27,.03-.1,.05-.17,.05-.23,.01-.07,.03-.13,.07-.2,.03-.07,.08-.11,.13-.13,.1-.05,.14-.12,.12-.2-.01-.04,.03-.08,.12-.12,.11-.05,.13-.08,.07-.12-.06-.02-.08-.05-.08-.07s.02-.07,.07-.12c.07-.09,.08-.13,.05-.13-.02,0,.01-.04,.1-.13,.04-.05,.09-.11,.13-.19,.04-.08,.06-.17,.06-.24,.01-.08,.02-.15,.03-.21,0-.06,0-.1,0-.12s.04,.03,.12,.17c.04,.07,.08,.11,.09,.12,.02,.01,.04,0,.07-.03,.02-.02,.03-.05,.02-.09-.01-.04-.03-.07-.05-.09-.09-.09-.12-.19-.09-.32,.03-.12,.09-.23,.19-.32,.13-.11,.21-.22,.23-.33,0-.04,.02-.1,.06-.16,.04-.06,.08-.12,.13-.18,.04-.06,.08-.11,.11-.17,.03-.06,.04-.13,.03-.19,0-.14,.02-.2,.07-.15,.04,.03,.06,.01,.03-.07-.01-.08,.03-.13,.13-.17,.11-.03,.14-.07,.08-.1-.06-.05-.09-.09-.09-.13,0-.04,.03-.07,.11-.09,.09-.02,.11-.01,.07,.03-.05,.04-.04,.07,.02,.07s.13-.07,.21-.2c.08-.13,.14-.26,.16-.39,.03-.13,.01-.2-.07-.2-.1,0-.2,.08-.3,.23-.08,.12-.15,.2-.21,.23-.06,.03-.09,0-.09-.09,0-.05,.03-.05,.1-.02,.07,.03,.08,.01,.03-.07-.02-.03-.02-.08,.02-.15,.03-.07,.07-.13,.12-.2,.08-.12,.13-.18,.17-.18s.08,.03,.13,.08c.06,.06,.1,.09,.14,.09,.04,0,.09,0,.14-.04,.04-.02,.08-.05,.1-.08,.02-.03,.03-.06,.02-.07-.02-.04,.02-.13,.12-.27,.09-.12,.13-.22,.13-.3,.01-.02,.03-.07,.07-.14,.03-.07,.08-.15,.13-.23,.09-.11,.14-.18,.14-.21,0-.03-.02-.05-.08-.08-.07-.02-.1-.04-.11-.04,0,0,.02-.03,.07-.06,.11-.08,.11-.1-.02-.05-.08,.02-.16,.12-.23,.3-.06,.12-.09,.19-.11,.2-.02,.01-.04-.02-.06-.1-.04-.12-.04-.18,.02-.18,.07,0,.09-.05,.07-.15-.01-.04,0-.09,.02-.13,.02-.04,.05-.08,.08-.12,.03-.03,.07-.05,.11-.07,.04-.01,.07,0,.09,.02,.02,.02,.07,.03,.14,.02,.07-.01,.14-.03,.22-.06,.07-.03,.14-.06,.19-.09,.06-.03,.08-.06,.07-.08-.01-.02,0-.07,.02-.15,.02-.08,.06-.16,.1-.23,.04-.09,.07-.15,.07-.18,0-.03,0-.03-.04,0-.07,.07-.13,.08-.18,.05-.06-.03-.1,0-.14,.08-.04,.09-.04,.16,0,.22,.01,.01,0,.03-.04,.05-.04,.02-.08,.04-.14,.06-.05,.02-.1,.02-.14,.02s-.08,0-.1-.02c-.02-.02,0-.08,.08-.18,.03-.04,.08-.1,.13-.17,.05-.07,.1-.13,.14-.18,.07-.09,.11-.14,.13-.14,.02,0,.06,.01,.1,.06,.06,.06,.09,.08,.1,.06s.02-.1,.02-.24c0-.09,.02-.13,.07-.13,.36-.01,.54,.02,.54,.08,0,.04-.06,.06-.17,.03-.11,0-.18,.02-.2,.05-.02,.06,0,.08,.08,.08s.13,.06,.15,.17c.01,.09,0,.13-.02,.12-.02-.01-.06,.01-.12,.07s-.11,.12-.16,.19c-.05,.07-.09,.15-.12,.23-.03,.08-.04,.13-.03,.17,.01,.03,0,.08-.03,.13-.03,.06-.06,.11-.11,.18-.04,.06-.09,.11-.13,.14-.05,.03-.08,.04-.1,.02-.01-.01-.03,.01-.05,.07-.02,.06-.05,.15-.07,.26-.02,.1-.05,.18-.08,.25-.03,.07-.06,.1-.08,.08-.09-.02-.16,0-.22,.09-.06,.08-.08,.2-.04,.36,.02,.12,.02,.2,0,.24-.02,.03-.06,.06-.12,.08-.18,.05-.27,.14-.27,.28,0,.05,.02,.06,.07,.03,.03-.01,.06,.07,.08,.23,.01,.08,0,.15-.02,.21-.02,.06-.04,.1-.07,.11-.08,.03-.11-.03-.1-.2,.03-.33-.05-.32-.25,.05-.08,.15-.12,.29-.14,.43-.02,.15,.01,.21,.09,.18,.04-.01,.1,.02,.15,.08,.03,.04,.06,.06,.07,.05s.05-.04,.11-.1c.04-.04,.1-.11,.17-.21,.07-.1,.14-.19,.22-.28,.18-.21,.25-.37,.22-.47-.01-.03-.01-.07,0-.1,0-.03,.02-.05,.04-.05,.04,0,.07-.04,.07-.12,.01-.03,.03-.07,.04-.1,.02-.03,.04-.06,.08-.07,.03,0,.06-.02,.08-.06,.02-.04,.03-.08,.03-.11,0-.05,.02-.09,.05-.15s.08-.11,.15-.15c.06-.04,.1-.1,.12-.15,.03-.06,.04-.1,.03-.12-.01-.03,0-.08,.02-.14,.02-.06,.05-.12,.08-.18,.03-.06,.07-.11,.1-.15s.06-.05,.08-.04c.04,.02,.07-.03,.07-.15,.01-.05,.04-.13,.09-.23,.05-.09,.1-.19,.16-.27,.06-.09,.11-.17,.17-.25,.06-.08,.08-.13,.07-.15,0-.02,.03-.08,.08-.18,.06-.09,.13-.2,.22-.33,.09-.12,.16-.23,.22-.32,.06-.09,.08-.14,.08-.17,0-.07,.03-.1,.08-.1,.04,0,.07-.04,.07-.12,.02-.11,.06-.17,.12-.18,.05-.01,.1-.06,.15-.15,.06-.09,.11-.19,.17-.3s.12-.23,.21-.36c.08-.13,.15-.24,.21-.33,.06-.09,.12-.18,.2-.28,.08-.1,.15-.19,.2-.27,.09-.14,.21-.33,.36-.57,.15-.23,.32-.48,.51-.74,.28-.38,.46-.64,.55-.79,.09-.14,.14-.26,.17-.33,.01-.03,.02-.07,.04-.1,.02-.03,.04-.05,.06-.05s.08-.06,.17-.17c.09-.11,.2-.26,.33-.44,.13-.18,.28-.39,.44-.62,.16-.23,.33-.45,.49-.68,.06-.07,.14-.18,.27-.34,.12-.16,.25-.32,.38-.48,.12-.14,.25-.29,.38-.44,.13-.15,.21-.26,.26-.33,.32-.42,.61-.77,.86-1.04,.25-.27,.44-.49,.58-.64,.09-.1,.18-.22,.28-.35,.1-.13,.18-.25,.23-.34,.06-.09,.11-.18,.18-.27,.06-.09,.11-.15,.16-.2,.06-.06,.09-.13,.1-.22,.01-.09,.01-.22,0-.38v-.12l.13-.02-.13-.02s-.02-.08-.02-.15c.14-.02,.19-.06,.17-.1-.02-.06,0-.08,.07-.07,.07,.01,.14,.04,.22,.1,.09,.07,.08,.12-.02,.15-.06,.02-.05,.04,0,.05,.06,.01,.17,.03,.33,.05,.12,.02,.23,.03,.31,.02,.08-.01,.12-.03,.11-.05-.02-.04,.04-.05,.2-.03,.16,0,.23-.02,.22-.07-.01-.02-.05-.04-.1-.04-.06,0-.12,0-.2,0-.38,.09-.56,.06-.53-.08,0-.03,.03-.06,.09-.09,.06-.03,.14-.05,.23-.08,.22-.02,.33-.02,.32,.02,0,.04,.04,.08,.13,.1,.08,0,.1-.03,.07-.08-.03-.04,0-.07,.08-.07,.04-.01,.08,0,.09,.02,.02,.02,.01,.04,0,.07-.02,.03,0,.08,.08,.13,.04,.03,.13,.07,.27,.1,.13,.03,.27,.06,.41,.07,.14,.02,.27,.02,.38,.02s.18-.01,.19-.03,.04-.03,.09-.02c.05,0,.1,.01,.16,.02,.12,.02,.18,.03,.18,.02,0,0-.05-.03-.14-.08-.06-.02-.14-.04-.26-.06-.12-.02-.24-.03-.36-.04-.28,0-.4-.03-.37-.08,.03-.05-.02-.09-.17-.12l-.23-.03,.23-.02c.15-.02,.22-.04,.22-.07s-.06-.04-.18-.06c-.12-.02-.25-.03-.41-.05-.16-.02-.31-.02-.46-.02s-.25,.01-.31,.03c-.02,.01-.09,.02-.2,.03-.11,0-.23,0-.35,0-.12-.01-.24-.01-.35,0-.11,.01-.18,.02-.2,.02-.08,.02-.1,0-.07-.08,.04-.09,.03-.13-.05-.13-.06,0-.1,.02-.12,.05-.06-.06-.14-.1-.27-.13-.12-.03-.22-.05-.3-.05-.18,0-.37,.07-.57,.21-.2,.14-.36,.27-.48,.39-.07,.01-.08-.03-.05-.12,.03-.08,0-.12-.1-.13-.11-.02-.16-.06-.15-.1,0-.06-.06-.03-.18,.07-.04,.03-.09,.06-.15,.08-.06,.02-.1,.02-.12,0-.03-.02-.11-.04-.23-.07-.12-.02-.24-.04-.38-.05-.13-.01-.26-.02-.37-.02-.11,0-.18,0-.2,.02-.04,.05-.08,.05-.12,.02-.05-.04-.04-.09,.02-.14,.06-.05,.13-.08,.21-.09,.07,0,.13-.01,.2-.03,.02-.01,.07-.02,.13-.02,.07,0,.14,0,.22,0,.09,0,.17,0,.23-.02,.07-.01,.11-.03,.13-.05,.02-.02,.06-.03,.1-.03s.09,0,.13-.02c.06-.01,.11-.02,.17-.03,.06-.01,.11-.03,.15-.05,.1-.07,.17-.07,.22-.02,.01,.02,.04,.03,.09,.03s.11-.02,.18-.05c.06-.02,.12-.04,.19-.04,.07,0,.12,0,.15,0,.02,.01,.06,.01,.11,0,.05,0,.09-.02,.12-.04,.03-.02,.09-.03,.16-.03s.14,0,.21,.02c.08,.01,.16,.02,.25,.02s.17-.02,.23-.05c.16-.08,.28-.09,.37-.05,.04,.02,.1,.02,.17,0s.13-.04,.2-.06c.18-.06,.36-.06,.54,0,.19,.07,.31,.07,.35,0,.02-.03,.06-.05,.12-.06,.06,0,.13,0,.19,0,.07,.01,.15,.01,.26,0,.11,0,.2-.02,.28-.04,.18-.06,.29-.08,.33-.06,.04,.02,.07,.07,.07,.16-.01,.07-.01,.1,0,.1s.04-.03,.1-.08c.04-.06,.18-.09,.39-.12,.22-.02,.47-.03,.75-.03,.19,0,.38,0,.56,0,.18,0,.36,.01,.53,.02,.17,.01,.31,.02,.43,.03s.21,.02,.27,.02c.25,.02,.47,.04,.66,.05,.19,.01,.3,.01,.33,0,.02,0,.13,.02,.33,.05,.19,.03,.42,.08,.66,.13,.7,.15,1.2,.28,1.49,.39,.29,.12,.3,.19,.02,.23-.24,.02-.38,.03-.42,.03s-.06-.02-.03-.05c.02-.03,.02-.06,0-.07-.03-.01-.07-.02-.12-.02-.11,0-.21,.03-.3,.1-.09,.07-.16,.1-.2,.1-.03-.02-.04-.04-.02-.07,.02-.02,.01-.08-.03-.17-.04-.08-.03-.11,.03-.1,.06,0,.04-.03-.05-.08-.04-.02-.1-.04-.16-.04-.06,0-.11,0-.16,0-.04,.01-.15,.01-.32,0-.17-.01-.34-.03-.52-.05-.18-.02-.34-.04-.49-.07-.15-.02-.24-.04-.28-.07-.07-.04-.11-.03-.12,.04-.02,.07,0,.14,.06,.19,.07,.07,.1,.08,.12,.03,0-.04,.03-.05,.08-.02,.07,.03,.05,.08-.05,.15-.09,.06-.16,.07-.21,.05-.05-.02-.06-.07-.03-.13,.02-.03-.04-.06-.18-.08-.16-.02-.19-.05-.1-.08,.1-.05,.08-.08-.05-.12-.09-.02-.18,0-.27,.04-.09,.05-.11,.1-.05,.16,.03,.03,.05,.02,.05-.05,.01-.07,.04-.06,.08,.03,.09,.18,.05,.23-.12,.17-.04-.02-.08-.06-.1-.1-.02-.04-.03-.1-.03-.15,.01-.04,0-.07,0-.09-.02-.02-.03,0-.03,.03-.01,.03-.03,.05-.07,.07-.03,.01-.07,.02-.1,.02-.02,0-.04,0-.07,.02-.02,.01-.02,.03,0,.05,.02,.02,.03,.04,0,.06-.02,.02-.04,.02-.06,.02s-.04-.01-.06-.04c-.02-.03-.02-.06,0-.11,0-.09-.06-.15-.17-.17-.06-.01-.11-.03-.17-.05-.06-.02-.11-.04-.16-.07-.09-.03-.12-.03-.1,.02,.04,.09,0,.12-.12,.1-.12-.02-.19,0-.21,.08-.02,.07,.03,.14,.14,.19,.08,.03,.1,.06,.07,.07-.03,.01-.13,.03-.29,.05-.19,.02-.31,.03-.36,.02-.05-.01-.1-.06-.14-.15-.07-.12-.12-.18-.17-.18s-.07,.06-.08,.18c-.01,.09-.03,.15-.05,.17-.02,.02-.06,.03-.12,.03-.09-.02-.16,0-.22,.05-.04,.04,0,.08,.15,.1,.06,.01,.11,.03,.15,.05,.04,.02,.07,.05,.07,.07,0,.07,.11,.09,.33,.07,.08-.01,.15-.02,.2-.04,.06-.02,.07-.04,.05-.06-.02-.02-.02-.04,0-.05,.03-.01,.06-.02,.11-.02,.06-.01,.1,0,.12,.02,.02,.02,.02,.05,0,.07-.03,.03,0,.06,.12,.09,.11,.03,.24,.02,.39,0,.12-.02,.15-.06,.08-.1-.04-.02-.05-.04-.03-.06,.03-.02,.08-.02,.16,0,.1,.01,.16,.02,.18,.04,.02,.02,0,.04-.06,.06-.11,.03,.04,.06,.45,.08,.39,.01,.63-.02,.72-.08,.1-.08,.17-.1,.22-.07,.06,.03,.04,.07-.03,.12-.04,.02-.04,.04,.02,.07,.06,.02,.16,.04,.29,.05,.12,.01,.23,.02,.33,.02s.15-.01,.18-.03c.02-.02,.06-.04,.1-.04,.04,0,.09,0,.13,0,.17-.02,.19,0,.07,.07-.06,.02-.08,.04-.07,.05,.01,.01,.06,.03,.13,.05,.13,.02,.27,.04,.4,.07,.13,.02,.26,.04,.38,.07,.16,.04,.24,.07,.27,.08,.02,0-.01,.02-.1,.04-.06,.02-.12,.03-.18,.02-.07,0-.13-.02-.18-.04-.06-.02-.1-.03-.14-.02-.04,0-.06,.02-.06,.04,0,.06,.05,.1,.14,.14,.09,.04,.22,.07,.38,.09,.1,.01,.28,.05,.53,.11,.25,.06,.51,.13,.78,.21,.27,.08,.51,.15,.72,.22,.21,.07,.32,.11,.33,.13,.01,.02,.05,.04,.11,.06,.06,.02,.13,.03,.21,.04,.07,.01,.13,.03,.18,.05,.06,.02,.08,.05,.08,.07-.01,.02,.01,.05,.07,.09s.12,.09,.18,.14c.12,.09,.2,.15,.22,.18,.02,.03,.02,.1,0,.23-.02,.1-.07,.22-.12,.36-.06,.14-.13,.29-.22,.44s-.18,.31-.28,.47-.2,.3-.3,.42c-.14,.18-.25,.32-.3,.43-.06,.11-.07,.17-.03,.17,.02,0,.07-.03,.15-.08,.04-.03,.08-.05,.12-.06,.03,0,.04,0,.03,.03,0,.09,.04,.11,.12,.07,.08-.04,.24-.15,.47-.33,.13-.1,.23-.17,.29-.22,.06-.04,.11-.07,.14-.07s.07,.04,.12,.12c.06,.09,.09,.13,.09,.13,0,0,0-.05-.02-.15-.02-.1-.03-.15-.03-.16,0,0,.04,.02,.09,.09,.05,.07,.09,.11,.1,.12,.01,.01,.04-.01,.1-.07,.09-.09,.17-.12,.25-.1,.1,.01,.15-.04,.15-.15,.02-.11,.07-.21,.15-.28,.08-.08,.11-.18,.08-.3-.03-.21-.08-.4-.12-.55-.05-.15-.09-.24-.11-.27-.03-.06-.07-.14-.09-.25-.03-.11-.01-.17,.04-.17,.03,0,0-.08-.07-.23-.08-.15-.19-.33-.33-.53-.14-.2-.29-.4-.44-.6-.16-.2-.28-.35-.38-.45-.23-.22-.53-.43-.87-.63-.35-.2-.64-.33-.89-.39-.09-.02-.19-.05-.32-.08-.12-.03-.23-.07-.32-.1-.08-.03-.15-.06-.22-.08-.07-.02-.15-.05-.26-.07-.11-.03-.23-.06-.38-.08-.15-.03-.35-.06-.59-.09-.18-.03-.41-.07-.68-.11-.28-.04-.55-.08-.81-.11-.26-.03-.49-.06-.68-.08-.19-.02-.28-.02-.28,0,0,.02-.05,.03-.15,.03s-.22,0-.35-.02c-.14-.01-.28-.02-.42-.02-.13,0-.28,0-.43,0s-.32,0-.51,0c-.19,0-.42,.01-.69,.02-.23,.01-.43,.01-.59,0-.16-.01-.23-.03-.23-.05,0-.05-.03-.05-.1,0-.03,.02-.08,.04-.15,.06-.07,.02-.13,.03-.2,.04-.32,.04-.58,.06-.78,.05-.19-.01-.32,0-.38,.02-.1,.02-.2,.04-.3,.06-.1,.02-.25,.01-.45,0-.13-.01-.29-.01-.48,0-.18,.01-.38,.03-.58,.06-.2,.03-.39,.06-.58,.1s-.34,.07-.46,.11c-.07,.02-.16,.04-.28,.04-.12,0-.22,.01-.31,.02-.09,0-.18,0-.28,0-.1,0-.17,.02-.2,.04-.04,.02-.11,.04-.19,.06s-.17,.02-.26,.02c-.16,.01-.24,.01-.26,0-.02,0,0-.04,.06-.09,.06-.06,.07-.09,.05-.1-.02-.01-.1-.01-.22,0-.17,.01-.27,.03-.3,.06-.03,.03-.01,.07,.07,.12,.04,.03,.05,.05,.03,.06-.03,0-.09,0-.19,0-.48-.01-.87,.03-1.17,.13-.12,.05-.22,.05-.3,0-.04-.02-.1-.03-.15-.02-.06,0-.11,.01-.17,.02-.14,.02-.26,.06-.36,.1-.09,.05-.17,.06-.23,.05-.08-.01-.2,0-.36,0-.16,.02-.33,.04-.5,.06-.17,.02-.34,.05-.5,.08-.16,.03-.28,.05-.34,.06-.09,.01-.18,.02-.27,.02s-.14-.01-.17-.03c-.02-.02-.04-.03-.05-.02-.01,0,0,.02,.02,.04,.03,.03-.09,.08-.37,.13-.29,.05-.55,.1-.77,.12-.22,.03-.43,.04-.63,.05-.19,0-.38,.01-.56,.02-.18,0-.37,.01-.58,.02-.26,.02-.52,.04-.79,.04-.27,0-.48,.01-.61,.02-.13,.01-.3,.02-.5,.02-.2,0-.38,0-.53-.02l-.57-.05,.02-.22c.01-.1,0-.17-.03-.2-.03-.03-.13-.07-.28-.1-.44-.11-.71-.08-.8,.1-.01,.03-.01,.14,0,.31,0,.17,.02,.37,.05,.58,.03,.22,.06,.43,.09,.64,.03,.21,.07,.36,.1,.46,.16,.45,.47,.74,.95,.87,.29,.09,.56,.15,.8,.18,.24,.03,.41,.02,.5-.03,.03-.02,.08-.04,.15-.05,.07-.01,.18-.02,.33-.04,.15-.02,.35-.03,.6-.05,.25-.02,.58-.04,.98-.08,.12-.01,.26-.03,.43-.05,.16-.02,.3-.04,.41-.07,.1-.02,.25-.05,.46-.09,.21-.04,.4-.07,.58-.09,.28-.04,.58-.09,.89-.14,.32-.05,.62-.1,.9-.15,.28-.05,.53-.1,.75-.14,.22-.04,.37-.07,.44-.08,.04-.01,.11-.03,.2-.05,.09-.02,.18-.03,.27-.03,.1,0,.2,0,.31-.02,.1-.01,.19-.03,.26-.05,.07-.02,.18-.05,.35-.07s.33-.04,.5-.07c.16-.02,.36-.06,.6-.1,.25-.04,.46-.08,.64-.12,.18-.03,.35-.06,.53-.07,.17-.02,.29-.03,.34-.04,.14-.02,.21-.06,.18-.12-.02-.07,0-.09,.08-.07,.03,0,.06,.01,.08,.03,.02,.02,.01,.05,0,.07-.05,.04,.01,.07,.17,.07,.06,0,.11-.01,.17-.03,.06-.02,.09-.05,.1-.08,.02-.08,0-.1-.07-.05-.03,.02-.05,.03-.06,.02,0-.01,0-.03,.03-.05,.06-.06,.11-.08,.17-.08,.08,.02,.12-.01,.12-.1,.01-.06,.05-.09,.11-.11,.06-.02,.18-.01,.34,0-.06,.06-.11,.11-.16,.17-.05,.06-.1,.12-.16,.18-.03-.03-.08-.04-.15-.02-.04,.02-.03,.04,.03,.05m4.18-2.14c.09-.06,.15-.07,.18-.03,.02,.03,.01,.07-.03,.1-.04,.03-.1,.04-.17,.03-.08-.01-.07-.04,.02-.1m7.81,1.3s-.04,0-.05-.02c-.01-.02,0-.04,.02-.06l.08-.08s.03,.03,.03,.08-.03,.08-.08,.08m.6,.17s-.03,.04-.15,.03c-.14,0-.23-.03-.25-.1-.01-.04,.04-.05,.15-.03,.14,.03,.23,.07,.25,.1m-2.64-.23c.09-.02,.14-.01,.17,.03,.02,.06,0,.1-.04,.12-.05,.02-.1,0-.16-.05-.07-.05-.06-.09,.03-.1m-.35-.07c0,.07-.14,.1-.43,.1-.19-.02-.27-.05-.25-.08,.02-.03,.14-.05,.37-.05s.32,.01,.32,.03m-2.71-.18c.07-.08,.13-.12,.18-.11,.04,0,.07,.05,.07,.13-.01,.07-.06,.12-.13,.16-.08,.04-.13,.03-.17-.03-.03-.02-.02-.08,.05-.16m.97,.46c-.07,0-.09-.03-.07-.08,.01-.04,.06-.06,.13-.03,.11,.1,.09,.14-.07,.12m-.3-.12c.08,.02,.12,.04,.12,.05,0,.02-.04,.05-.12,.07-.05,.02-.08,.03-.1,.02-.02-.01-.03-.03-.02-.05,0-.05,.04-.08,.12-.08m5.03,.72s-.04-.04-.06-.05c-.02-.01-.03-.02-.03-.03,0-.02,.03-.03,.08-.03s.08,.03,.08,.1c-.01,.04-.04,.05-.08,.02m-10.99-1.64c-.06-.01-.11-.01-.16,0-.05,0-.1,.01-.14,.02-.08,.02-.12,0-.12-.05,0-.04,.07-.08,.2-.1,.06,0,.11,0,.17,.02,.06,.01,.1,.03,.14,.05,.06,.04,.03,.07-.08,.07m-1.99,.12c-.08,0-.12-.03-.12-.08,.01-.02,.03-.04,.05-.07,.02-.02,.06-.04,.1-.05,.08-.02,.12-.02,.14,0,.01,.02,0,.06-.02,.12-.02,.06-.07,.08-.15,.08m1.12-.27s.02,.04,0,.04c-.02,0-.05,0-.11-.01-.11-.02-.14-.04-.1-.05,.08-.02,.15-.02,.2,.02m-2.53,1.04c-.12-.01-.18-.03-.18-.07,0-.04,.04-.09,.13-.14,.08-.05,.16-.08,.23-.09,.07,0,.11,.03,.13,.09,.02,.06,0,.12-.06,.18-.03,.03-.11,.04-.23,.03m.84,.18c.02-.08,.05-.12,.08-.13,.06-.02,.08-.02,.08,0s-.03,.06-.08,.12c-.06,.09-.08,.1-.08,.02m.72,.1s-.06,.03-.13,.02c-.03,0-.06,0-.07-.03-.02-.02-.01-.04,0-.06,.04-.05,.09-.05,.13-.02,.06,.03,.08,.06,.07,.08m-.99,.07s-.05-.01-.08-.03c-.03-.02-.04-.05-.03-.08,0-.07,.03-.07,.1,0,.07,.07,.1,.11,.1,.12,0,.02-.03,.02-.1,0m-.95,.11s-.04,.07-.11,.13c-.1,.09-.13,.16-.08,.2,.04,.05,.02,.07-.07,.07-.03,0-.04,0-.03,.02,.01,.01,.04,.03,.1,.05,.06,.02,.1,.04,.12,.07,.02,.02,.02,.04,0,.05-.06,.02-.13,.03-.22,.03s-.13-.03-.13-.08-.03-.08-.08-.08c-.02-.01-.04,0-.04,.02,0,.02,0,.04,.03,.07,.01,.03,0,.05-.05,.05s-.09,0-.15-.02c-.06-.02-.11-.04-.16-.07-.05-.03-.08-.06-.09-.09-.01-.03-.05-.05-.12-.06-.07,0-.14,0-.21,0-.07,0-.14,.02-.21,.04-.07,.02-.1,.05-.1,.08-.01,.06-.05,.09-.12,.09-.07,0-.13-.03-.18-.11-.02-.03-.07-.05-.13-.05s-.14,0-.21,.02c-.07,.02-.14,.04-.2,.07-.06,.03-.11,.06-.14,.11-.04,.07-.09,.06-.15-.03-.04-.07-.01-.12,.1-.17,.04-.02,.09-.04,.13-.05,.04-.01,.08,0,.1,.02,.06,.05,.09,.05,.12-.02,.01-.02,.05-.04,.12-.05,.07-.01,.14-.02,.23-.03,.09-.01,.18-.03,.27-.07,.09-.03,.16-.08,.2-.13,.1-.11,.13-.12,.1-.02-.03,.09,0,.14,.1,.15,.03,0,.09-.01,.16-.04,.07-.03,.14-.06,.21-.09,.07-.03,.12-.07,.15-.1,.03-.03,.03-.05,0-.05-.06-.01-.02-.03,.1-.07,.12-.03,.23-.05,.32-.03,.09,0,.18,.03,.27,.1,.06,.03,.08,.06,.07,.09m1.72,.12c-.1,.03-.19,.04-.28,.02-.03,0-.05,0-.04-.02,0-.02,.04-.04,.11-.06,.14-.04,.23-.05,.27-.02,.06,.02,.04,.05-.06,.08m-1.15,.12s-.13,.06-.25,.03c-.14-.01-.17-.05-.12-.1,.07-.07,.16-.08,.27-.03,.11,.02,.14,.06,.1,.1m-3.98,.3c.07-.07,.13-.08,.18-.03,.06,.03,.06,.07,.03,.1-.04,.03-.1,.05-.18,.03-.08-.01-.09-.04-.03-.1m1.07-.42s0,.04-.12,.02c-.03,0-.06,0-.07-.02-.01-.01,0-.02,.03-.03,.06-.02,.11-.01,.15,.03m.58-.14s.08,.02,.1,.04c.02,.02,.02,.03,0,.03-.02,0-.05,0-.11-.02-.11-.02-.15-.04-.1-.05,.02-.01,.05-.01,.1,0m-.18-.19c.08,.02,.12,.04,.12,.05-.03,.03-.08,.06-.13,.07-.08,.02-.12,0-.12-.05,0-.05,.04-.07,.14-.07m1.58-.38s.05-.02,.08-.02c.04,0,.07,.03,.07,.08,0,.07-.05,.09-.13,.07-.08,0-.1-.03-.07-.08,.01-.02,.03-.04,.06-.05m-10.41,23.12c0,.05,.03,.04,.08-.03,.06-.07,.08-.11,.07-.13,0-.02-.04-.02-.09,.02-.04,.02-.07,.07-.07,.15m2.59-3.18c.06-.06,.08-.1,.07-.14-.01-.04-.05-.06-.12-.06-.08,0-.1,.05-.07,.13,.04,.08,.08,.1,.12,.07m1.12-2.07c-.04,.08-.06,.2-.03,.36,.02,.16,.07,.28,.13,.34,.06,.06,.08,.07,.08,.03,.02-.16,.05-.3,.09-.42s.09-.26,.14-.4c.04-.1,.09-.2,.13-.29,.04-.09,.06-.14,.05-.17,0-.01-.02,.01-.07,.07-.08,.1-.13,.15-.17,.15-.06,0-.07-.03-.03-.08,.01-.02,0-.04-.03-.05-.03-.01-.06-.01-.11,0-.05,.01-.09,.03-.13,.04-.04,.02-.07,.04-.07,.07-.01,.07,0,.08,.05,.05,.06-.03,.1,0,.12,.12,.02,.11,.02,.18-.02,.22-.02,.02-.04,.03-.06,0-.02-.02-.03-.04-.03-.07,0-.07-.02-.06-.07,.02m4.87-9.31c-.07,.07-.12,.09-.15,.07-.02-.02-.03-.05,0-.08,.02-.03,.04-.05,.07-.07,.09-.06,.14-.08,.17-.07,.02,.02,0,.07-.08,.15m-.27,.32c-.06,0-.07-.03-.03-.08,.03-.05,.06-.08,.08-.08s.03,.03,.03,.08-.03,.08-.08,.08m.32,.01s-.04,.09-.1,.11c-.09,.03-.12,.01-.08-.07,.05-.09,.08-.13,.12-.12,.06,0,.08,.02,.07,.08m-.73,.71s.04,.04,.06,.05c.06,.02,.07,.04,.03,.06-.03,.02-.08,.02-.13,0-.02,0-.06,.02-.1,.07-.04,.05-.09,.11-.13,.18-.06,.11-.09,.18-.1,.2-.01,.02,0,.02,.07,0,.08-.02,.12-.01,.13,.03,0,.04-.03,.09-.09,.16-.07,.07-.12,.07-.17,.02-.04-.08-.1-.1-.17-.05-.08,.06-.11,.06-.09,0,.02-.06,.08-.15,.18-.28,.06-.07,.12-.14,.18-.22,.07-.08,.12-.14,.15-.18,.06-.07,.11-.12,.18-.17,.06-.04,.07-.02,.03,.07-.02,.02-.03,.05,0,.07m-.79,1.1c-.02,.1,0,.13,.06,.1,.06-.03,.08,0,.08,.11s-.02,.19-.05,.26c-.01,.02-.05,.04-.11,.04-.06,0-.14,0-.23,0-.22,.01-.3-.04-.22-.15,.06-.09,.11-.14,.15-.14,.04,0,.07,.04,.08,.13,0,.1,.03,.12,.1,.05,.07-.07,.12-.08,.17-.03,.03,.03,.03,0,0-.08-.04-.09-.1-.12-.17-.1-.06,.02-.11,.01-.15-.03-.02-.02-.03-.04,0-.07,.02-.02,.04-.03,.07-.03,.03,.01,.06,0,.08-.03,.02-.03,.03-.07,.03-.12,0-.06,.01-.1,.03-.13,.02-.03,.06-.04,.1-.03,.08,.01,.1,.03,.07,.07-.06,.03-.09,.1-.11,.2m.33,.59s-.05,.04-.1,.08c-.08,.04-.11,.02-.08-.08,.02-.08,.06-.1,.12-.07,.06,.03,.08,.06,.07,.07m-1.02,.31c0-.08,.03-.13,.08-.15,.06-.02,.08-.03,.08-.02,0,.01-.03,.06-.08,.13-.06,.09-.08,.1-.08,.03m.03,.21c.07,.03,.14,.05,.19,.08,.07,.03,.09,.05,.07,.06-.02,0-.09,0-.21,0-.19,0-.28,.02-.28,.07,0,.08-.05,.12-.13,.12-.07,.01-.11,.01-.12,0-.01,0,0-.03,.05-.08,.06-.05,.07-.12,.05-.2-.01-.04,0-.07,.02-.08,.02-.01,.08-.01,.17,0,.06,0,.12,.01,.19,.04m.5,.05s0,.06,.03,.09c.02,.03,.02,.06,0,.08-.02,.02-.04,.01-.07,0-.02-.02-.03-.06-.03-.12,0-.06,.03-.08,.06-.08,.01,0,.01,.01,0,.04m-.18,.46c.08,.06,.11,.08,.08,.08-.03,0-.11,.01-.22,.03-.15,.03-.21,0-.18-.08,0-.08,.03-.12,.08-.12,.02,0,.03,0,.04-.02,0-.02,0-.04-.03-.06-.02-.02-.02-.04,0-.07,.02-.02,.05-.03,.08-.02,.08,0,.1,.03,.08,.08-.04,.07-.03,.12,.05,.17m-.84-.1c.06,0,.09,.02,.11,.06,.02,.04,0,.09-.04,.14-.02,.03-.06,.04-.11,0-.05-.03-.07-.07-.07-.13s.04-.08,.12-.08m-1.5,2.74s-.03,.08-.03,.1c.02,.03,0,.06-.05,.08-.08,.02-.11,0-.09-.07,.02-.07,.07-.16,.16-.28,.1-.13,.16-.2,.18-.19,.02,0-.01,.08-.1,.21-.03,.06-.06,.11-.07,.15m-.93,1.76s-.06-.04-.08-.13c-.02-.08-.02-.12,.02-.12,.02,0,.05,.04,.08,.13,.02,.08,.02,.12-.02,.12m-.27,.4c-.1-.02-.12-.04-.05-.05,.08-.02,.13-.02,.15,0,.03,.03,0,.05-.1,.05m-.17,.45s-.04,.02-.06,0c-.02-.02-.02-.05,0-.08,0-.08,.02-.12,.05-.12s.06,.03,.08,.08c0,.03-.02,.07-.07,.12m-.26,.34s-.04,.02-.06,.02c-.06,0-.07-.03-.05-.08,.02-.06,.05-.08,.08-.08,.02,0,.03,.03,.03,.08,.01,.02,0,.04,0,.06m-.08,.41c-.06,.08-.1,.12-.13,.12-.08-.01-.11-.05-.08-.13,.02-.08,.08-.13,.17-.15,.1-.02,.15-.03,.15-.02-.01,.04-.04,.11-.1,.18m-.2,.35c0,.06-.02,.09-.05,.12-.04,.02-.07-.02-.07-.12s.02-.14,.05-.12c.04,.04,.07,.08,.07,.12m-.94,3.25c.03,.06,0,.11-.06,.16-.03,.02-.04,.01-.03-.03,.02-.05-.01-.12-.1-.18-.06-.06-.09-.08-.09-.08s.03,0,.11,.02c.09,.02,.15,.07,.18,.13m-.21,.31s-.02,.06-.03,.07c-.03,.03-.09,.03-.16,0-.07-.03-.11-.08-.11-.13-.01-.05,0-.06,.05-.03,.06,.02,.1,.01,.15-.03,.07-.07,.1-.06,.1,.03,.01,.03,.01,.07,0,.1m-.13,.27s-.04,.04-.12,.02c-.09,0-.14-.02-.14-.07,0-.06,.04-.07,.12-.03,.09,.02,.13,.05,.13,.08m-.04,.54s-.05,.01-.11,0c-.11-.01-.13-.06-.07-.15,.02-.02,.04-.04,.04-.05,0-.01,.01-.02,.02-.03l.03-.03s.04,.05,.07,.15c.02,.07,.03,.11,0,.12m-.37,.68c-.08,.04-.14,.04-.16,0-.02-.05-.01-.09,.03-.14s.09-.08,.14-.08c.08,.02,.12,.05,.12,.08,0,.04-.04,.09-.13,.12m9.47-1.87c-.08,.4-.01,.61,.2,.64,.12,.02,.23,.14,.32,.37,.07,.17,.13,.29,.18,.36,.06,.07,.14,.14,.27,.19,.11,.05,.23,.06,.35,0,.12-.05,.32-.2,.6-.46,.12-.11,.23-.21,.31-.29,.08-.08,.16-.15,.22-.22,.06-.07,.12-.14,.18-.21,.06-.07,.14-.16,.23-.27,.51-.67,1.05-1.32,1.62-1.96s1.18-1.23,1.84-1.76c.26-.21,.48-.4,.66-.56,.18-.16,.28-.25,.29-.26,.06-.06,.17-.13,.35-.22l.3-.15,.48,.5c.36,.37,.74,.63,1.15,.79,.41,.16,.82,.24,1.24,.24s.8-.06,1.2-.17c.4-.12,.8-.27,1.19-.46,.39-.19,.77-.41,1.14-.65,.37-.25,.71-.49,1.04-.74,.23-.19,.39-.32,.47-.38,.08-.07,.1-.1,.08-.1s-.01-.04,.03-.13c.06-.1,.08-.17,.08-.2,0-.03-.05-.05-.13-.05-.03,0-.11,.02-.23,.05-.12,.03-.25,.08-.39,.13-.14,.05-.28,.1-.42,.16-.14,.06-.24,.11-.31,.15-.06,.03-.18,.1-.36,.18-.18,.09-.37,.18-.56,.27-.21,.09-.39,.17-.54,.26-.15,.08-.24,.14-.26,.16-.07,.07-.2,.14-.41,.22-.21,.08-.43,.15-.69,.22-.25,.07-.5,.12-.74,.17-.25,.05-.44,.07-.59,.07-.42,0-.72-.13-.89-.38-.17-.26-.26-.58-.28-.97-.01-.13-.05-.24-.13-.32-.07-.08-.15-.11-.24-.08-.1,.01-.15-.02-.15-.1,0-.05-.01-.08-.04-.09-.03,0-.09,0-.18,0-.16,.02-.25,0-.27-.08-.01-.07-.09-.09-.25-.07-.06,.01-.12,.02-.21,.02s-.16-.01-.23-.03c-.16-.06-.32-.04-.49,.03-.33,.16-.65,.34-.94,.57-.3,.22-.58,.45-.86,.67-.09,.08-.19,.17-.31,.27-.12,.1-.21,.18-.29,.23-.18,.13-.28,.21-.32,.22-.03,.01-.02-.06,.03-.2,.02-.05,.05-.11,.07-.15,.03-.04,.05-.07,.08-.07,.03,0,.05-.02,.05-.07,0-.02,.04-.12,.13-.28,.09-.17,.19-.35,.3-.54,.11-.19,.22-.38,.33-.55,.11-.17,.19-.28,.23-.33,.09-.09,.13-.17,.13-.23,0-.02,.02-.06,.05-.12,.03-.06,.08-.12,.13-.18,.12-.13,.23-.31,.33-.52,.1-.21,.17-.39,.2-.55,.03-.16,.02-.32-.05-.49-.07-.17-.18-.3-.35-.4-.16-.1-.36-.15-.6-.15-.21,0-.36,.04-.44,.12-.07,.07-.1,.08-.1,.03,0-.02-.03,0-.07,.05-.05,.06-.11,.13-.19,.22-.08,.09-.14,.18-.19,.29-.05,.1-.08,.17-.08,.22,0,.11-.03,.17-.08,.17-.02,0-.05,.02-.09,.08-.04,.05-.07,.11-.09,.18-.02,.08-.04,.13-.07,.17-.02,.03-.03,.04-.03,.02-.01-.02-.04,0-.08,.06-.04,.06-.09,.15-.14,.27-.05,.12-.16,.31-.3,.57-.15,.26-.3,.51-.45,.77-.16,.26-.3,.51-.43,.77-.13,.26-.23,.43-.28,.54-.06,.11-.11,.21-.17,.29-.06,.08-.09,.13-.12,.13-.06,.02-.08,.07-.08,.13,0,.03-.01,.09-.04,.16-.03,.07-.07,.15-.11,.23-.04,.08-.09,.15-.13,.21-.05,.06-.08,.1-.1,.11-.04,.02-.07,.06-.07,.1,0,.01-.03,.09-.1,.24-.07,.15-.15,.32-.24,.51-.1,.19-.19,.38-.28,.56-.09,.18-.16,.32-.22,.41-.35,.6-.56,1.1-.63,1.5m11.83-1.27c.02,.09,.07,.22,.16,.38,.06,.11,.11,.2,.17,.28,.06,.07,.09,.1,.12,.09,.06,0,.13,.08,.22,.25,.12,.21,.26,.39,.41,.53,.15,.14,.29,.22,.41,.24,.06,.02,.11,.03,.16,.03,.05,0,.09-.02,.11-.04,.02-.02,.07-.05,.13-.08,.07-.03,.14-.05,.23-.07,.2-.06,.35-.12,.46-.19,.1-.07,.15-.14,.12-.19-.02-.03-.03-.05-.02-.05s.03,0,.05,.02c.07,.02,.14-.01,.22-.1,.08-.1,.15-.15,.22-.15,.02,0,.09-.05,.21-.15,.12-.1,.25-.23,.41-.38,.15-.16,.32-.33,.51-.54,.18-.2,.36-.4,.53-.6,.09-.1,.16-.18,.22-.25,.06-.07,.1-.09,.13-.08,.03,0,.05-.02,.05-.05,.01-.02,.03-.06,.06-.1,.03-.04,.06-.1,.11-.15,.04-.06,.08-.11,.12-.17,.03-.05,.05-.1,.05-.13,0-.07,.04-.11,.12-.14,.06-.02,.08-.07,.08-.13,0-.03,.01-.08,.04-.14,.03-.06,.06-.13,.09-.19,.03-.07,.07-.13,.11-.18,.04-.05,.07-.07,.09-.07,.07,0,.11,.03,.13,.1,.02,.07,.04,.24,.06,.53,.02,.33,.05,.59,.08,.76,.03,.17,.06,.31,.11,.41,.04,.11,.05,.18,.02,.2-.02,.01-.03,.02-.02,.03,.01,0,.03,0,.05-.03,.02-.02,.05-.03,.07-.02,.02,0,.03,.02,.03,.04,0,.1,.08,.24,.23,.43,.15,.18,.33,.37,.53,.57,.21,.19,.42,.38,.63,.54,.21,.17,.38,.28,.5,.35,.1,.06,.19,.1,.26,.13,.07,.03,.15,.06,.24,.08,.09,.02,.21,.02,.35,.02h.62c.27,0,.51,0,.71-.02,.21-.02,.39-.04,.56-.07,.17-.03,.33-.07,.48-.12,.15-.05,.31-.11,.48-.18,.26-.11,.36-.2,.32-.25-.04-.07,.02-.12,.2-.15,.07-.02,.15-.05,.25-.07,.1-.02,.18-.06,.25-.12,.07-.05,.15-.11,.26-.16,.1-.05,.2-.1,.27-.14,.08-.04,.16-.09,.24-.15,.08-.06,.13-.1,.17-.12,.09-.07,.15-.1,.18-.1,.02,0,.12-.07,.28-.2,.17-.13,.35-.28,.53-.45,.19-.17,.36-.32,.51-.47,.15-.14,.23-.23,.23-.25s-.03-.02-.09,0c-.06,.03-.14,.07-.22,.12-.08,.05-.17,.1-.26,.16-.09,.06-.16,.11-.22,.17-.07,.06-.14,.1-.22,.13-.08,.03-.16,.05-.25,.07-.04,.01-.04,0,0-.05,.04-.05,.12-.1,.22-.17,.1-.07,.21-.14,.33-.22,.12-.08,.23-.14,.33-.2,.21-.12,.42-.26,.61-.4,.19-.14,.29-.24,.29-.28,0-.06-.04-.07-.13-.03-.08,.03-.1,.03-.05-.02,.04-.05,.19-.17,.45-.37,.12-.1,.27-.24,.44-.43,.17-.18,.33-.37,.47-.55,.14-.18,.24-.35,.3-.49,.06-.14,.04-.21-.06-.21-.06,0-.15,.04-.28,.11-.13,.07-.26,.16-.4,.25s-.27,.19-.4,.28c-.13,.1-.23,.16-.29,.21-.09,.07-.19,.14-.29,.22-.1,.08-.19,.14-.26,.17-.07,.03-.23,.13-.49,.3-.26,.17-.54,.35-.83,.55-.4,.27-.82,.54-1.25,.82-.43,.28-.87,.53-1.32,.76-.45,.23-.92,.41-1.4,.55-.48,.14-.97,.21-1.47,.21-.3,0-.57-.02-.8-.07-.23-.05-.38-.13-.44-.24-.02-.05-.04-.16-.04-.34,0-.18,0-.39,0-.61,0-.22,.02-.44,.04-.64,.02-.21,.05-.35,.08-.44,.07-.19,.17-.4,.3-.64,.13-.23,.25-.41,.35-.52,.17-.18,.3-.34,.41-.48,.1-.14,.18-.27,.23-.38,.05-.12,.08-.23,.09-.35,.01-.12,0-.24-.02-.38-.02-.11-.05-.21-.09-.28-.04-.08-.1-.15-.19-.22-.21-.15-.38-.26-.49-.31-.12-.05-.27-.06-.46-.04-.08,.01-.15,.02-.2,.02s-.11,0-.15-.02c-.05-.02-.09-.04-.13-.08-.04-.04-.11-.09-.18-.16-.09-.09-.18-.16-.26-.22-.08-.06-.14-.08-.17-.08-.02,0-.08-.02-.17-.05-.09-.03-.18-.07-.27-.12-.12-.06-.31-.11-.58-.15-.26-.04-.52-.07-.78-.07-.18,0-.34,0-.49,.03-.15,.02-.25,.05-.3,.09-.22,.16-.49,.37-.79,.65s-.58,.57-.83,.89c-.09,.11-.18,.23-.28,.34-.09,.12-.17,.2-.22,.26-.18,.18-.36,.39-.54,.63-.18,.24-.36,.49-.53,.75-.17,.26-.33,.52-.48,.78-.14,.26-.26,.49-.35,.68-.07,.15-.13,.28-.18,.4-.06,.12-.1,.2-.12,.23-.02,.03-.04,.1-.06,.2-.02,.1-.04,.2-.06,.3-.02,.16-.03,.28,0,.38m1.94-.18c.04-.1,.09-.21,.16-.34,.07-.13,.14-.26,.22-.38,.08-.13,.14-.22,.2-.28,.17-.17,.25-.28,.25-.33,0-.03,.06-.14,.19-.31,.13-.17,.29-.38,.49-.61,.2-.23,.42-.48,.67-.74,.25-.26,.48-.5,.71-.72,.23-.22,.43-.4,.62-.54,.18-.14,.32-.22,.41-.22,.06,0,.08-.02,.08-.05,0-.02,.03-.05,.1-.08,.07-.03,.14-.06,.23-.08,.23-.06,.38-.06,.44,0,.07,.07,.1,.13,.12,.19,.01,.06-.04,.16-.14,.3-.11,.14-.29,.34-.55,.6s-.63,.63-1.1,1.1c-.26,.26-.51,.51-.75,.74-.25,.24-.47,.45-.67,.64-.2,.19-.37,.35-.51,.48-.14,.13-.23,.21-.28,.24-.21,.16-.42,.3-.61,.43-.19,.13-.3,.18-.33,.16-.01-.02,0-.08,.04-.18m11.95-.05l.17-.17c.11-.11,.19-.17,.23-.17s.08-.03,.12-.1c.02-.04,.03-.04,.03,0,.02,.06,0,.11-.08,.15-.02,.02-.06,.05-.12,.08-.06,.03-.11,.06-.17,.09l-.18,.12Zm-1,.57c.1-.06,.16-.07,.18-.05,.02,.02,.01,.05-.03,.08-.05,.03-.1,.05-.17,.03-.08,0-.07-.02,.02-.07m-1.02,.72c.16-.07,.17-.04,.05,.08-.06,.06-.1,.07-.13,.03-.03-.03,0-.07,.08-.12m2.98-.57c.02,.19,.07,.36,.14,.5,.07,.14,.14,.22,.19,.22,.02,0,.06,.03,.12,.08,.06,.06,.11,.13,.14,.22,.07,.18,.18,.31,.33,.39,.15,.08,.29,.11,.42,.08,.07-.02,.17-.08,.31-.18,.14-.1,.29-.22,.45-.37,.16-.15,.32-.3,.48-.46,.15-.16,.29-.32,.4-.48s.27-.33,.47-.53c.2-.19,.42-.39,.65-.59,.23-.2,.46-.39,.68-.58,.22-.18,.41-.33,.57-.44,.1-.08,.2-.16,.29-.23,.09-.08,.15-.13,.18-.15,.03-.03,.07-.06,.12-.08,.04-.02,.09-.04,.13-.06,.1-.03,.15-.07,.15-.12,0-.06,.04-.08,.12-.08s.12-.02,.12-.07c0-.06,.03-.08,.08-.08,.02,.01,.06,0,.12-.04s.11-.08,.15-.12c.06-.06,.13-.11,.23-.16,.1-.05,.2-.09,.28-.12,.09-.03,.17-.06,.23-.08,.07-.02,.1-.04,.1-.07s.06-.03,.17-.03c.09,0,.14,.03,.16,.1,.02,.07,.04,.25,.06,.55,.02,.18,.04,.35,.05,.5,.01,.16,.03,.26,.05,.32,.06,.14,.17,.34,.35,.58,.18,.24,.39,.47,.62,.7,.23,.23,.48,.43,.73,.59,.25,.17,.47,.26,.66,.28,.09,0,.18,.01,.26,.03,.08,.02,.15,.04,.19,.07,.06,.03,.19,.05,.41,.04,.22,0,.45-.02,.69-.06,.25-.03,.48-.08,.69-.13,.22-.06,.35-.11,.41-.17,.02-.02,.1-.07,.23-.13,.13-.07,.26-.13,.41-.2,.43-.2,.77-.36,1-.47,.23-.11,.4-.21,.49-.3,.09-.08,.13-.11,.12-.11,0,0-.09,.04-.24,.09-.13,.06-.26,.11-.37,.15-.11,.04-.24,.1-.38,.17-.03,0-.05-.02-.05-.05,0-.02,.04-.05,.12-.09,.08-.04,.18-.09,.3-.14,.12-.06,.22-.11,.3-.16,.08-.05,.12-.09,.12-.11s.03-.06,.08-.11c.05-.05,.12-.09,.21-.11,.09-.02,.15-.05,.18-.08,.03-.03,.03-.04,0-.04-.07,0-.1-.03-.1-.08,0-.04,.03-.07,.1-.07,.02,0,.07-.03,.16-.09,.08-.06,.17-.13,.26-.21,.1-.09,.19-.16,.26-.22,.07-.06,.12-.08,.14-.08,.03,0,.12-.07,.25-.19s.28-.27,.43-.43c.15-.16,.28-.3,.4-.43,.12-.14,.17-.21,.16-.24-.01-.04,0-.07,.03-.07,.02,0,.07-.02,.15-.08,.08-.05,.16-.11,.25-.18,.12-.09,.2-.15,.23-.18,.03-.03,.01-.06-.04-.08-.03-.01-.09,0-.17,.02-.08,.02-.16,.06-.24,.12-.07,.04-.13,.09-.2,.13-.07,.05-.14,.09-.23,.14-.09,.05-.2,.11-.32,.17-.12,.07-.28,.15-.48,.25-.12,.06-.23,.12-.33,.18-.09,.07-.16,.11-.19,.13-.29,.22-.68,.46-1.17,.72-.49,.26-1.01,.49-1.55,.71-.54,.22-1.08,.4-1.61,.54-.53,.15-1,.22-1.39,.22-.16,0-.29,0-.42-.03-.12-.02-.2-.05-.23-.09-.05-.06-.07-.18-.06-.37,0-.19,.04-.46,.09-.82,.04-.26,.06-.45,.06-.59,0-.13-.04-.3-.09-.5-.08-.29-.2-.54-.35-.74-.16-.2-.33-.32-.52-.37-.18-.04-.3-.1-.35-.17-.03-.06-.1-.09-.18-.11-.09-.02-.23-.02-.42-.02-.33,0-.7,.09-1.09,.26-.39,.17-.78,.38-1.18,.64-.39,.25-.77,.51-1.12,.78-.35,.27-.65,.5-.89,.7-.12,.09-.19,.13-.19,.11,0-.02,.03-.11,.11-.28,.09-.2,.19-.39,.29-.56,.11-.17,.21-.3,.31-.39,.06-.05,.12-.12,.18-.2s.11-.16,.13-.25c.02-.09,.06-.18,.12-.28,.06-.09,.11-.17,.16-.23,.14-.2,.26-.38,.35-.53,.09-.15,.13-.35,.13-.61,0-.13-.04-.26-.11-.38-.07-.12-.17-.22-.28-.3-.12-.08-.24-.15-.38-.2-.13-.05-.27-.08-.4-.08-.1,0-.17,.02-.2,.07-.06,.08-.13,.11-.22,.08-.09,0-.19,.08-.31,.23-.12,.16-.31,.46-.56,.9-.12,.2-.23,.38-.33,.54-.1,.16-.17,.27-.2,.31-.03,.04-.06,.09-.09,.13-.03,.05-.05,.08-.06,.12,0,.02-.03,.08-.08,.17s-.12,.2-.2,.31c-.07,.09-.13,.17-.18,.26-.06,.08-.08,.14-.08,.16,0,.04-.06,.16-.18,.33-.06,.09-.13,.21-.22,.36-.09,.15-.17,.3-.25,.44-.08,.14-.16,.28-.23,.39-.08,.12-.13,.2-.15,.24-.07,.09-.1,.15-.1,.17,0,.03-.02,.11-.06,.22-.04,.11-.14,.35-.31,.7-.12,.26-.17,.47-.13,.64m15.44,1.01c0,.1,.01,.16,.06,.21,.09,.09,.12,.16,.1,.2,0,.16,.07,.26,.2,.31,.13,.05,.26,.08,.39,.08,.09,0,.19,0,.29-.03,.11-.02,.2-.05,.29-.09,.06-.02,.14-.04,.26-.07,.12-.02,.24-.04,.36-.07,.22-.03,.49-.09,.82-.18,.32-.08,.64-.2,.94-.34,.3-.15,.57-.32,.79-.52,.23-.2,.36-.43,.39-.68,.02-.12,.05-.21,.09-.25s.12-.1,.24-.15c.17-.07,.29-.1,.37-.1,.07,.01,.14,0,.22-.06,.08-.05,.09-.08,.03-.08-.04-.02-.03-.06,.05-.12,.08-.05,.13-.04,.17,.03,.02,.06,.04,.08,.04,.08,0,0,.02-.03,.04-.08,.02-.09,.09-.14,.2-.17,.04-.01,.08-.01,.11,0,.03,.01,.03,.03,0,.05-.09,.09-.01,.1,.23,.02,.15-.04,.23-.12,.23-.23-.02-.12,0-.2,.08-.22,.04-.02,.07,0,.07,.05-.02,.07,0,.1,.06,.08,.06-.01,.15-.06,.26-.13,.06-.04,.13-.09,.22-.12,.09-.04,.17-.08,.25-.11,.08-.03,.14-.05,.2-.06,.06,0,.08,0,.07,.02,0,.06,.07,.03,.2-.08,.09-.09,.17-.14,.24-.15,.07-.01,.15,0,.24,.02,.09,.02,.15,0,.17-.05,.01-.03,.04-.05,.07-.06,.04,0,.07,0,.09,.02,.03,.02,.07,.03,.09,.02,.03-.01,.04-.03,.04-.05,.02-.08,.12-.1,.28-.05,.15,.04,.26,.06,.35,.04,.09-.02,.12-.05,.1-.11-.01-.02,.1-.06,.33-.13,.23-.06,.5-.12,.81-.19,.31-.07,.61-.12,.9-.17,.3-.04,.5-.06,.61-.05,.15,.01,.23-.02,.25-.1,.02-.08-.02-.18-.12-.3-.09-.11-.22-.19-.4-.25-.18-.06-.38-.07-.6-.05-1.05,.12-2.09,.3-3.14,.53-1.04,.23-2.07,.5-3.08,.81-.28,.09-.53,.16-.74,.22-.22,.06-.34,.08-.38,.07-.02,0-.07-.02-.13-.06-.07-.04-.13-.09-.18-.16-.06-.06-.14-.13-.24-.22-.11-.09-.2-.17-.29-.24-.3-.22-.49-.36-.57-.43-.08-.06-.13-.11-.15-.14-.01-.02-.04-.05-.09-.08-.05-.03-.11-.05-.18-.07-.07-.02-.12-.06-.17-.1-.04-.04-.07-.08-.07-.12,0-.06,.07-.15,.2-.27,.13-.12,.31-.27,.53-.43,.22-.17,.46-.35,.73-.54,.27-.19,.53-.37,.8-.53,.27-.17,.52-.32,.76-.45,.24-.13,.44-.23,.59-.29,.13-.05,.27-.12,.4-.21,.13-.08,.25-.18,.35-.28,.1-.11,.18-.21,.24-.33,.06-.11,.09-.21,.09-.3,0-.16-.06-.31-.17-.47-.11-.16-.26-.26-.45-.32-.12-.04-.24-.06-.34-.05-.1,.01-.25,.04-.44,.1-.28,.08-.59,.2-.93,.37-.34,.17-.67,.36-1,.57-.33,.21-.64,.43-.93,.66-.29,.23-.53,.45-.72,.66-.27,.31-.47,.62-.61,.94-.14,.31-.17,.54-.09,.67,.02,.04,.04,.12,.05,.22,.01,.11,.02,.22,.02,.34,.01,.24,.04,.48,.08,.69,.04,.22,.12,.36,.24,.43,.04,.02,.08,.05,.12,.07,.03,.02,.06,.04,.07,.07,.02,.04,.1,.11,.23,.18,.06,.03,.1,.07,.14,.11,.04,.04,.05,.07,.04,.09,0,.06,.06,.08,.17,.08,.12,.01,.21,.06,.28,.15,.06,.09,.05,.17-.03,.25-.08,.08-.14,.12-.2,.12-.03,0-.12,.02-.25,.06-.14,.04-.28,.09-.44,.14-.16,.06-.31,.11-.45,.16-.14,.05-.23,.08-.27,.09-.2,.07-.36,.13-.49,.19-.13,.06-.23,.13-.31,.21-.08,.08-.14,.18-.18,.29-.05,.12-.09,.27-.13,.44-.06,.23-.09,.4-.09,.49m5.46-1.81l.15-.07c.08-.02,.12,0,.12,.05-.02,.05-.07,.07-.15,.07s-.12-.02-.12-.05m1.22-.33c.07-.02,.12-.02,.15,.02,.04,.04,.01,.06-.1,.03-.1-.02-.12-.04-.05-.05m.78,6.12c-.03,.13-.05,.3-.08,.48-.02,.19-.04,.38-.06,.57-.02,.19-.02,.34-.02,.45,.02,.35,.07,.64,.16,.89,.08,.25,.24,.46,.46,.65,.11,.09,.23,.17,.34,.26,.12,.08,.21,.14,.29,.16,.07,.02,.15,.03,.25,.03s.19,0,.28,0c.09,0,.17-.02,.23-.03,.07-.02,.1-.04,.1-.06,0-.01-.04-.03-.12-.07-.08-.03-.19-.07-.31-.1-.28-.08-.46-.17-.54-.28-.02-.03-.04-.13-.06-.29-.02-.16-.03-.32-.03-.48,0-.17,0-.32,0-.45,.01-.13,.03-.2,.05-.2s.04-.03,.04-.1c0-.07,0-.15,0-.25-.02-.22,0-.33,.07-.33,.02,0,.04,0,.05-.02,.01-.01,0-.03-.02-.05-.04-.04-.04-.11,0-.18,.05-.08,.08-.1,.12-.08,.03,.02,.07-.01,.12-.1,.04-.09,.06-.17,.03-.24-.01-.07,.02-.09,.1-.07,.08,.02,.12,.02,.12-.02,0-.05-.02-.08-.07-.08-.06,0-.08-.03-.08-.08,0-.04,.04-.06,.12-.03,.08,.03,.12,0,.12-.1s.03-.15,.08-.15c.04,0,.07-.06,.07-.18,0-.06,.02-.11,.05-.17,.03-.06,.07-.1,.12-.13,.04-.03,.07-.06,.08-.09,.01-.03,0-.04-.02-.04-.09,0-.07-.07,.07-.2,.05-.05,.08-.11,.11-.19,.03-.08,.05-.17,.07-.24,.02-.07,.04-.12,.06-.17,.02-.05,.04-.06,.06-.05,.02,.01,.04,0,.06-.05,.02-.04,.04-.1,.06-.17,.04-.18,.11-.3,.2-.35,.03-.02,.07-.05,.1-.09,.03-.04,.05-.07,.05-.09,0-.08,.04-.13,.12-.17,.21-.09,.26-.2,.15-.32-.03-.05-.05-.07-.06-.08,0,0,.01,0,.06,.02,.08,.02,.12,.01,.13-.03,.02-.04,.02-.11-.02-.19-.03-.08-.07-.12-.12-.11-.14,.03-.2,.01-.17-.07,.03-.06,.1-.08,.2-.08s.17-.04,.2-.12c.02-.07,.06-.1,.12-.1,.04,0,.1-.04,.18-.11,.07-.07,.11-.14,.11-.19s.05-.11,.15-.15c.09-.03,.14-.09,.16-.18,.02-.09-.01-.13-.09-.13-.03,0-.03-.03,.02-.1,.03-.06,.06-.08,.08-.07,.02,.01,.04,.03,.06,.05,.06,.06,.1,0,.13-.18,.04-.16,.1-.23,.17-.23,.06,0,.08-.03,.08-.1,0-.06-.01-.1-.04-.12-.03-.02-.12-.03-.28-.03-.17,.02-.28,.07-.35,.15-.1,.11-.2,.2-.3,.25-.09,.04-.14,.07-.14,.07,0,0,.01-.04,.06-.12,.04-.1,.09-.14,.15-.12,.02,.01,.05,.01,.07,0,.03-.01,.03-.04,0-.08-.02-.08,0-.12,.08-.12,.07,0,.06-.03-.02-.08-.04-.02-.06-.04-.04-.04,.02,0,.05,0,.11,.02,.14,.06,.18,.04,.12-.05-.04-.08-.02-.08,.07,0,.06,.06,.09,.08,.11,.07,.02-.01,.03-.04,.03-.1,0-.09-.04-.15-.12-.17-.09-.03-.08-.08,.03-.15,.2-.13,.3-.06,.3,.22,0,.14,.02,.21,.07,.18,.08-.04,.09-.09,.03-.15-.02-.02-.02-.04,0-.06,.02-.02,.06-.02,.12,0,.11,.02,.17,0,.17-.05s-.02-.08-.07-.08c-.03,0-.09-.09-.18-.27-.06-.12-.08-.2-.07-.23,0-.03,.04-.07,.09-.1,.1-.06,.16-.04,.18,.03,.02,.07,.01,.12-.03,.17-.05,.04-.07,.09-.07,.15s.02,.08,.07,.07c.06-.02,.08-.01,.08,.03,0,.06,.05,.03,.15-.07,.1-.1,.14-.17,.12-.22-.03-.07-.03-.15,0-.24,.03-.1,.08-.14,.15-.14,.08,0,.1-.05,.05-.15-.02-.03-.02-.07,0-.1,.02-.03,.05-.06,.07-.07,.07-.02,.12-.04,.17-.07,.02-.01,.06-.04,.12-.1,.06-.06,.14-.12,.23-.18,.1-.09,.16-.16,.18-.2,.02-.05,.02-.08-.02-.1-.05-.03-.07-.06-.07-.07s.02-.03,.07-.07c.09-.07,.2-.13,.33-.18,.13-.05,.27-.09,.4-.11,.26-.03,.44-.07,.55-.09,.11-.03,.23-.07,.37-.13,.07-.02,.18-.06,.33-.11,.16-.05,.31-.1,.45-.16,.16-.06,.3-.11,.43-.16,.13-.05,.22-.1,.25-.16,.01-.02,.04-.03,.08-.02,.04,0,.08,.01,.13,.02s.09,.02,.13,.04c.04,.02,.06,.03,.08,.03,.02,0,.04-.02,.06-.07,.02-.04,.07-.08,.16-.12,.07-.02,.25-.07,.55-.13,.3-.07,.66-.14,1.08-.22,.42-.08,.87-.16,1.35-.24,.48-.08,.93-.16,1.34-.23-.06,.07-.18,.22-.37,.47-.19,.24-.39,.51-.59,.79-.21,.28-.39,.54-.54,.79-.16,.25-.23,.4-.23,.45,0,.02-.02,.09-.05,.19-.03,.11-.08,.23-.13,.38-.14,.39-.23,.7-.26,.92-.03,.22,0,.48,.08,.77,.06,.22,.13,.41,.22,.55,.09,.14,.14,.19,.17,.13,.01-.02,.04,0,.07,.04,.04,.05,.08,.11,.13,.19,.26,.2,.52,.36,.79,.49,.27,.12,.55,.18,.85,.18,.33,0,.68-.09,1.04-.27,.07-.03,.14-.07,.22-.11,.08-.04,.15-.07,.2-.08,.08-.01,.19-.07,.35-.17,.16-.1,.33-.22,.54-.37,.2-.14,.41-.31,.62-.48,.21-.18,.4-.35,.57-.52,.17-.17,.3-.32,.41-.45,.11-.13,.15-.23,.14-.3,0-.02,.03-.1,.11-.22,.07-.13,.16-.27,.26-.42,.1-.15,.2-.3,.3-.44,.1-.14,.17-.25,.22-.32,.15,.07,.29,.12,.43,.15,.44,.09,.91,.09,1.41,0,.51-.09,1-.23,1.49-.42,.49-.19,.95-.41,1.39-.65,.44-.24,.81-.48,1.11-.72,.29-.22,.5-.41,.64-.55,.14-.14,.18-.22,.12-.22-.05,0-.11,.03-.2,.08l-.12,.07c-.58,.32-1.22,.6-1.92,.84-.7,.24-1.41,.36-2.12,.36-.56,0-1.08-.09-1.57-.27,.06-.19,.09-.37,.1-.55,.02-.23,.03-.34,.02-.32-.01,.02-.03,.09-.05,.21-.02,.12-.05,.25-.08,.39-.03,.14-.05,.22-.08,.22-.04,.01-.07,0-.07-.05s0-.1,.02-.16c.01-.06,.02-.12,.02-.17s-.02-.07-.05-.06c-.06,.01-.08,0-.08,0,0-.02,.01-.04,.04-.07,.03-.03,.06-.06,.1-.09s.06-.06,.06-.08c.02-.12,0-.16-.05-.1-.02,.01-.05,.03-.08,.07-.04,.01-.07-.04-.07-.15s0-.25-.03-.43c-.02-.17-.06-.36-.13-.57-.07-.21-.2-.39-.39-.56-.11-.1-.27-.19-.47-.27-.2-.08-.4-.13-.58-.13-.13,0-.25,.03-.33,.08-.06,.03-.09,.12-.09,.25,0,.14,0,.28,.02,.43,.02,.16,.04,.3,.08,.44,.03,.14,.06,.24,.07,.29,.06,.22,.12,.46,.19,.7,.07,.25,.12,.46,.16,.65,.01,.07-.03,.17-.11,.33-.08,.15-.19,.32-.33,.52-.14,.2-.29,.4-.46,.61-.17,.21-.33,.41-.5,.59-.17,.18-.32,.35-.45,.49-.13,.14-.23,.25-.3,.32-.14,.13-.31,.29-.51,.47-.2,.18-.4,.34-.62,.49-.22,.15-.43,.28-.65,.38-.22,.11-.42,.16-.61,.16-.09,0-.13-.07-.11-.21,.02-.14,.08-.34,.18-.59,.07-.18,.16-.38,.28-.62,.12-.23,.25-.46,.38-.67s.25-.39,.35-.53c.11-.15,.18-.22,.23-.22,.02,0,.06-.03,.11-.08,.05-.06,.11-.12,.19-.2l.07-.07c.16-.16,.31-.3,.46-.42,.15-.12,.29-.24,.43-.35,.14-.11,.28-.22,.42-.33,.14-.11,.28-.23,.42-.37,.22-.22,.36-.42,.4-.59,.04-.17,.03-.32-.05-.45-.08-.13-.21-.23-.39-.3-.18-.07-.4-.11-.64-.12-.16-.02-.33-.04-.53-.06-.2-.02-.41-.02-.64-.02-.66,0-1.4,.05-2.23,.13-.83,.09-1.67,.2-2.52,.32,0-.01-.02-.02-.05-.02-.07,.01-.1,.02-.08,.03-.4,.06-.8,.12-1.19,.18-.39,.07-.76,.13-1.12,.18-.06,.01-.12,.03-.18,.05-.07,.02-.15,.04-.23,.07-.01-.03,0-.07,.03-.12,.03-.05,.07-.1,.1-.15,.02-.05,.06-.1,.11-.15,.05-.05,.08-.11,.11-.17,.02-.04,.04-.08,.07-.12,.02-.03,.04-.04,.07-.02,.02,.02,.08-.06,.18-.25,.04-.09,.09-.16,.12-.22,.04-.05,.08-.08,.12-.08,.06,0,.1-.05,.12-.15,0-.1,.03-.15,.1-.15,.09,0,.14-.05,.17-.13,.01-.03,.03-.07,.06-.11,.03-.04,.06-.06,.09-.08,.03-.01,.06-.03,.07-.06,.01-.03,.01-.05,0-.08-.03-.05-.01-.09,.07-.12,.09-.02,.12-.06,.08-.12-.02-.06,.02-.1,.12-.13,.1-.04,.15-.1,.15-.17,0-.02,.03-.07,.08-.13,.06-.07,.13-.15,.22-.23,.09-.08,.16-.16,.22-.26,.06-.1,.1-.16,.11-.21,.01-.05,.04-.1,.08-.15,.04-.06,.09-.11,.13-.17,.16-.19,.32-.37,.48-.55,.16-.18,.32-.36,.48-.54,.16-.19,.31-.37,.46-.55,.15-.18,.23-.29,.23-.35,0-.02,.02-.05,.06-.09,.04-.04,.09-.08,.14-.11,.06-.04,.15-.12,.28-.23,.13-.11,.27-.23,.4-.37,.13-.14,.28-.28,.45-.43,.17-.15,.31-.27,.43-.36,.11-.08,.21-.16,.31-.24,.1-.08,.16-.15,.19-.19,.03-.04,.1-.1,.2-.18,.1-.08,.21-.15,.33-.22,.12-.07,.23-.14,.32-.22,.09-.08,.14-.14,.17-.18,.05-.1,.1-.16,.16-.18,.06-.02,.09,.01,.09,.1,0,.21-.03,.42-.1,.63-.07,.21-.14,.42-.23,.63-.09,.21-.15,.39-.18,.54-.03,.14-.02,.25,.03,.31,.05,.06,.15,.07,.29,.03,.15-.04,.34-.13,.59-.27,.27-.17,.49-.32,.68-.47,.18-.14,.32-.32,.41-.52s.13-.44,.12-.73c-.01-.29-.08-.65-.2-1.1-.03-.11-.08-.23-.14-.35-.06-.12-.13-.24-.22-.36-.08-.12-.18-.22-.28-.32-.1-.1-.2-.16-.3-.21-.09-.05-.22-.08-.39-.1-.17-.02-.35-.03-.54-.03-.17,0-.32,.01-.46,.03-.14,.02-.24,.05-.29,.1-.04,.03-.11,.08-.19,.13-.08,.06-.16,.11-.24,.17-.08,.05-.22,.16-.42,.33-.2,.18-.4,.36-.61,.56-.21,.2-.39,.37-.54,.54-.16,.16-.24,.25-.24,.28s-.06,.09-.18,.22c-.12,.12-.26,.27-.42,.45-.17,.19-.31,.35-.43,.48-.12,.13-.18,.2-.18,.23s-.02,.06-.05,.1c-.03,.05-.07,.08-.12,.1-.18,.11-.28,.2-.3,.26-.02,.06,0,.14,.05,.23,.06,.09,.08,.14,.08,.16,0,.02-.06,.04-.16,.06-.11,.02-.18,.01-.19-.02-.02-.04,.03-.09,.14-.14,.1-.06,.1-.08,0-.08-.03,0-.08,.03-.15,.08-.07,.06-.13,.12-.18,.2-.06,.09-.13,.19-.23,.29-.1,.11-.19,.2-.27,.29-.11,.12-.18,.2-.21,.23-.03,.03-.01,.06,.04,.08,.09,.02,.16,0,.22-.07,.03-.04,.03-.06-.02-.03-.06,.03-.08,.03-.08-.02,0-.06,.05-.1,.16-.14,.11-.04,.22-.06,.34-.06,.22,0,.24,.07,.05,.2-.1,.08-.12,.08-.07,0,.04-.06,.03-.08-.05-.08-.02,0-.05,.02-.07,.06-.02,.04-.03,.07-.03,.09,0,.08-.03,.12-.1,.12-.03,0-.08,0-.14,0-.06,0-.09,.04-.09,.09,0,.03,.02,.04,.07,.03,.06-.02,.08,0,.08,.07,0,.06-.04,.12-.13,.18-.09,.07-.17,.11-.25,.12-.02,.02-.03,.08-.03,.18-.02,.13-.12,.28-.28,.43-.19,.17-.28,.28-.28,.33,0,.07-.03,.09-.1,.07-.1-.03-.17-.04-.22,0-.05,.03-.07,.07-.07,.12,0,.09-.04,.15-.12,.17-.08,.01-.1,.09-.07,.25,.02,.09,.02,.16,0,.2-.03,.05-.08,.1-.14,.17-.05,.06-.1,.11-.13,.16-.03,.05-.05,.09-.05,.11,0,.08-.03,.12-.08,.12s-.08,.04-.08,.13c0,.07-.03,.08-.1,.03-.04-.02-.08-.04-.09-.04-.02,0-.05,.01-.11,.06-.09,.08-.08,.12,.02,.12,.07,0,.08,.02,.03,.07-.03,.03-.08,.05-.15,.05-.06,0-.08,.06-.08,.18,0,.05,0,.11-.03,.17-.02,.06-.05,.1-.09,.12-.11,.06-.14,.13-.1,.23,.04,.09,.04,.11,0,.07-.02-.02-.05-.02-.09,0-.04,.03-.08,.07-.12,.13-.11,.12-.18,.17-.22,.13-.02-.02-.04-.02-.05,0-.01,.02,0,.04,.02,.06,.02,.02,.03,.04,.02,.06s-.03,.02-.07,.02c-.08,0-.08,.02,0,.07,.07,.04,.06,.1-.02,.15-.08,.07-.12,.07-.12,0,0-.09-.02-.09-.07,0-.02,.03-.04,.07-.05,.1-.01,.03,0,.06,.02,.08,.02,.02,.02,.04,0,.07-.02,.02-.04,.04-.06,.05-.02,.01-.04,.04-.06,.08-.02,.05-.04,.09-.06,.13-.02,.06-.05,.12-.08,.2-.03,.08-.08,.14-.13,.2-.06,.06-.1,.12-.14,.19-.04,.07-.06,.13-.06,.16,0,.06-.01,.08-.03,.07-.04-.02-.13-.02-.27,.02-.09,.02-.15,.03-.17,.03s-.02-.03,0-.08c.02-.06,.03-.08,.02-.08-.01,0-.05,.03-.12,.08-.11,.09-.24,.13-.4,.13s-.26-.04-.3-.12c-.04-.08-.12-.12-.23-.12-.08,0-.15,.04-.22,.12-.07,.09-.07,.24,0,.44,.07,.21,.18,.42,.31,.64,.06,.1,.11,.19,.16,.26,.05,.07,.07,.12,.06,.14,0,.02,.05,.02,.15,0,.09-.02,.13-.03,.13-.02s-.03,.04-.1,.1c-.09,.07-.13,.13-.13,.2,0,.05-.04,.09-.12,.14-.07,.03-.09,.08-.07,.15,.02,.07,0,.11-.07,.13-.03,.01-.06,.03-.07,.05-.02,.02-.02,.04,0,.05,.02,.07-.03,.16-.15,.27-.06,.06-.1,.11-.14,.18-.04,.06-.05,.1-.04,.13,.02,.03,.02,.06-.02,.09-.03,.03-.06,.05-.08,.08-.07,.04-.07,.03-.02-.05,.02-.03,.03-.06,.03-.07,0,0-.01,0-.03,.02s-.05,.05-.08,.08c-.03,.03-.05,.08-.07,.13-.06,.12-.12,.17-.18,.15-.06-.01-.06,.03,0,.13,.06,.1,.05,.15-.02,.15-.06,0-.05,.04,.02,.12,.04,.05,.06,.09,.05,.1-.01,.01-.06,.02-.15,.02h-.23s-.03,.04,.03,.12c.04,.06,.06,.09,.06,.11,0,.02-.03,.05-.07,.09-.07,.07-.11,.13-.13,.2-.02,.08-.08,.18-.18,.3-.04,.06-.07,.1-.08,.12s0,.02,.02,0c.03-.03,.05-.04,.05,0s-.03,.08-.08,.14c-.04,.06-.09,.1-.13,.14-.05,.04-.08,.06-.12,.06-.1,0-.1,.03,0,.08,.08,.03,.08,.07,.02,.12-.07,.05-.1,.11-.1,.18,0,.09-.06,.16-.17,.22-.11,.05-.17,.15-.17,.28,0,.11-.02,.17-.05,.17-.04,0-.07,.04-.07,.12s-.04,.15-.13,.2c-.03,.02-.07,.06-.1,.12-.03,.06-.05,.1-.07,.13,0,.04-.02,.1-.04,.18-.02,.07-.05,.14-.09,.19-.06,.05-.08,.11-.08,.16s0,.08,.02,.09c.01,.03-.02,.09-.1,.17-.03,.03-.07,.09-.1,.17-.03,.08-.06,.15-.08,.23-.02,.09-.04,.16-.07,.21-.02,.05-.04,.06-.07,.04-.02-.02-.04-.02-.05,0-.01,.02-.01,.04,0,.06,.01,.03,0,.1,0,.21-.02,.11-.04,.21-.08,.33-.03,.11-.07,.21-.1,.3-.03,.09-.06,.13-.07,.13-.06,0-.08-.05-.08-.16s.03-.17,.08-.19c.06-.02,.08-.1,.08-.22,0-.09,0-.14-.02-.15-.01-.01-.06,0-.13,.03-.1,.04-.15,.11-.15,.2,0,.07,.03,.09,.08,.07s.07,0,.05,.05c-.02,.08-.07,.11-.13,.08-.06-.02-.08,.01-.08,.1,0,.02,0,.04,.03,.07,.02,.02,.04,.02,.06,0,.04-.04,.06-.02,.03,.07-.02,.09-.06,.12-.12,.08-.02-.01-.05,.05-.07,.18m9.21-9.99c.1-.03,.22-.05,.35-.08,.13-.02,.25-.04,.36-.06,.11-.02,.19-.02,.22,0,.03,.01,.06,0,.08-.02,0-.02,.03-.04,.1-.05,.07-.01,.14-.03,.23-.05,.09-.02,.18-.04,.28-.04,.09,0,.18-.02,.24-.04,.13-.03,.2-.03,.2,0-.01,.02-.06,.04-.13,.06-.08,.02-.17,.03-.28,.04-.11,.01-.22,.02-.31,.04-.1,.02-.15,.04-.18,.06-.02,.02-.08,.04-.17,.04-.09,0-.18,.02-.27,.04-.1,.02-.18,.04-.25,.05-.07,.01-.11,.03-.12,.05l-.05,.02s-.04,0-.04,0c0,0-.01,0-.03,0-.08-.02-.13-.02-.17,.02-.02,.02-.04,.03-.07,.03l-.1,.02c-.06,0-.08-.01-.08-.03,.01-.02,.07-.05,.18-.08m-3.04-.08l.22-.27c.06-.07,.1-.14,.14-.2,.04-.07,.05-.11,.04-.13-.01-.02,0-.06,.06-.12,.05-.05,.1-.12,.16-.2,.11-.13,.18-.21,.22-.22,.03-.01,.01,.04-.07,.17l-.02,.03s-.02,.04-.03,.06c-.01,.02-.03,.04-.05,.06-.06,.09-.11,.18-.15,.29-.06,.05-.1,.11-.14,.18-.04,.06-.08,.12-.12,.18l-.25,.18Zm-3.71,6.85s.03-.09,.07-.14c.03-.06,.08-.12,.14-.18,.06-.07,.12-.12,.18-.17,.12-.08,.18-.1,.18-.05,0,.06-.03,.08-.08,.08-.04,0-.07,.03-.07,.1,0,.03-.02,.07-.05,.09-.03,.03-.07,.05-.1,.06-.09,.02-.13,.07-.13,.13,0,.06-.03,.1-.08,.12-.04,.01-.06,0-.05-.04m5.18-9.02c.06-.08,.07-.12,.03-.12-.02,0-.02-.01,.02-.04,.03-.03,.08-.05,.13-.08s.11-.04,.15-.07c.04-.02,.07-.03,.08-.03,0,.01,0,.02,.02,.03v.08c0,.08-.02,.13-.05,.14-.03,.02-.07,0-.1-.06-.03-.04-.07-.02-.12,.08-.04,.11-.11,.17-.18,.17-.06,0-.05-.04,.02-.12m2.12-3.76c.1-.1,.15-.13,.15-.08,0,.03,.04,.02,.12-.03,.09-.06,.12-.07,.11-.05-.02,.02-.08,.1-.17,.22-.11,.12-.2,.17-.27,.15-.07-.02-.04-.09,.07-.2m-9,13.74s.09-.12,.16-.28c.08-.18,.12-.28,.13-.29,0-.02-.01-.03-.06-.03-.06,0-.08,.05-.08,.15s-.02,.15-.07,.15-.08,.05-.1,.15c-.02,.12-.01,.17,.03,.14m2.52-2.41c0-.07,.04-.11,.12-.11,.06,0,.1,.05,.12,.14,.01,.1-.03,.14-.12,.12-.08-.02-.12-.07-.12-.14m.76-2.03s.03-.06,.06-.12c.03-.06,.06-.11,.09-.17,.07-.12,.1-.15,.1-.08,0,.08-.03,.17-.09,.28-.06,.11-.11,.17-.14,.17-.04,0-.05-.03-.02-.08m2.84-3.06c0-.11,.03-.18,.1-.2,.14-.04,.14,.03,0,.22-.08,.11-.11,.11-.1-.02m-4.53,6.84s.05-.02,.03-.07c-.02-.04,0-.07,.07-.07s.1,0,.1,0c0,0-.02,.03-.07,.07-.05,.04-.06,.08-.03,.12,.01,.02,0,.05,0,.07-.02,.02-.04,.03-.06,.03-.07,0-.1-.02-.1-.07,0-.07,.02-.1,.07-.1m6.89-11.37c.09-.09,.14-.12,.15-.09,.01,.03-.01,.09-.07,.19-.02,.05-.07,.07-.15,.08-.03-.05-.01-.11,.07-.18m-9.06,14.16c.07-.07,.12-.07,.15-.02,.01,.02-.01,.07-.07,.15-.02,.03-.05,.05-.08,.05s-.06-.01-.07-.03c-.02-.03,0-.08,.07-.15m5.33-7.62c.1-.05,.15-.05,.15,0,0,.03-.04,.07-.12,.11-.08,.04-.14,.04-.16,0-.03-.03,.01-.07,.13-.12m6.42-2.64l1.71-.1c.09-.01,.15-.02,.19-.02s.04,.01,0,.03c-.02,.01-.09,.02-.2,.02l-1.69,.07Zm-3.81-3.16c.08-.08,.12-.08,.12,0,0,.06-.03,.08-.08,.08-.05,0-.06,.02-.03,.07,.03,.06,.02,.08-.03,.08-.11-.02-.1-.1,.03-.23m-3.81,6.27c0-.06,.04-.09,.12-.12,.08-.02,.11,0,.1,.07-.02,.08-.06,.12-.1,.12-.08,0-.12-.02-.12-.07m4.15-5.92c.04-.08,.06-.13,.03-.15-.03-.03,0-.05,.08-.05,.02,.04,.03,.07,.03,.08,.01,.01,.04,0,.08-.02,.01,.02,0,.05-.03,.09-.03,.04-.07,.07-.12,.09h-.02c.04-.06,.04-.08,0-.08l-.07,.1s-.03-.02,0-.07m-6.41,9.86s0-.1,.06-.18c.06-.08,.1-.11,.12-.08,.02,.04,0,.11-.07,.2-.06,.08-.09,.1-.11,.06m5.44-7.35s.05,.06,.05,.17c0,.1-.02,.15-.07,.15-.03,0-.05-.05-.05-.15,.02-.11,.04-.17,.07-.17m-7.34,11.2s.07,.05,.07,.07c0,.02-.02,.06-.07,.12-.04,.04-.07,.06-.07,.06,0,0,0-.05,0-.12,0-.11,.03-.15,.08-.12m2.97-5.75s.04-.05,.06-.07c.06-.06,.09-.07,.11-.03s0,.08-.07,.13c-.08,.06-.12,.07-.12,.03,0-.02,0-.04,.03-.07m2.06-2.14s.04-.07,.08-.07,.06,.04,.03,.12c-.02,.08-.05,.1-.08,.07-.03-.03-.04-.07-.03-.12m4.74-7.68c.06-.03,.11-.04,.14-.04,0,.01-.04,.06-.12,.13-.03,.03-.06,.05-.08,.05s-.03-.01-.03-.03c0-.04,.03-.08,.09-.11m-6.68,10.63s.07,.02,.12,.07c.02,.02,.02,.04,0,.05-.02,.01-.05,.02-.08,.02-.07,0-.1-.02-.1-.07s.02-.07,.07-.07m4.86-8.28s.02-.05,.07-.12c.08-.1,.12-.16,.12-.18,.02-.02,.03,0,.03,.05,0,.03-.04,.1-.13,.18-.06,.06-.09,.08-.09,.07m-.23,1.65s.02-.04,.06-.09c.06-.09,.1-.13,.13-.13s.04,.02,.03,.05c-.02,.03-.06,.07-.12,.12-.07,.05-.1,.07-.09,.06m.89-2.48c.07-.07,.11-.08,.13-.05,.03,.03,0,.06-.1,.08,0-.01,0,0,0,0,0,.02-.03,.02-.06,.02-.02,0-.01-.02,.03-.07m-5.33,7.77s.04-.02,.04,0c0,.03,0,.06,0,.09,0,.05,0,.08-.02,.08-.01,0-.02-.01-.03-.03-.02-.08-.02-.13,0-.15m-1.32,3.26c.06-.02,.1-.02,.14,0,.04,.02,0,.03-.1,.03s-.12-.01-.03-.03m9.32-7.82s0-.01,.04-.02c.06-.02,.09-.02,.1,0,0,.02-.03,.03-.08,.03-.03,0-.05,0-.06,0m-1.87-4.17s.04-.04,.05-.04c.01,0,.02-.02,.03-.04,.03,.03,0,.06-.08,.08m-.68,4.65h.02l-.1,.02s.05-.03,.08-.02m12.92,5.66c-.08,.4-.01,.61,.2,.64,.12,.02,.23,.14,.32,.37,.07,.17,.13,.29,.18,.36,.06,.07,.14,.14,.27,.19,.11,.05,.23,.06,.35,0,.12-.05,.32-.2,.6-.46,.12-.11,.23-.21,.31-.29,.08-.08,.16-.15,.22-.22,.06-.07,.12-.14,.18-.21,.06-.07,.14-.16,.23-.27,.51-.67,1.05-1.32,1.62-1.96,.57-.64,1.18-1.23,1.84-1.76,.26-.21,.48-.4,.66-.56,.18-.16,.28-.25,.29-.26,.06-.06,.17-.13,.35-.22l.3-.15,.49,.5c.36,.37,.74,.63,1.14,.79,.41,.16,.82,.24,1.25,.24,.4,0,.8-.06,1.2-.17,.4-.12,.8-.27,1.19-.46,.39-.19,.77-.41,1.14-.65,.37-.25,.71-.49,1.04-.74,.23-.19,.39-.32,.47-.38,.08-.07,.11-.1,.08-.1s-.01-.04,.03-.13c.06-.1,.08-.17,.07-.2,0-.03-.05-.05-.12-.05-.03,0-.11,.02-.23,.05-.12,.03-.25,.08-.39,.13-.14,.05-.28,.1-.42,.16-.14,.06-.24,.11-.31,.15-.06,.03-.18,.1-.36,.18-.18,.09-.37,.18-.56,.27-.21,.09-.39,.17-.54,.26-.15,.08-.24,.14-.26,.16-.07,.07-.2,.14-.41,.22-.21,.08-.44,.15-.69,.22-.25,.07-.5,.12-.74,.17-.25,.05-.44,.07-.59,.07-.42,0-.72-.13-.89-.38-.17-.26-.26-.58-.28-.97-.01-.13-.05-.24-.12-.32-.07-.08-.15-.11-.24-.08-.1,.01-.15-.02-.15-.1,0-.05-.01-.08-.04-.09-.03,0-.09,0-.18,0-.16,.02-.24,0-.27-.08-.01-.07-.1-.09-.25-.07-.06,.01-.13,.02-.21,.02s-.16-.01-.23-.03c-.16-.06-.32-.04-.49,.03-.33,.16-.65,.34-.94,.57-.29,.22-.58,.45-.86,.67-.09,.08-.19,.17-.31,.27-.12,.1-.22,.18-.29,.23-.18,.13-.28,.21-.32,.22-.03,.01-.02-.06,.03-.2,.02-.05,.05-.11,.08-.15,.03-.04,.05-.07,.08-.07,.03,0,.05-.02,.05-.07,0-.02,.04-.12,.13-.28,.09-.17,.19-.35,.3-.54,.11-.19,.22-.38,.33-.55,.11-.17,.19-.28,.23-.33,.09-.09,.13-.17,.13-.23,0-.02,.02-.06,.05-.12s.08-.12,.13-.18c.12-.13,.24-.31,.33-.52,.1-.21,.17-.39,.2-.55,.03-.16,.02-.32-.05-.49-.07-.17-.18-.3-.35-.4-.16-.1-.36-.15-.6-.15-.21,0-.36,.04-.44,.12-.07,.07-.1,.08-.1,.03,0-.02-.03,0-.08,.05-.05,.06-.12,.13-.19,.22-.08,.09-.14,.18-.19,.29-.05,.1-.07,.17-.07,.22,0,.11-.03,.17-.08,.17-.02,0-.05,.02-.09,.08-.04,.05-.07,.11-.09,.18-.02,.08-.04,.13-.07,.17-.02,.03-.03,.04-.03,.02-.01-.02-.04,0-.07,.06-.04,.06-.09,.15-.14,.27-.06,.12-.16,.31-.3,.57-.14,.26-.3,.51-.45,.77-.16,.26-.3,.51-.44,.77-.13,.26-.23,.43-.28,.54-.06,.11-.11,.21-.17,.29-.06,.08-.1,.13-.12,.13-.06,.02-.08,.07-.08,.13,0,.03-.01,.09-.04,.16-.03,.07-.06,.15-.11,.23-.05,.08-.09,.15-.13,.21-.04,.06-.08,.1-.1,.11-.05,.02-.07,.06-.07,.1,0,.01-.03,.09-.1,.24s-.15,.32-.24,.51c-.1,.19-.19,.38-.28,.56-.09,.18-.16,.32-.22,.41-.35,.6-.56,1.1-.64,1.5m12.46-1.2c-.1,.17-.18,.32-.23,.45-.06,.13-.09,.24-.11,.33-.02,.1-.02,.19,0,.29,.01,.09,.02,.16,.03,.22s.03,.11,.07,.18c.03,.06,.08,.13,.16,.2,.07,.07,.18,.17,.31,.29,.19,.18,.34,.3,.44,.38,.11,.07,.21,.11,.33,.11,.14,0,.33-.07,.54-.21,.22-.14,.43-.31,.64-.5,.21-.19,.39-.39,.55-.58,.16-.2,.26-.35,.29-.46,.02-.08,.08-.18,.18-.31,.1-.13,.21-.26,.34-.39,.11-.12,.2-.23,.27-.33,.07-.1,.09-.16,.07-.17-.07-.02-.03-.1,.1-.24,.04-.04,.09-.08,.14-.11,.05-.03,.09-.04,.11-.03,.04,.01,.07,0,.07-.02-.02-.08-.02-.13,0-.15,.02-.02,.05,0,.08,.05,.03,.06,.06,.08,.07,.08s0-.03-.02-.08c-.02-.03-.03-.08-.03-.13,0-.06,.03-.1,.08-.12,.03-.02,.06-.07,.08-.14,.02-.07,.03-.14,.03-.19,0-.15,.05-.25,.15-.28,.1-.03,.14-.07,.12-.12-.01-.02,.03-.09,.13-.19,.1-.11,.22-.23,.38-.38,.16-.14,.3-.28,.43-.41,.14-.13,.22-.21,.27-.26,.09-.09,.21-.17,.35-.23,.15-.07,.25-.08,.3-.05,.01,.01,.01,0,0,0-.01-.02-.03-.04-.05-.06-.06-.07-.02-.17,.12-.3,.06-.06,.11-.11,.15-.15,.04-.04,.08-.07,.1-.07s.06-.02,.11-.07c.05-.05,.14-.12,.26-.21,.09-.07,.17-.08,.25-.05,.11,.04,.18,.03,.2-.03,.01-.03,0-.05-.02-.05-.17,0-.16-.09,.02-.27,.1-.1,.19-.17,.26-.2,.07-.03,.11-.01,.11,.07,0,.06,.06,.06,.17,0,.08-.04,.12-.06,.12-.03s-.04,.11-.14,.27c-.09,.17-.19,.38-.3,.63-.11,.25-.22,.51-.32,.77-.1,.26-.19,.51-.27,.75-.08,.24-.13,.43-.15,.56-.09,.46-.14,.79-.14,1,0,.21,.04,.35,.13,.44,.04,.04,.09,.1,.14,.15,.05,.06,.08,.11,.11,.17,.02,.05,.06,.09,.11,.13,.05,.04,.1,.06,.14,.06,.06,0,.11,.03,.16,.07,.05,.05,.09,.11,.11,.18,.04,.15,.17,.25,.38,.3,.12,.03,.21,.03,.27,0,.06-.03,.18-.16,.38-.39,.28-.32,.47-.56,.56-.72,.09-.16,.14-.28,.13-.38,0-.06,0-.1,.02-.14,.02-.04,.04-.06,.08-.08,.03-.01,.08-.06,.12-.13s.1-.16,.16-.25c.06-.09,.11-.16,.16-.23,.05-.06,.09-.09,.11-.09,.07,0,.1-.03,.1-.1,0-.08,.08-.2,.25-.37,.08-.08,.16-.16,.24-.24,.08-.08,.14-.15,.18-.21,.12-.15,.23-.26,.31-.32s.16-.09,.23-.1c.06,0,.16-.05,.32-.15,.16-.1,.3-.21,.42-.33,.08-.08,.14-.12,.17-.12,.02,.02,.02,.08-.02,.16-.03,.08-.07,.13-.1,.13-.04,0-.07,.03-.07,.08,0,.03-.02,.11-.07,.24-.05,.13-.1,.27-.17,.43-.35,.79-.47,1.47-.37,2.04,.02,.12,.05,.24,.08,.34s.08,.19,.13,.28c.06,.09,.13,.19,.23,.29,.1,.11,.23,.23,.38,.38,.1,.09,.21,.19,.33,.31,.12,.12,.22,.21,.29,.29,.11,.12,.26,.23,.44,.33,.18,.1,.37,.18,.57,.24,.19,.05,.39,.09,.58,.1,.19,.01,.35-.01,.49-.07,.07-.02,.14-.04,.22-.07,.08-.02,.15-.04,.2-.05,.04-.02,.09-.04,.14-.07,.05-.02,.09-.05,.11-.07,.04-.08,.13-.13,.25-.15,.06-.01,.15-.04,.28-.1,.13-.05,.25-.13,.38-.22,.12-.08,.23-.14,.31-.18s.12-.05,.12-.02,.02,.01,.05-.03c.02-.03,.13-.12,.32-.28,.19-.15,.4-.3,.62-.44,.14-.09,.19-.13,.13-.13-.08,0-.27,.09-.59,.27-.13,.08-.25,.14-.34,.18-.1,.04-.13,.05-.11,.03,.02-.03,.08-.08,.16-.13,.08-.05,.17-.1,.26-.14,.1-.04,.23-.12,.38-.22,.16-.1,.3-.2,.44-.31,.14-.11,.26-.2,.36-.28,.1-.08,.15-.14,.15-.16,0-.06-.04-.07-.11-.05-.07,.02-.16,.09-.28,.2-.15,.15-.28,.25-.4,.32-.12,.07-.2,.08-.22,.05-.01-.03,0-.05,.03-.05,.07,0,.2-.09,.39-.28,.2-.18,.4-.39,.6-.63,.21-.23,.39-.46,.55-.69,.16-.22,.25-.38,.26-.47,0-.15,.04-.23,.12-.25,.06-.02,.09-.08,.1-.18,0-.1-.01-.15-.07-.15-.01,0-.11,.07-.29,.2-.18,.13-.39,.29-.65,.47-.26,.18-.5,.35-.74,.52-.24,.17-.4,.28-.49,.35-.09,.07-.18,.13-.26,.2-.08,.07-.14,.12-.16,.15-.03,.04-.15,.13-.35,.25-.2,.12-.42,.25-.66,.38-.24,.13-.46,.24-.67,.34-.21,.1-.33,.15-.38,.15-.03,0-.12,.02-.25,.07-.13,.04-.28,.1-.43,.17-.38,.16-.69,.23-.94,.23-.15,0-.25-.03-.3-.1-.06-.09-.07-.26-.06-.5,.02-.24,.09-.51,.21-.8,.06-.16,.12-.33,.19-.52,.07-.19,.12-.35,.16-.47,.03-.12,.1-.3,.19-.54,.1-.23,.19-.46,.28-.67,.13-.3,.21-.53,.24-.68s.04-.3,.04-.46c0-.31-.06-.55-.18-.7-.12-.16-.32-.31-.59-.45-.12-.07-.24-.12-.36-.17-.12-.04-.19-.05-.23-.03-.06,.02-.11,.01-.15-.03-.06-.05-.17-.07-.34-.05-.17,.02-.37,.08-.58,.17-.22,.09-.45,.2-.69,.34-.24,.14-.47,.3-.67,.48-.12,.11-.24,.2-.34,.26-.11,.06-.16,.08-.17,.06-.01-.02,0-.08,.06-.17,.05-.09,.1-.18,.16-.28,.07-.12,.13-.26,.18-.42,.06-.16,.1-.31,.13-.46,.03-.15,.05-.3,.05-.44s-.02-.25-.05-.34c-.06-.16-.16-.27-.32-.35-.07-.03-.13-.07-.18-.11-.05-.04-.09-.07-.11-.09-.02-.02-.05-.04-.08-.06-.03-.02-.07-.02-.12-.02-.03,0-.08,0-.14-.02-.05-.01-.09-.03-.12-.05-.06-.04-.15-.06-.28-.04-.14,.02-.25,.05-.35,.11-.03,.01-.11,.05-.22,.13s-.24,.16-.38,.26c-.14,.1-.28,.2-.41,.3-.13,.1-.25,.2-.33,.28-.04,.05-.11,.1-.18,.18-.08,.07-.16,.14-.24,.22-.08,.07-.16,.14-.24,.2-.08,.06-.15,.11-.2,.14-.07,.05-.2,.16-.41,.35-.21,.19-.43,.38-.66,.57-.18,.16-.35,.3-.5,.44-.16,.14-.32,.29-.49,.45-.17,.16-.36,.34-.57,.54-.21,.2-.45,.44-.73,.72-.19,.19-.33,.32-.42,.39-.09,.07-.11,.08-.05,.02,.02-.04,.04-.08,.07-.12,.02-.03,.03-.06,.03-.08-.01-.01,.02-.08,.08-.2,.07-.12,.14-.26,.23-.41,.09-.15,.18-.3,.27-.44,.09-.15,.16-.24,.2-.3,.04-.06,.09-.12,.14-.21,.05-.08,.09-.16,.12-.24,.03-.08,.08-.17,.13-.28,.06-.11,.11-.2,.17-.29l1.1-1.64c.04-.09,.09-.18,.13-.27,.04-.09,.08-.16,.12-.22,.1-.15,.16-.3,.18-.47,.02-.17,.02-.3-.02-.38-.02-.06-.07-.13-.15-.23-.08-.09-.16-.19-.25-.28-.09-.09-.16-.15-.22-.2-.06-.04-.12-.08-.18-.09s-.15-.02-.25-.02c-.1,0-.23,.01-.4,.02-.06,0-.12,.05-.2,.14-.08,.09-.16,.2-.23,.32-.08,.12-.15,.25-.21,.37-.06,.12-.11,.22-.14,.28l-.99,1.62c-.08,.13-.16,.28-.25,.43-.09,.16-.18,.31-.27,.47-.09,.16-.17,.31-.25,.45-.08,.15-.15,.27-.2,.38-.12,.21-.23,.4-.31,.56-.08,.16-.14,.25-.16,.26-.04,.02-.07,.05-.07,.08,0,.02-.02,.09-.07,.19-.05,.11-.11,.23-.19,.36-.01,.02-.05,.08-.11,.18-.06,.1-.12,.21-.19,.33-.07,.12-.13,.22-.19,.31-.06,.09-.1,.13-.13,.13-.03,0-.05,.03-.05,.08,.01,.02-.02,.1-.09,.23-.07,.13-.15,.27-.24,.43-.15,.26-.27,.47-.37,.65m8.28-5.17c.04-.06,.1-.11,.18-.14,.03-.01,.07-.02,.12-.02h.05s-.02,.04-.05,.08c-.03,.04-.07,.08-.11,.11-.04,.03-.08,.06-.12,.09-.04,.03-.07,.04-.08,.02-.03-.03-.03-.08,0-.14m-.31,1.78c0-.08,.04-.13,.13-.15,.07-.02,.11-.01,.12,.03,.01,.04-.01,.1-.07,.17-.12,.14-.18,.13-.18-.05m-.05,.23s.08,.07,.1,.22c.02,.12,.01,.18-.04,.17-.05-.01-.09-.08-.11-.2-.02-.12,0-.18,.05-.18m-6.2,1.36c.06-.02,.08-.01,.08,.02s-.02,.1-.07,.17c-.05,.08-.07,.07-.07-.02-.02-.09,0-.15,.05-.18m.67-1.14c0-.07,.02-.11,.07-.13,.06-.02,.08-.03,.08-.02,0,.01-.03,.06-.06,.13-.04,.05-.07,.06-.08,.02m6.1-1.19s.06-.02,.06,0c0,.02-.03,.06-.06,.12-.04,.09-.07,.1-.07,.03-.02-.06,0-.11,.07-.15m9.41,3.98s.08-.06,.12-.05c.02,.01,.03,.02,0,.04-.02,.02-.05,.03-.09,.04-.09,.04-.1,.03-.03-.03m-.53,.08c.02,.09,.07,.22,.16,.38,.06,.11,.11,.2,.17,.28,.05,.07,.1,.1,.12,.09,.06,0,.13,.08,.22,.25,.12,.21,.26,.39,.41,.53,.15,.14,.29,.22,.41,.24,.06,.02,.11,.03,.16,.03,.05,0,.09-.02,.11-.04,.02-.02,.07-.05,.13-.08,.07-.03,.14-.05,.23-.07,.2-.06,.35-.12,.46-.19,.1-.07,.15-.14,.12-.19-.02-.03-.03-.05-.02-.05s.03,0,.05,.02c.07,.02,.14-.01,.22-.1,.08-.1,.15-.15,.22-.15,.02,0,.09-.05,.21-.15s.25-.23,.41-.38c.15-.16,.33-.33,.51-.54,.18-.2,.36-.4,.53-.6,.09-.1,.17-.18,.23-.25,.06-.07,.1-.09,.13-.08,.03,0,.05-.02,.05-.05,.01-.02,.03-.06,.06-.1,.03-.04,.06-.1,.11-.15,.04-.06,.08-.11,.12-.17,.03-.05,.05-.1,.05-.13,0-.07,.04-.11,.12-.14,.06-.02,.08-.07,.08-.13,0-.03,.01-.08,.04-.14,.03-.06,.06-.13,.09-.19,.03-.07,.07-.13,.11-.18,.04-.05,.07-.07,.09-.07,.07,0,.11,.03,.12,.1,.02,.07,.04,.24,.06,.53,.02,.33,.05,.59,.07,.76,.03,.17,.06,.31,.11,.41,.04,.11,.05,.18,.02,.2-.02,.01-.03,.02-.02,.03,.01,0,.03,0,.05-.03,.02-.02,.05-.03,.07-.02,.02,0,.03,.02,.03,.04,0,.1,.07,.24,.22,.43,.15,.18,.33,.37,.54,.57,.21,.19,.41,.38,.63,.54,.21,.17,.38,.28,.5,.35,.1,.06,.19,.1,.26,.13,.07,.03,.15,.06,.24,.08,.09,.02,.21,.02,.35,.02h.62c.27,0,.5,0,.71-.02,.21-.02,.39-.04,.56-.07,.17-.03,.33-.07,.48-.12,.15-.05,.31-.11,.48-.18,.26-.11,.36-.2,.32-.25-.04-.07,.02-.12,.2-.15,.07-.02,.15-.05,.25-.07,.1-.02,.18-.06,.25-.12,.07-.05,.15-.11,.26-.16,.1-.05,.2-.1,.28-.14,.08-.04,.16-.09,.23-.15,.08-.06,.13-.1,.17-.12,.09-.07,.15-.1,.18-.1,.02,0,.12-.07,.28-.2,.17-.13,.35-.28,.54-.45,.19-.17,.36-.32,.51-.47,.15-.14,.23-.23,.23-.25s-.03-.02-.09,0c-.06,.03-.13,.07-.22,.12s-.17,.1-.26,.16-.16,.11-.22,.17c-.07,.06-.14,.1-.22,.13-.08,.03-.16,.05-.25,.07-.04,.01-.04,0,0-.05,.04-.05,.12-.1,.22-.17,.1-.07,.21-.14,.33-.22,.12-.08,.23-.14,.33-.2,.21-.12,.41-.26,.61-.4,.2-.14,.29-.24,.29-.28,0-.06-.04-.07-.13-.03-.08,.03-.1,.03-.05-.02,.04-.05,.2-.17,.45-.37,.12-.1,.27-.24,.44-.43,.17-.18,.33-.37,.47-.55,.14-.18,.24-.35,.3-.49,.06-.14,.04-.21-.06-.21-.06,0-.15,.04-.28,.11-.13,.07-.26,.16-.4,.25-.14,.1-.27,.19-.4,.28-.13,.1-.23,.16-.29,.21-.09,.07-.19,.14-.29,.22-.1,.08-.19,.14-.26,.17-.07,.03-.23,.13-.49,.3-.26,.17-.54,.35-.83,.55-.4,.27-.82,.54-1.25,.82-.43,.28-.87,.53-1.32,.76-.45,.23-.92,.41-1.4,.55-.48,.14-.97,.21-1.47,.21-.3,0-.57-.02-.8-.07-.23-.05-.38-.13-.43-.24-.02-.05-.04-.16-.04-.34,0-.18,0-.39,0-.61,0-.22,.02-.44,.04-.64,.02-.21,.05-.35,.08-.44,.07-.19,.17-.4,.3-.64,.13-.23,.25-.41,.35-.52,.17-.18,.3-.34,.41-.48,.11-.14,.18-.27,.23-.38,.05-.12,.08-.23,.09-.35,.01-.12,0-.24-.02-.38-.02-.11-.05-.21-.09-.28-.04-.08-.1-.15-.19-.22-.21-.15-.38-.26-.49-.31-.12-.05-.27-.06-.46-.04-.08,.01-.15,.02-.2,.02s-.11,0-.15-.02c-.04-.02-.09-.04-.14-.08-.04-.04-.1-.09-.18-.16-.09-.09-.18-.16-.26-.22-.08-.06-.14-.08-.18-.08-.02,0-.08-.02-.17-.05-.09-.03-.18-.07-.27-.12-.12-.06-.32-.11-.58-.15-.26-.04-.52-.07-.78-.07-.18,0-.34,0-.49,.03s-.24,.05-.3,.09c-.22,.16-.49,.37-.79,.65-.31,.28-.58,.57-.83,.89-.09,.11-.18,.23-.28,.34-.09,.12-.17,.2-.22,.26-.18,.18-.36,.39-.54,.63-.18,.24-.36,.49-.54,.75-.17,.26-.33,.52-.48,.78-.14,.26-.26,.49-.35,.68-.07,.15-.13,.28-.18,.4-.06,.12-.1,.2-.12,.23-.02,.03-.04,.1-.06,.2-.02,.1-.04,.2-.06,.3-.02,.16-.02,.28,0,.38m1.94-.18c.04-.1,.09-.21,.16-.34,.07-.13,.14-.26,.22-.38,.08-.13,.14-.22,.2-.28,.17-.17,.25-.28,.25-.33,0-.03,.06-.14,.19-.31s.29-.38,.49-.61c.2-.23,.42-.48,.67-.74,.24-.26,.48-.5,.71-.72,.23-.22,.43-.4,.62-.54,.18-.14,.32-.22,.41-.22,.05,0,.08-.02,.08-.05,0-.02,.03-.05,.1-.08,.07-.03,.14-.06,.23-.08,.23-.06,.38-.06,.43,0,.07,.07,.11,.13,.12,.19,.01,.06-.04,.16-.14,.3-.1,.14-.29,.34-.55,.6-.26,.26-.63,.63-1.1,1.1-.26,.26-.51,.51-.75,.74-.25,.24-.47,.45-.67,.64-.2,.19-.37,.35-.51,.48-.14,.13-.23,.21-.28,.24-.21,.16-.41,.3-.61,.43-.2,.13-.3,.18-.33,.16-.01-.02,0-.08,.04-.18m11.95-.05l.17-.17c.11-.11,.19-.17,.23-.17s.08-.03,.12-.1c.02-.04,.03-.04,.03,0,.02,.06,0,.11-.08,.15-.02,.02-.06,.05-.12,.08-.06,.03-.11,.06-.17,.09l-.18,.12Zm-1,.57c.1-.06,.16-.07,.18-.05,.02,.02,.01,.05-.03,.08-.04,.03-.1,.05-.17,.03-.08,0-.07-.02,.02-.07m-1.02,.72c.16-.07,.17-.04,.05,.08-.06,.06-.1,.07-.13,.03-.03-.03,0-.07,.08-.12"/>
  </g>
</svg>